<svg width="1049" height="1000" viewBox="0 0 1049 1000" fill="none" xmlns="http://www.w3.org/2000/svg">
<path d="M143.467 624.368C141.674 602.785 136.691 581.588 128.681 561.468C115.495 528.956 90.2596 496.298 61.182 490.185C32.1044 484.073 19.8214 503.575 25.9338 522.785C31.2312 539.318 52.8284 553.056 69.2446 567.493C85.6608 581.93 116.281 616.974 124.78 650.534L141.196 652.339L143.467 624.368Z" fill="#5F2EEA"/>
<g opacity="0.15">
<path d="M143.467 624.368C141.674 602.785 136.691 581.588 128.681 561.468C115.495 528.956 90.2596 496.298 61.182 490.185C32.1044 484.073 19.8214 503.575 25.9338 522.785C31.2312 539.318 52.8284 553.056 69.2446 567.493C85.6608 581.93 116.281 616.974 124.78 650.534L141.196 652.339L143.467 624.368Z" fill="black"/>
</g>
<path d="M132.203 639.445C131.734 639.445 131.284 639.263 130.947 638.937C130.61 638.611 130.413 638.167 130.398 637.698C127.342 552.939 44.5041 505.554 43.6018 505.03C43.2069 504.779 42.9226 504.387 42.8071 503.934C42.6916 503.481 42.7535 503.001 42.9803 502.592C43.2071 502.183 43.5816 501.876 44.0272 501.734C44.4727 501.592 44.9557 501.626 45.3773 501.828C46.2505 502.323 130.922 550.727 134.036 637.495C134.052 637.976 133.878 638.444 133.551 638.798C133.224 639.153 132.771 639.364 132.29 639.386L132.203 639.445Z" fill="white"/>
<path d="M156.536 773.568C156.536 773.568 139.596 784.279 113.109 779.71C104.544 778.57 96.5626 774.738 90.3182 768.766C83.4781 761.722 82.4012 754.62 80.4801 745.189C79.951 741.247 78.6026 737.46 76.5216 734.07C70.7003 726.27 59.5233 726.415 50.0927 724.378C36.7036 721.467 24.3914 711.862 20.5202 698.735C16.6491 685.608 22.9361 669.628 35.6266 664.447L20.0545 654.463C15.2136 651.622 10.737 648.201 6.72366 644.276C2.71759 640.275 0.324262 634.939 0 629.286C0 621.02 6.14152 613.627 13.7093 610.25C21.4613 607.257 29.8729 606.393 38.0716 607.747C46.3764 608.763 54.5394 610.716 62.4048 613.568C64.5481 614.536 66.8648 615.061 69.2158 615.111C72.2755 614.57 75.1432 613.246 77.5403 611.269C95.3537 599.626 124.373 600.412 133.92 622.592C135.317 625.852 136.161 629.344 137.675 632.546C143.205 644.509 158.777 640.9 168.848 646.488C172.009 648.49 174.69 651.162 176.702 654.316C178.715 657.47 180.008 661.028 180.491 664.738C182.499 676.555 179.21 690.032 177.027 701.704C174.844 713.375 172.079 724.232 168.906 735.293C166.316 744.432 163.463 753.485 160.436 762.479C159.796 764.341 158.399 772.404 156.536 773.568Z" fill="#5F2EEA"/>
<path d="M167.189 746.266C158.311 721.841 143.733 699.888 124.664 682.231C124.465 681.805 124.111 681.472 123.674 681.3C118.18 676.149 112.419 671.291 106.414 666.746C104.145 651.029 106.156 634.991 112.235 620.321C112.44 619.885 112.463 619.385 112.299 618.932C112.135 618.479 111.798 618.11 111.362 617.905C110.926 617.701 110.426 617.678 109.973 617.842C109.52 618.005 109.151 618.342 108.946 618.778C102.918 632.922 100.603 648.372 102.223 663.661C77.8257 646.066 50.761 632.504 22.0626 623.494C21.5959 623.377 21.102 623.444 20.6842 623.683C20.2664 623.922 19.9572 624.313 19.8214 624.775C19.7554 625.006 19.7364 625.248 19.7653 625.487C19.7943 625.725 19.8707 625.956 19.99 626.165C20.1093 626.373 20.2691 626.556 20.4601 626.702C20.6511 626.849 20.8693 626.955 21.1021 627.016C21.8588 627.219 73.4942 641.889 116.223 679.408C90.0268 674.838 58.7953 687.47 57.369 688.14C56.9682 688.29 56.634 688.579 56.4261 688.953C56.2182 689.327 56.1502 689.763 56.2342 690.183C56.3181 690.603 56.5487 690.979 56.8845 691.245C57.2204 691.51 57.6397 691.648 58.0676 691.633C58.2986 691.675 58.5352 691.675 58.7662 691.633C59.1155 691.458 95.819 676.614 121.753 684.676C140.589 701.948 155.019 723.475 163.841 747.459C163.963 747.817 164.195 748.128 164.503 748.347C164.811 748.567 165.181 748.684 165.559 748.682H166.17C166.4 748.596 166.61 748.464 166.787 748.294C166.964 748.124 167.104 747.919 167.199 747.693C167.295 747.467 167.343 747.224 167.341 746.979C167.339 746.733 167.287 746.491 167.189 746.266Z" fill="white"/>
<path d="M157.118 771.036C157.428 775.295 158.739 779.421 160.944 783.078C163.149 786.734 166.186 789.819 169.809 792.08L524.765 996.934C528.688 998.928 533.026 999.967 537.427 999.967C541.827 999.967 546.165 998.928 550.088 996.934L1035.68 716.577C1039.49 714.55 1042.69 711.522 1044.92 707.817C1047.14 704.112 1048.32 699.871 1048.32 695.548C1048.32 691.225 1047.14 686.983 1044.92 683.279C1042.69 679.574 1039.49 676.545 1035.68 674.518L680.777 469.607C676.851 467.626 672.514 466.595 668.116 466.595C663.718 466.595 659.381 467.626 655.455 469.607L169.809 750.021C166.189 752.278 163.152 755.357 160.947 759.009C158.742 762.661 157.43 766.782 157.118 771.036Z" fill="#37474F"/>
<path d="M537.368 972.6V999.99C532.969 1000.11 528.611 999.111 524.707 997.079L169.663 792.08C165.953 790.125 162.827 787.22 160.605 783.663C158.383 780.106 157.144 776.023 157.013 771.831C156.883 767.639 157.867 763.487 159.864 759.799C161.861 756.111 164.8 753.018 168.382 750.836C162.707 754.911 163.143 760.878 169.663 764.633L524.765 969.544C528.639 971.616 532.976 972.668 537.368 972.6Z" fill="#263238"/>
<path d="M145.243 750.458C141.717 748.059 138.806 744.865 136.743 741.134C134.68 737.402 133.523 733.238 133.367 728.977V305.445C133.606 301.053 134.877 296.78 137.077 292.972C139.277 289.164 142.344 285.928 146.029 283.528L631.616 3.17142C635.387 1.17058 639.576 0.0857922 643.844 0.00488444C648.111 -0.0760234 652.338 0.849217 656.182 2.70571C659.708 5.10408 662.619 8.29806 664.682 12.0296C666.745 15.7611 667.902 19.9255 668.058 24.1865V447.719C667.819 452.11 666.548 456.383 664.348 460.191C662.148 464 659.081 467.235 655.396 469.636L169.809 750.021C166.034 752.011 161.844 753.087 157.578 753.163C153.311 753.238 149.086 752.312 145.243 750.458Z" fill="#455A64"/>
<path d="M168.295 750.778C164.661 752.407 160.716 753.223 156.734 753.168C152.752 753.112 148.83 752.188 145.243 750.458C141.717 748.06 138.806 744.866 136.743 741.134C134.68 737.403 133.523 733.238 133.367 728.977V305.445C133.506 301.039 134.79 296.746 137.093 292.987L160.844 306.668C158.562 310.435 157.28 314.723 157.118 319.125V742.686C157.118 750.196 162.008 753.543 168.295 750.778Z" fill="#263238"/>
<path d="M157.118 319.184V742.687C157.118 750.778 162.94 754.038 169.809 750.022L655.396 469.636C659.081 467.236 662.148 464 664.348 460.192C666.548 456.384 667.819 452.11 668.058 447.719V24.187C668.058 16.1244 662.382 12.8353 655.396 16.8812L169.809 297.237C166.115 299.638 163.04 302.876 160.834 306.69C158.629 310.504 157.356 314.785 157.118 319.184Z" fill="#37474F"/>
<path d="M169.808 764.634L524.765 969.545C528.692 971.525 533.028 972.557 537.426 972.557C541.824 972.557 546.161 971.525 550.088 969.545L1035.68 689.189C1042.69 685.143 1042.69 678.594 1035.68 674.635L680.777 469.724C676.85 467.744 672.514 466.712 668.116 466.712C663.718 466.712 659.381 467.744 655.454 469.724L169.808 750.022C162.794 754.039 162.794 760.588 169.808 764.634Z" fill="#455A64"/>
<path d="M176.62 320.755L644.801 50.4993C648.993 48.0834 652.398 50.0627 652.398 54.8944V421.639C652.253 424.274 651.489 426.838 650.169 429.124C648.85 431.409 647.011 433.352 644.801 434.796L176.62 704.906C172.399 707.322 168.994 705.372 168.994 700.511V333.766C169.156 331.151 169.93 328.611 171.255 326.351C172.58 324.091 174.417 322.174 176.62 320.755Z" fill="#FAFAFA"/>
<path d="M210.995 753.659L661.741 493.387C663.701 492.383 665.871 491.859 668.072 491.859C670.274 491.859 672.444 492.383 674.403 493.387L697.455 506.689C698.212 506.954 698.868 507.448 699.332 508.103C699.796 508.757 700.045 509.539 700.045 510.341C700.045 511.144 699.796 511.926 699.332 512.58C698.868 513.235 698.212 513.729 697.455 513.994L246.65 774.238C244.691 775.241 242.521 775.765 240.32 775.765C238.118 775.765 235.948 775.241 233.989 774.238L210.995 760.965C210.238 760.699 209.582 760.205 209.118 759.551C208.654 758.896 208.405 758.114 208.405 757.312C208.405 756.51 208.654 755.728 209.118 755.073C209.582 754.419 210.238 753.925 210.995 753.659Z" fill="#37474F"/>
<path d="M270.401 787.977L721.148 527.734C723.112 526.743 725.28 526.228 727.479 526.228C729.678 526.228 731.846 526.743 733.81 527.734L875.618 609.611C876.375 609.876 877.03 610.37 877.494 611.025C877.958 611.679 878.207 612.462 878.207 613.264C878.207 614.066 877.958 614.848 877.494 615.503C877.03 616.157 876.375 616.651 875.618 616.917L425.395 876.782C423.428 877.779 421.254 878.298 419.05 878.298C416.845 878.298 414.671 877.779 412.704 876.782L270.431 795.283C269.659 795.035 268.985 794.548 268.506 793.894C268.028 793.24 267.768 792.451 267.765 791.64C267.761 790.83 268.015 790.039 268.488 789.381C268.962 788.723 269.632 788.231 270.401 787.977Z" fill="#263238"/>
<path d="M674.461 644.743L688.549 636.622C689.16 636.272 689.131 635.69 688.549 635.312L672.22 625.881C671.874 625.703 671.489 625.609 671.099 625.609C670.71 625.609 670.325 625.703 669.979 625.881L655.862 634.031C655.251 634.351 655.28 634.934 655.862 635.312L672.162 644.743C672.517 644.926 672.911 645.022 673.312 645.022C673.712 645.022 674.106 644.926 674.461 644.743ZM646.606 612.376L632.46 620.584C631.849 620.933 631.907 621.515 632.46 621.894L648.76 631.295C649.112 631.474 649.501 631.567 649.895 631.567C650.29 631.567 650.679 631.474 651.03 631.295L665.147 623.145C665.729 622.796 665.7 622.214 665.147 621.836L648.818 612.434C648.475 612.26 648.097 612.17 647.712 612.17C647.328 612.17 646.949 612.26 646.606 612.434V612.376ZM600.996 638.921L577.128 652.689C576.517 653.038 576.546 653.62 577.128 653.998L593.428 663.429C593.782 663.601 594.17 663.691 594.563 663.691C594.957 663.691 595.345 663.601 595.698 663.429L619.566 649.662C620.177 649.312 620.119 648.73 619.566 648.352L603.353 638.921C602.991 638.728 602.586 638.626 602.175 638.626C601.763 638.626 601.359 638.728 600.996 638.921ZM625.969 624.368L611.853 632.518C611.271 632.867 611.3 633.449 611.853 633.828L628.182 643.258C628.53 643.43 628.913 643.52 629.302 643.52C629.691 643.52 630.074 643.43 630.423 643.258L644.54 635.108C645.122 634.759 645.093 634.177 644.54 633.828L628.211 624.368C627.864 624.189 627.48 624.096 627.09 624.096C626.7 624.096 626.316 624.189 625.969 624.368ZM570.667 656.385L556.55 664.506C555.968 664.855 555.997 665.437 556.55 665.816L572.879 675.246C573.225 675.425 573.609 675.518 573.999 675.518C574.389 675.518 574.773 675.425 575.12 675.246L589.237 667.096C589.819 666.776 589.79 666.194 589.237 665.816L572.85 656.385C572.503 656.207 572.119 656.113 571.729 656.113C571.339 656.113 570.955 656.207 570.608 656.385H570.667ZM550.03 668.29L535.942 676.44C535.331 676.76 535.36 677.342 535.942 677.72L552.271 687.151C552.62 687.323 553.003 687.412 553.392 687.412C553.78 687.412 554.164 687.323 554.512 687.151L568.629 679.001C569.24 678.652 569.182 678.07 568.629 677.691L552.329 668.261C551.969 668.063 551.565 667.956 551.154 667.951C550.743 667.946 550.337 668.043 549.972 668.232L550.03 668.29ZM614.239 706.594L628.356 698.445C628.938 698.095 628.909 697.513 628.356 697.135L612.027 687.733C611.681 687.554 611.297 687.461 610.907 687.461C610.517 687.461 610.133 687.554 609.786 687.733L595.669 695.883C595.058 696.232 595.116 696.814 595.669 697.193L611.969 706.594C612.318 706.755 612.698 706.833 613.082 706.823C613.465 706.813 613.842 706.715 614.181 706.536L614.239 706.594ZM593.603 718.499L607.72 710.349C608.331 710 608.273 709.418 607.72 709.039L591.42 699.638C591.068 699.459 590.679 699.366 590.285 699.366C589.89 699.366 589.501 699.459 589.149 699.638L575.033 707.788C574.451 708.137 574.48 708.719 575.033 709.097L591.362 718.528C591.709 718.677 592.085 718.747 592.463 718.732C592.841 718.717 593.21 718.617 593.545 718.441L593.603 718.499ZM572.966 730.404L587.083 722.254C587.694 721.905 587.665 721.322 587.083 720.973L570.783 711.543C570.437 711.364 570.052 711.271 569.662 711.271C569.273 711.271 568.888 711.364 568.542 711.543L554.425 719.692C553.814 720.042 553.843 720.624 554.425 721.002L570.754 730.433C571.097 730.578 571.468 730.645 571.841 730.63C572.213 730.615 572.577 730.518 572.908 730.345L572.966 730.404ZM552.358 742.308L566.475 734.158C567.057 733.838 567.028 733.256 566.475 732.878L550.001 723.331C549.654 723.152 549.27 723.059 548.88 723.059C548.49 723.059 548.106 723.152 547.76 723.331L533.643 731.452C533.032 731.801 533.09 732.383 533.643 732.761L549.943 742.192C550.301 742.395 550.703 742.506 551.114 742.516C551.525 742.526 551.933 742.435 552.3 742.25L552.358 742.308ZM653.883 656.793L668 648.643C668.582 648.294 668.553 647.711 668 647.333L651.671 637.902C651.322 637.73 650.939 637.641 650.55 637.641C650.161 637.641 649.778 637.73 649.429 637.902L635.313 646.052C634.731 646.402 634.76 646.984 635.313 647.333L651.642 656.764C651.985 656.922 652.359 657.001 652.736 656.996C653.114 656.991 653.486 656.902 653.825 656.735L653.883 656.793ZM634.847 694.632L666.34 676.44C666.952 676.091 666.893 675.508 666.34 675.159L626.639 652.281C626.287 652.102 625.898 652.009 625.504 652.009C625.109 652.009 624.72 652.102 624.369 652.281L608.098 661.683C607.487 662.032 607.516 662.614 608.098 662.992L629.055 675.101C629.724 675.479 629.753 676.061 629.055 676.382L616.044 683.92C615.433 684.269 615.462 684.852 616.044 685.23L632.373 694.632C632.741 694.841 633.157 694.951 633.581 694.951C634.004 694.951 634.421 694.841 634.789 694.632H634.847ZM529.422 680.078L515.306 688.228C514.694 688.577 514.753 689.159 515.306 689.509L531.605 698.939C531.957 699.118 532.346 699.211 532.741 699.211C533.135 699.211 533.524 699.118 533.876 698.939L547.963 690.789C548.575 690.44 548.546 689.858 547.963 689.48L531.635 680.049C531.275 679.886 530.883 679.809 530.489 679.824C530.095 679.839 529.71 679.946 529.364 680.136L529.422 680.078ZM508.786 691.983L494.669 700.133C494.087 700.482 494.116 701.064 494.669 701.442L510.998 710.844C511.344 711.023 511.729 711.116 512.118 711.116C512.508 711.116 512.893 711.023 513.239 710.844L527.356 702.694C527.938 702.345 527.909 701.763 527.356 701.384L511.027 691.983C510.668 691.803 510.271 691.714 509.87 691.725C509.469 691.735 509.077 691.843 508.728 692.041L508.786 691.983ZM405.719 825.524C406.067 825.696 406.451 825.786 406.839 825.786C407.228 825.786 407.611 825.696 407.96 825.524L422.077 817.375C422.688 817.025 422.659 816.443 422.077 816.094L405.777 806.663C405.423 806.491 405.035 806.401 404.642 806.401C404.248 806.401 403.86 806.491 403.507 806.663L389.419 814.813C388.808 815.162 388.837 815.745 389.419 816.123L405.719 825.524ZM343.721 787.366L329.605 795.515C329.023 795.865 329.052 796.447 329.605 796.825L345.934 806.227C346.28 806.405 346.664 806.499 347.054 806.499C347.444 806.499 347.828 806.405 348.175 806.227L362.292 798.077C362.874 797.728 362.845 797.145 362.292 796.767L345.963 787.366C345.616 787.187 345.232 787.094 344.842 787.094C344.452 787.094 344.068 787.187 343.721 787.366ZM376.932 815.308C377.281 815.48 377.664 815.569 378.053 815.569C378.442 815.569 378.825 815.48 379.173 815.308L393.29 807.158C393.872 806.809 393.843 806.227 393.29 805.848L376.961 796.418C376.615 796.239 376.231 796.146 375.841 796.146C375.451 796.146 375.067 796.239 374.72 796.418L360.603 804.568C360.021 804.917 360.05 805.47 360.603 805.848L376.932 815.308ZM442.073 832.772L456.19 824.622C456.801 824.302 456.743 823.72 456.19 823.341L439.89 813.911C439.538 813.732 439.149 813.639 438.755 813.639C438.36 813.639 437.971 813.732 437.62 813.911L423.503 822.032C422.921 822.381 422.95 822.963 423.503 823.341L439.832 832.772C440.176 832.955 440.559 833.053 440.949 833.059C441.339 833.064 441.724 832.975 442.073 832.801V832.772ZM419.195 844.648C419.549 844.82 419.937 844.91 420.33 844.91C420.724 844.91 421.112 844.82 421.466 844.648L435.553 836.498C436.164 836.148 436.135 835.566 435.553 835.188L419.224 825.757C418.878 825.579 418.494 825.485 418.104 825.485C417.714 825.485 417.33 825.579 416.983 825.757L402.808 833.936C402.197 834.257 402.226 834.839 402.808 835.217L419.195 844.648ZM364.358 775.374L350.241 783.523C349.63 783.873 349.659 784.455 350.241 784.804L366.541 794.235C366.888 794.413 367.272 794.507 367.662 794.507C368.052 794.507 368.436 794.413 368.782 794.235L382.899 786.085C383.51 785.736 383.481 785.153 382.899 784.775L366.57 775.344C366.221 775.186 365.841 775.109 365.457 775.119C365.074 775.129 364.698 775.226 364.358 775.403V775.374ZM467.483 715.821L453.367 723.971C452.755 724.32 452.813 724.903 453.367 725.281L469.666 734.682C470.018 734.861 470.407 734.955 470.801 734.955C471.196 734.955 471.585 734.861 471.937 734.682L486.053 726.532C486.635 726.183 486.606 725.601 486.053 725.223L469.724 715.821C469.376 715.647 468.99 715.559 468.6 715.564C468.21 715.569 467.827 715.667 467.483 715.85V715.821ZM385.053 763.498L370.936 771.648C370.354 771.997 370.383 772.579 370.936 772.929L387.265 782.359C387.612 782.538 387.996 782.631 388.386 782.631C388.776 782.631 389.16 782.538 389.506 782.359L403.623 774.209C404.234 773.86 404.176 773.278 403.623 772.9L387.323 763.469C386.968 763.301 386.578 763.216 386.185 763.221C385.791 763.227 385.404 763.321 385.053 763.498ZM488.178 703.946L474.09 712.096C473.479 712.445 473.508 713.027 474.09 713.405L490.419 722.807C490.766 722.986 491.15 723.079 491.54 723.079C491.93 723.079 492.314 722.986 492.661 722.807L506.777 714.657C507.389 714.308 507.36 713.726 506.777 713.347L490.478 703.946C490.111 703.747 489.701 703.643 489.284 703.643C488.867 703.643 488.457 703.747 488.091 703.946H488.178ZM446.934 727.755L432.817 735.905C432.235 736.254 432.264 736.836 432.817 737.215L449.088 746.616C449.436 746.788 449.82 746.878 450.208 746.878C450.597 746.878 450.981 746.788 451.329 746.616L465.446 738.466C466.057 738.117 465.999 737.535 465.446 737.186L449.088 727.813C448.746 727.625 448.364 727.522 447.974 727.512C447.584 727.502 447.198 727.585 446.847 727.755H446.934ZM426.326 739.66L412.21 747.81C411.598 748.159 411.627 748.741 412.21 749.119L428.538 758.55C428.885 758.729 429.269 758.822 429.659 758.822C430.049 758.822 430.433 758.729 430.78 758.55L444.896 750.4C445.508 750.051 445.479 749.469 444.896 749.119L428.568 739.689C428.21 739.498 427.812 739.396 427.407 739.391C427.002 739.386 426.601 739.478 426.239 739.66H426.326ZM405.69 751.593L391.573 759.743C390.962 760.063 391.02 760.646 391.573 761.024L407.873 770.455C408.224 770.633 408.613 770.727 409.008 770.727C409.402 770.727 409.791 770.633 410.143 770.455L424.26 762.334C424.842 761.984 424.813 761.402 424.26 761.024L407.931 751.593C407.573 751.4 407.173 751.298 406.767 751.298C406.36 751.298 405.96 751.4 405.602 751.593H405.69ZM511.114 766.147L525.231 757.997C525.842 757.648 525.813 757.065 525.231 756.687L508.902 747.256C508.554 747.084 508.17 746.995 507.782 746.995C507.393 746.995 507.009 747.084 506.661 747.256L492.544 755.406C491.933 755.756 491.962 756.338 492.544 756.687L508.873 766.118C509.21 766.278 509.58 766.358 509.953 766.353C510.327 766.348 510.694 766.258 511.027 766.089L511.114 766.147ZM692.275 586.18L678.158 594.33C677.576 594.679 677.605 595.261 678.158 595.61L694.487 605.041C694.833 605.22 695.217 605.313 695.607 605.313C695.997 605.313 696.381 605.22 696.728 605.041L710.845 596.891C711.456 596.542 711.398 595.96 710.845 595.581L694.545 586.151C694.182 585.96 693.779 585.857 693.37 585.852C692.96 585.847 692.554 585.94 692.187 586.122L692.275 586.18ZM667.301 600.588L653.213 608.738C652.602 609.087 652.631 609.669 653.213 610.047L669.542 619.449C669.889 619.627 670.273 619.721 670.663 619.721C671.053 619.721 671.437 619.627 671.783 619.449L685.9 611.299C686.511 610.95 686.482 610.367 685.9 609.989L669.6 600.588C669.239 600.38 668.831 600.266 668.414 600.256C667.998 600.245 667.585 600.34 667.214 600.529L667.301 600.588ZM712.911 574.392L698.794 582.541C698.183 582.862 698.241 583.444 698.794 583.822L715.094 593.253C715.448 593.425 715.836 593.515 716.229 593.515C716.623 593.515 717.011 593.425 717.365 593.253L731.481 585.103C732.063 584.754 732.034 584.171 731.481 583.793L715.152 574.362C714.807 574.146 714.413 574.019 714.007 573.994C713.6 573.969 713.193 574.045 712.824 574.217L712.911 574.392ZM606.148 684.473L620.264 676.323C620.847 675.974 620.818 675.392 620.264 675.014L603.936 665.612C603.589 665.433 603.205 665.34 602.815 665.34C602.425 665.34 602.041 665.433 601.694 665.612L587.578 673.762C586.996 674.111 587.025 674.693 587.578 675.072L603.907 684.473C604.255 684.611 604.63 684.667 605.004 684.637C605.377 684.607 605.739 684.491 606.06 684.299L606.148 684.473ZM735.789 562.516C735.437 562.337 735.048 562.244 734.654 562.244C734.259 562.244 733.87 562.337 733.519 562.516L719.431 570.637C718.82 570.986 718.849 571.568 719.431 571.947L735.76 581.377C736.107 581.556 736.491 581.649 736.881 581.649C737.271 581.649 737.655 581.556 738.001 581.377L752.118 573.227C752.729 572.907 752.7 572.325 752.118 571.947L735.789 562.516ZM531.751 754.329L545.868 746.209C546.479 745.859 546.421 745.277 545.868 744.899L529.568 735.468C529.216 735.289 528.827 735.196 528.433 735.196C528.038 735.196 527.649 735.289 527.298 735.468L513.123 743.414C512.54 743.735 512.57 744.317 513.123 744.695L529.452 754.126C529.792 754.304 530.17 754.4 530.554 754.405C530.938 754.41 531.319 754.324 531.664 754.155L531.751 754.329ZM784.688 608.301L798.805 600.151C799.416 599.802 799.358 599.22 798.805 598.87L782.505 589.44C782.154 589.261 781.765 589.168 781.37 589.168C780.976 589.168 780.587 589.261 780.235 589.44L766.147 597.59C765.536 597.939 765.565 598.521 766.147 598.899L782.476 608.33C782.824 608.453 783.194 608.498 783.561 608.463C783.928 608.428 784.283 608.313 784.601 608.126L784.688 608.301ZM740.766 606.758L754.883 598.608C755.465 598.259 755.436 597.677 754.883 597.299L738.554 587.897C738.208 587.718 737.824 587.625 737.434 587.625C737.044 587.625 736.66 587.718 736.313 587.897L722.196 596.047C721.585 596.396 721.643 596.978 722.196 597.357L738.496 606.758C738.849 606.897 739.23 606.953 739.608 606.922C739.986 606.892 740.352 606.776 740.679 606.584L740.766 606.758ZM759.104 575.992C758.752 575.814 758.363 575.72 757.968 575.72C757.574 575.72 757.185 575.814 756.833 575.992L742.746 584.142C742.134 584.492 742.164 585.074 742.746 585.452L759.075 594.854C759.421 595.032 759.805 595.126 760.195 595.126C760.585 595.126 760.969 595.032 761.316 594.854L775.432 586.704C776.044 586.354 776.015 585.772 775.432 585.394L759.104 575.992ZM763.441 573.46L803.084 596.367C803.432 596.539 803.816 596.629 804.205 596.629C804.593 596.629 804.977 596.539 805.325 596.367L819.442 588.217C820.024 587.868 819.995 587.286 819.442 586.937L779.798 564.03C779.45 563.858 779.066 563.768 778.678 563.768C778.289 563.768 777.906 563.858 777.557 564.03L763.441 572.179C762.684 572.354 762.713 572.936 763.441 573.285V573.46ZM715.589 599.656L701.472 607.806C700.89 608.155 700.919 608.738 701.472 609.116L717.801 618.517C718.148 618.696 718.532 618.789 718.922 618.789C719.312 618.789 719.696 618.696 720.042 618.517L734.159 610.367C734.77 610.018 734.712 609.436 734.159 609.058L717.859 599.656C717.504 599.449 717.103 599.333 716.691 599.317C716.28 599.302 715.872 599.389 715.502 599.569L715.589 599.656ZM560.276 689.188L546.159 697.338C545.548 697.688 545.606 698.27 546.159 698.648L562.459 708.079C562.81 708.258 563.199 708.351 563.594 708.351C563.988 708.351 564.377 708.258 564.729 708.079L578.817 699.929C579.428 699.58 579.399 699.027 578.817 698.648L562.604 689.247C562.249 689.051 561.852 688.944 561.447 688.934C561.042 688.924 560.64 689.011 560.276 689.188ZM761.723 620.002C762.075 620.181 762.464 620.274 762.858 620.274C763.253 620.274 763.642 620.181 763.994 620.002L778.11 611.852C778.692 611.532 778.663 610.95 778.11 610.571L761.694 601.082C761.346 600.91 760.962 600.821 760.574 600.821C760.185 600.821 759.801 600.91 759.453 601.082L745.336 609.232C744.725 609.582 744.783 610.164 745.336 610.542L761.723 620.002ZM580.883 677.284L566.795 685.434C566.184 685.783 566.213 686.365 566.795 686.744L583.124 696.174C583.473 696.346 583.856 696.436 584.245 696.436C584.634 696.436 585.017 696.346 585.366 696.174L599.482 688.024C600.094 687.675 600.064 687.093 599.482 686.744L583.183 677.313C582.829 677.125 582.436 677.024 582.036 677.019C581.636 677.014 581.241 677.105 580.883 677.284ZM426.297 813.562C426.646 813.734 427.029 813.823 427.418 813.823C427.806 813.823 428.19 813.734 428.538 813.562L442.655 805.412C443.237 805.062 443.208 804.48 442.655 804.131L426.326 794.7C425.98 794.522 425.596 794.429 425.206 794.429C424.816 794.429 424.432 794.522 424.085 794.7L409.968 802.85C409.386 803.2 409.415 803.782 409.968 804.16L426.297 813.562ZM395.269 784.455L381.153 792.576C380.541 792.925 380.571 793.507 381.153 793.885L397.452 803.316C397.804 803.495 398.193 803.588 398.588 803.588C398.982 803.588 399.371 803.495 399.723 803.316L413.81 795.166C414.422 794.846 414.393 794.264 413.81 793.885L397.511 784.455C397.164 784.276 396.78 784.183 396.39 784.183C396 784.183 395.616 784.276 395.269 784.455ZM449.088 801.919L463.175 793.769C463.787 793.42 463.758 792.838 463.175 792.459L446.847 783.058C446.5 782.879 446.116 782.786 445.726 782.786C445.336 782.786 444.952 782.879 444.605 783.058L430.489 791.208C429.877 791.557 429.906 792.139 430.489 792.517L446.788 801.919C447.144 802.103 447.538 802.199 447.938 802.199C448.338 802.199 448.732 802.103 449.088 801.919ZM469.695 790.014L483.812 781.864C484.423 781.515 484.365 780.933 483.812 780.555L467.512 771.153C467.161 770.974 466.772 770.881 466.377 770.881C465.983 770.881 465.594 770.974 465.242 771.153L451.125 779.303C450.543 779.652 450.572 780.234 451.125 780.613L467.454 790.014C467.821 790.19 468.227 790.272 468.633 790.251C469.04 790.231 469.435 790.11 469.783 789.898L469.695 790.014ZM490.332 778.11L504.449 769.96C505.031 769.61 505.002 769.028 504.449 768.65L488.12 759.219C487.771 759.047 487.388 758.958 486.999 758.958C486.611 758.958 486.227 759.047 485.879 759.219L471.762 767.369C471.151 767.719 471.209 768.301 471.762 768.65L488.062 778.081C488.432 778.261 488.84 778.347 489.251 778.332C489.663 778.317 490.064 778.2 490.419 777.993L490.332 778.11ZM415.79 772.667L401.673 780.817C401.091 781.166 401.12 781.748 401.673 782.126L418.002 791.557C418.35 791.729 418.734 791.818 419.122 791.818C419.511 791.818 419.895 791.729 420.243 791.557L434.36 783.407C434.971 783.058 434.913 782.476 434.36 782.126L418.06 772.696C417.729 772.514 417.362 772.406 416.985 772.381C416.608 772.356 416.229 772.414 415.877 772.55L415.79 772.667ZM436.426 760.762L422.31 768.912C421.698 769.261 421.757 769.843 422.31 770.222L438.609 779.652C438.963 779.825 439.351 779.914 439.745 779.914C440.138 779.914 440.526 779.825 440.88 779.652L454.996 771.502C455.579 771.153 455.55 770.571 454.996 770.222L438.668 760.791C438.344 760.604 437.981 760.493 437.608 760.468C437.234 760.443 436.86 760.503 436.514 760.646L436.426 760.762ZM518.944 713.027L504.856 721.177C504.245 721.526 504.274 722.108 504.856 722.458L521.185 731.888C521.532 732.067 521.916 732.16 522.306 732.16C522.696 732.16 523.08 732.067 523.426 731.888L537.543 723.738C538.154 723.389 538.125 722.807 537.543 722.428L521.243 712.998C520.884 712.825 520.489 712.738 520.09 712.743C519.691 712.748 519.299 712.845 518.944 713.027ZM498.336 724.932L484.22 733.082C483.608 733.431 483.667 734.013 484.22 734.362L500.519 743.793C500.871 743.972 501.26 744.065 501.655 744.065C502.049 744.065 502.438 743.972 502.79 743.793L516.907 735.643C517.489 735.294 517.46 734.711 516.907 734.333L500.578 724.903C500.235 724.744 499.861 724.665 499.483 724.67C499.105 724.675 498.733 724.764 498.395 724.932H498.336ZM539.581 701.122L525.464 709.272C524.882 709.592 524.911 710.174 525.464 710.553L541.793 719.983C542.139 720.162 542.523 720.255 542.913 720.255C543.303 720.255 543.687 720.162 544.034 719.983L558.151 711.863C558.733 711.513 558.704 710.931 558.151 710.553L541.822 701.122C541.483 700.953 541.109 700.865 540.73 700.865C540.352 700.865 539.978 700.953 539.639 701.122H539.581ZM457.092 748.741L442.975 756.891C442.364 757.24 442.393 757.822 442.975 758.201L459.304 767.602C459.651 767.781 460.035 767.874 460.425 767.874C460.815 767.874 461.199 767.781 461.546 767.602L475.662 759.452C476.274 759.103 476.244 758.521 475.662 758.142L459.333 748.741C458.994 748.572 458.621 748.484 458.242 748.484C457.863 748.484 457.489 748.572 457.15 748.741H457.092ZM477.7 736.836L463.583 744.986C463.001 745.335 463.03 745.918 463.583 746.296L479.912 755.697C480.258 755.876 480.643 755.969 481.032 755.969C481.422 755.969 481.807 755.876 482.153 755.697L496.27 747.548C496.881 747.198 496.823 746.616 496.27 746.238L479.941 736.836C479.602 736.667 479.228 736.579 478.849 736.579C478.471 736.579 478.097 736.667 477.758 736.836H477.7ZM462.652 820.896L476.768 812.747C477.35 812.397 477.321 811.815 476.768 811.466L460.41 801.919C460.064 801.74 459.68 801.647 459.29 801.647C458.9 801.647 458.516 801.74 458.169 801.919L444.052 810.069C443.441 810.418 443.499 811 444.052 811.379L460.352 820.809C460.71 821.009 461.111 821.122 461.52 821.137C461.93 821.152 462.338 821.07 462.71 820.896H462.652ZM341.597 808.672L325.297 799.27C324.945 799.091 324.556 798.998 324.162 798.998C323.767 798.998 323.378 799.091 323.027 799.27L308.91 807.42C308.328 807.769 308.357 808.352 308.91 808.73L325.239 818.131C325.585 818.31 325.969 818.403 326.359 818.403C326.749 818.403 327.133 818.31 327.48 818.131L341.597 809.981C342.353 809.632 342.295 809.05 341.655 808.672H341.597ZM372.508 817.753L356.208 808.322C355.855 808.15 355.466 808.06 355.073 808.06C354.68 808.06 354.292 808.15 353.938 808.322L332.224 820.838C331.642 821.188 331.671 821.77 332.224 822.148L348.553 831.579C348.9 831.757 349.284 831.851 349.674 831.851C350.064 831.851 350.448 831.757 350.794 831.579L372.508 819.063C373.41 818.714 373.207 818.131 372.566 817.753H372.508ZM316.565 790.48L300.265 781.049C299.913 780.87 299.525 780.777 299.13 780.777C298.735 780.777 298.346 780.87 297.995 781.049L280.531 791.091C279.949 791.44 279.978 792.023 280.531 792.372L296.86 801.802C297.206 801.981 297.59 802.074 297.98 802.074C298.37 802.074 298.754 801.981 299.101 801.802L316.565 791.761C317.322 791.411 317.263 790.829 316.623 790.48H316.565ZM329.896 782.767C330.242 782.945 330.626 783.039 331.016 783.039C331.406 783.039 331.79 782.945 332.137 782.767L346.254 774.617C346.836 774.268 346.807 773.685 346.254 773.307L329.896 764.08C329.549 763.901 329.165 763.808 328.775 763.808C328.385 763.808 328.001 763.901 327.655 764.08L313.538 772.23C312.956 772.579 312.985 773.161 313.538 773.54L329.896 782.767ZM401.324 828.115L385.053 818.655C384.707 818.477 384.322 818.383 383.932 818.383C383.543 818.383 383.158 818.477 382.812 818.655L355.655 834.315C355.073 834.664 355.102 835.246 355.655 835.624L371.984 845.026C372.331 845.205 372.715 845.298 373.105 845.298C373.495 845.298 373.879 845.205 374.225 845.026L401.353 829.367C401.993 829.046 401.964 828.464 401.324 828.115ZM414.858 847.209L398.529 837.778C398.181 837.606 397.797 837.517 397.409 837.517C397.02 837.517 396.637 837.606 396.288 837.778L378.824 847.791C378.242 848.14 378.271 848.723 378.824 849.101L395.153 858.532C395.502 858.704 395.885 858.793 396.274 858.793C396.662 858.793 397.046 858.704 397.394 858.532L414.858 848.519C415.528 848.14 415.499 847.558 414.858 847.18V847.209ZM483.288 694.224C483.642 694.396 484.03 694.486 484.423 694.486C484.817 694.486 485.205 694.396 485.559 694.224L499.675 686.074C500.257 685.725 500.228 685.143 499.675 684.793L483.346 675.363C483 675.184 482.616 675.091 482.226 675.091C481.836 675.091 481.452 675.184 481.105 675.363L466.988 683.513C466.377 683.862 466.435 684.444 466.988 684.822L483.288 694.224ZM442.044 718.033C442.396 718.212 442.785 718.306 443.179 718.306C443.574 718.306 443.963 718.212 444.314 718.033L458.402 709.883C459.013 709.563 458.984 708.981 458.402 708.603L442.073 699.172C441.725 699 441.341 698.911 440.953 698.911C440.564 698.911 440.18 699 439.832 699.172L425.802 707.322C425.191 707.671 425.22 708.253 425.802 708.632L442.044 718.033ZM350.562 770.833C350.913 771.012 351.302 771.105 351.697 771.105C352.091 771.105 352.48 771.012 352.832 770.833L366.92 762.683C367.531 762.334 367.502 761.752 366.92 761.373L350.591 751.972C350.244 751.793 349.86 751.7 349.47 751.7C349.08 751.7 348.696 751.793 348.349 751.972L334.233 760.122C333.621 760.471 333.68 761.053 334.233 761.431L350.562 770.833ZM462.681 706.129C463.029 706.301 463.413 706.39 463.801 706.39C464.19 706.39 464.573 706.301 464.922 706.129L479.039 697.979C479.65 697.63 479.592 697.047 479.039 696.698L462.739 687.267C462.387 687.089 461.998 686.995 461.604 686.995C461.209 686.995 460.82 687.089 460.469 687.267L446.352 695.417C445.77 695.767 445.799 696.349 446.352 696.727L462.681 706.129ZM421.436 729.938C421.783 730.117 422.167 730.21 422.557 730.21C422.947 730.21 423.331 730.117 423.678 729.938L437.794 721.817C438.377 721.468 438.347 720.886 437.794 720.507L421.466 711.077C421.119 710.898 420.735 710.805 420.345 710.805C419.955 710.805 419.571 710.898 419.224 711.077L405.108 719.227C404.525 719.547 404.555 720.129 405.108 720.507L421.436 729.938ZM426.21 848.693C425.858 848.515 425.469 848.421 425.075 848.421C424.68 848.421 424.291 848.515 423.94 848.693L402.226 861.238C401.644 861.588 401.673 862.17 402.226 862.519L418.555 871.95C418.901 872.128 419.286 872.222 419.675 872.222C420.065 872.222 420.45 872.128 420.796 871.95L442.51 859.405C443.092 859.055 443.063 858.473 442.51 858.095L426.21 848.693ZM391.835 747.024C392.183 747.196 392.567 747.285 392.955 747.285C393.344 747.285 393.728 747.196 394.076 747.024L408.193 738.874C408.775 738.524 408.746 737.942 408.193 737.564L391.864 728.133C391.515 727.961 391.132 727.872 390.743 727.872C390.355 727.872 389.971 727.961 389.623 728.133L375.506 736.283C374.924 736.633 374.953 737.215 375.506 737.564L391.835 747.024ZM371.198 758.928C371.545 759.107 371.929 759.2 372.319 759.2C372.709 759.2 373.093 759.107 373.439 758.928L387.556 750.778C388.167 750.429 388.138 749.847 387.556 749.469L371.256 740.038C370.903 739.866 370.515 739.776 370.121 739.776C369.728 739.776 369.34 739.866 368.986 740.038L354.898 748.188C354.287 748.537 354.316 749.119 354.898 749.469L371.198 758.928ZM808.323 627.948C807.977 627.769 807.592 627.676 807.202 627.676C806.813 627.676 806.428 627.769 806.082 627.948L771.328 648.002C770.746 648.352 770.775 648.934 771.328 649.312L787.657 658.743C788.006 658.915 788.389 659.004 788.778 659.004C789.167 659.004 789.55 658.915 789.899 658.743L824.71 638.921C825.321 638.572 825.292 637.99 824.71 637.64L808.323 627.948ZM762.713 654.144C762.364 653.972 761.981 653.883 761.592 653.883C761.204 653.883 760.82 653.972 760.472 654.144L746.355 662.294C745.773 662.643 745.802 663.225 746.355 663.575L762.684 673.005C763.032 673.177 763.416 673.267 763.804 673.267C764.193 673.267 764.576 673.177 764.925 673.005L779.042 664.855C779.624 664.506 779.595 663.924 779.042 663.545L762.713 654.144ZM483.288 808.73L497.405 800.58C498.016 800.231 497.987 799.649 497.405 799.299L481.105 790.276C480.759 790.098 480.375 790.004 479.985 790.004C479.595 790.004 479.211 790.098 478.864 790.276L464.747 798.426C464.136 798.775 464.165 799.358 464.747 799.736L481.076 809.166C481.438 809.312 481.828 809.372 482.217 809.342C482.606 809.311 482.982 809.192 483.317 808.992L483.288 808.73ZM721.44 677.982C721.093 677.804 720.709 677.71 720.319 677.71C719.929 677.71 719.545 677.804 719.198 677.982L705.082 686.132C704.47 686.482 704.529 687.064 705.082 687.442L721.381 696.844C721.733 697.023 722.122 697.116 722.516 697.116C722.911 697.116 723.3 697.023 723.652 696.844L737.768 688.694C738.35 688.344 738.321 687.762 737.768 687.384L721.44 677.982ZM828.931 615.927C828.579 615.748 828.19 615.655 827.795 615.655C827.401 615.655 827.012 615.748 826.66 615.927L812.544 624.077C811.961 624.426 811.991 625.008 812.544 625.387L828.872 634.788C829.219 634.967 829.603 635.06 829.993 635.06C830.383 635.06 830.767 634.967 831.114 634.788L845.23 626.638C845.842 626.289 845.783 625.707 845.23 625.328L828.931 615.927ZM865.867 613.424L826.224 590.546C825.877 590.367 825.493 590.274 825.103 590.274C824.713 590.274 824.329 590.367 823.982 590.546L809.866 598.696C809.255 599.016 809.313 599.598 809.866 599.976L849.48 622.854C849.832 623.033 850.221 623.126 850.615 623.126C851.01 623.126 851.399 623.033 851.75 622.854L865.867 614.704C866.566 614.646 866.537 614.064 865.896 613.686L865.867 613.424ZM644.365 722.458C644.016 722.286 643.633 722.196 643.244 722.196C642.856 722.196 642.472 722.286 642.124 722.458L624.66 732.47C624.048 732.82 624.107 733.402 624.66 733.78L640.959 743.211C641.313 743.383 641.701 743.473 642.095 743.473C642.488 743.473 642.876 743.383 643.23 743.211L660.694 733.198C661.276 732.849 661.247 732.267 660.694 731.888L644.365 722.458ZM696.495 692.652C696.149 692.474 695.764 692.38 695.374 692.38C694.985 692.38 694.6 692.474 694.254 692.652L672.54 705.197C671.958 705.546 671.987 706.129 672.54 706.507L688.869 715.909C689.216 716.087 689.6 716.18 689.99 716.18C690.38 716.18 690.764 716.087 691.11 715.909L712.824 703.364C713.406 703.014 713.377 702.432 712.824 702.083L696.495 692.652ZM596.63 750.313C596.283 750.134 595.899 750.041 595.509 750.041C595.119 750.041 594.735 750.134 594.389 750.313L478.224 817.258C477.612 817.607 477.671 818.19 478.224 818.568L494.523 827.999C494.877 828.171 495.265 828.26 495.659 828.26C496.052 828.26 496.44 828.171 496.794 827.999L612.93 761.053C613.541 760.704 613.512 760.122 612.93 759.772L596.63 750.313ZM473.974 821.129C473.622 820.95 473.233 820.857 472.839 820.857C472.444 820.857 472.055 820.95 471.704 821.129L454.24 831.142C453.658 831.491 453.687 832.073 454.24 832.452L470.569 841.853C470.915 842.032 471.299 842.125 471.689 842.125C472.079 842.125 472.463 842.032 472.81 841.853L490.274 831.812C490.885 831.491 490.827 830.909 490.274 830.531L473.974 821.129ZM620.526 736.516C620.175 736.337 619.786 736.244 619.391 736.244C618.997 736.244 618.608 736.337 618.256 736.516L600.792 746.529C600.181 746.878 600.21 747.46 600.792 747.839L617.121 757.24C617.467 757.419 617.852 757.512 618.242 757.512C618.631 757.512 619.016 757.419 619.362 757.24L636.826 747.198C637.437 746.878 637.379 746.296 636.826 745.918L620.526 736.516ZM450.077 834.926C449.731 834.747 449.347 834.654 448.957 834.654C448.567 834.654 448.183 834.747 447.836 834.926L430.372 844.968C429.761 845.317 429.819 845.899 430.372 846.278L446.672 855.679C447.024 855.858 447.413 855.951 447.807 855.951C448.202 855.951 448.591 855.858 448.942 855.679L466.406 845.637C467.018 845.288 466.988 844.706 466.406 844.357L450.077 834.926ZM668.378 708.952C668.026 708.773 667.637 708.68 667.243 708.68C666.848 708.68 666.459 708.773 666.108 708.952L648.644 718.994C648.032 719.343 648.061 719.925 648.644 720.275L664.972 729.705C665.321 729.877 665.704 729.967 666.093 729.967C666.482 729.967 666.865 729.877 667.214 729.705L684.678 719.663C685.289 719.314 685.231 718.732 684.678 718.354L668.378 708.952ZM742.193 666.311C741.839 666.138 741.451 666.049 741.057 666.049C740.664 666.049 740.276 666.138 739.922 666.311L725.835 674.46C725.223 674.81 725.252 675.392 725.835 675.741L742.164 685.172C742.51 685.351 742.894 685.444 743.284 685.444C743.674 685.444 744.058 685.351 744.405 685.172L758.521 677.022C759.133 676.673 759.104 676.091 758.521 675.712L742.193 666.311ZM787.395 633.507L801.483 625.357C802.094 625.008 802.065 624.426 801.483 624.048L785.154 614.646C784.808 614.467 784.423 614.374 784.034 614.374C783.644 614.374 783.259 614.467 782.913 614.646L768.796 622.796C768.185 623.145 768.214 623.727 768.796 624.106L785.096 633.507C785.44 633.677 785.818 633.765 786.202 633.765C786.586 633.765 786.964 633.677 787.308 633.507H787.395ZM695.156 632.896L709.273 624.746C709.884 624.426 709.826 623.844 709.273 623.466L692.973 614.035C692.62 613.863 692.231 613.773 691.838 613.773C691.445 613.773 691.056 613.863 690.703 614.035L676.586 622.185C676.004 622.534 676.033 623.116 676.586 623.495L692.915 632.925C693.252 633.085 693.622 633.166 693.995 633.161C694.369 633.156 694.736 633.065 695.069 632.896H695.156ZM648.585 713.726L689.83 689.916C690.412 689.567 690.383 688.985 689.83 688.606L673.21 679.176C672.861 679.004 672.478 678.914 672.089 678.914C671.7 678.914 671.317 679.004 670.968 679.176L629.695 702.956C629.084 703.305 629.113 703.887 629.695 704.266L645.995 713.667C646.353 713.87 646.755 713.981 647.166 713.991C647.578 714.002 647.985 713.91 648.353 713.726H648.585ZM764.663 645.354C765.01 645.532 765.394 645.626 765.784 645.626C766.173 645.626 766.558 645.532 766.904 645.354L781.021 637.204C781.603 636.855 781.574 636.272 781.021 635.894L764.692 626.493C764.346 626.314 763.961 626.221 763.572 626.221C763.182 626.221 762.797 626.314 762.451 626.493L748.334 634.642C747.752 634.992 747.781 635.574 748.334 635.952L764.663 645.354ZM743.59 631.965L757.706 623.815C758.289 623.466 758.26 622.883 757.706 622.505L741.378 613.074C741.031 612.896 740.647 612.802 740.257 612.802C739.867 612.802 739.483 612.896 739.136 613.074L725.02 621.224C724.437 621.545 724.467 622.127 725.02 622.505L741.349 631.936C741.664 632.077 742.004 632.153 742.35 632.158C742.695 632.163 743.038 632.097 743.357 631.965H743.59ZM627.949 725.63L642.065 717.48C642.648 717.131 642.618 716.549 642.065 716.2L625.737 706.769C625.39 706.59 625.006 706.497 624.616 706.497C624.226 706.497 623.842 706.59 623.495 706.769L609.379 714.919C608.796 715.268 608.826 715.85 609.379 716.229L625.707 725.659C626.026 725.792 626.369 725.857 626.715 725.852C627.06 725.847 627.401 725.772 627.716 725.63H627.949ZM719.053 671.695C719.399 671.874 719.784 671.967 720.173 671.967C720.563 671.967 720.947 671.874 721.294 671.695L735.411 663.545C736.022 663.196 735.993 662.614 735.411 662.265L719.082 652.834C718.733 652.662 718.35 652.573 717.961 652.573C717.573 652.573 717.189 652.662 716.841 652.834L702.724 660.984C702.113 661.333 702.142 661.916 702.724 662.294L719.053 671.695ZM524.824 785.212L538.94 777.062C539.522 776.712 539.493 776.13 538.94 775.752L522.611 766.35C522.265 766.172 521.881 766.079 521.491 766.079C521.101 766.079 520.717 766.172 520.37 766.35L506.253 774.5C505.642 774.85 505.7 775.432 506.253 775.81L522.553 785.212C522.876 785.35 523.224 785.419 523.575 785.414C523.926 785.409 524.272 785.33 524.591 785.183L524.824 785.212ZM545.431 773.307L559.548 765.157C560.159 764.808 560.13 764.226 559.548 763.847L543.248 754.417C542.9 754.245 542.516 754.155 542.127 754.155C541.739 754.155 541.355 754.245 541.007 754.417L526.89 762.567C526.279 762.916 526.308 763.498 526.89 763.847L543.219 773.278C543.523 773.408 543.849 773.474 544.18 773.474C544.51 773.474 544.836 773.408 545.14 773.278L545.431 773.307ZM504.187 797.116L518.304 788.966C518.915 788.617 518.857 788.035 518.304 787.657L502.004 778.255C501.652 778.076 501.263 777.983 500.869 777.983C500.474 777.983 500.085 778.076 499.734 778.255L485.617 786.405C485.035 786.754 485.064 787.336 485.617 787.715L501.946 797.116C502.263 797.254 502.607 797.323 502.953 797.318C503.299 797.313 503.64 797.234 503.954 797.087L504.187 797.116ZM586.472 749.527L600.559 741.406C601.17 741.057 601.141 740.475 600.559 740.096L584.23 730.666C583.884 730.487 583.5 730.394 583.11 730.394C582.72 730.394 582.336 730.487 581.989 730.666L567.872 738.816C567.261 739.136 567.319 739.718 567.872 740.096L584.172 749.527C584.528 749.711 584.922 749.806 585.322 749.806C585.722 749.806 586.116 749.711 586.472 749.527ZM565.835 761.461L579.952 753.311C580.534 752.961 580.505 752.379 579.952 752.001L563.623 742.57C563.274 742.398 562.891 742.309 562.502 742.309C562.114 742.309 561.73 742.398 561.382 742.57L547.265 750.72C546.683 751.069 546.712 751.652 547.265 752.001L563.594 761.431C563.947 761.594 564.332 761.674 564.721 761.664C565.11 761.654 565.491 761.554 565.835 761.373V761.461ZM607.079 737.622L621.196 729.472C621.807 729.123 621.749 728.541 621.196 728.192L604.896 718.761C604.543 718.589 604.154 718.499 603.761 718.499C603.368 718.499 602.979 718.589 602.626 718.761L588.538 726.911C587.927 727.26 587.956 727.842 588.538 728.221L604.867 737.651C605.221 737.801 605.603 737.868 605.986 737.848C606.37 737.828 606.743 737.721 607.079 737.535V737.622ZM701.443 561.468C701.795 561.647 702.184 561.74 702.578 561.74C702.973 561.74 703.362 561.647 703.714 561.468L717.83 553.318C718.412 552.998 718.383 552.416 717.83 552.038L713.493 549.534C713.142 549.355 712.753 549.262 712.358 549.262C711.964 549.262 711.575 549.355 711.223 549.534L697.106 557.684C696.524 558.034 696.553 558.616 697.106 558.994L701.443 561.468ZM599.977 626.958C600.324 627.137 600.708 627.23 601.098 627.23C601.488 627.23 601.872 627.137 602.218 626.958L616.335 618.808C616.917 618.459 616.888 617.877 616.335 617.499L600.006 608.097C599.66 607.918 599.275 607.825 598.886 607.825C598.496 607.825 598.112 607.918 597.765 608.097L583.648 616.247C583.066 616.596 583.095 617.178 583.648 617.557L599.977 626.958ZM641.192 603.062C641.539 603.24 641.923 603.334 642.313 603.334C642.703 603.334 643.087 603.24 643.433 603.062L657.55 594.912C658.161 594.563 658.103 593.98 657.55 593.602L641.25 584.171C640.897 583.999 640.509 583.909 640.115 583.909C639.722 583.909 639.334 583.999 638.98 584.171L624.863 592.321C624.281 592.671 624.31 593.253 624.863 593.602L641.192 603.062ZM574.742 641.424C575.095 641.597 575.483 641.686 575.877 641.686C576.27 641.686 576.658 641.597 577.012 641.424L591.129 633.274C591.711 632.925 591.682 632.343 591.129 631.965L574.8 622.534C574.451 622.362 574.068 622.273 573.679 622.273C573.291 622.273 572.907 622.362 572.559 622.534L558.442 630.684C557.831 631.004 557.889 631.586 558.442 631.965L574.742 641.424ZM620.556 614.966C620.907 615.145 621.296 615.239 621.691 615.239C622.085 615.239 622.474 615.145 622.826 614.966L636.914 606.816C637.525 606.467 637.496 605.885 636.914 605.507L620.585 596.105C620.238 595.927 619.854 595.833 619.464 595.833C619.074 595.833 618.69 595.927 618.343 596.105L604.227 604.255C603.615 604.604 603.645 605.187 604.227 605.565L620.556 614.966ZM533.497 665.117C533.844 665.296 534.228 665.389 534.618 665.389C535.008 665.389 535.392 665.296 535.739 665.117L549.855 656.967C550.467 656.618 550.437 656.036 549.855 655.658L533.497 646.431C533.151 646.252 532.767 646.159 532.377 646.159C531.987 646.159 531.603 646.252 531.256 646.431L517.139 654.581C516.528 654.93 516.557 655.512 517.139 655.89L533.497 665.117ZM554.163 653.475C554.51 653.653 554.894 653.746 555.284 653.746C555.674 653.746 556.058 653.653 556.404 653.475L570.521 645.325C571.132 644.975 571.074 644.393 570.521 644.015L554.192 634.584C553.844 634.412 553.46 634.323 553.072 634.323C552.683 634.323 552.3 634.412 551.951 634.584L537.834 642.734C537.252 643.083 537.281 643.666 537.834 644.015L554.163 653.475ZM660.199 585.336C660.545 585.514 660.93 585.608 661.32 585.608C661.709 585.608 662.094 585.514 662.44 585.336L676.557 577.186C677.168 576.836 677.139 576.254 676.557 575.876L672.22 573.373C671.874 573.194 671.489 573.101 671.099 573.101C670.71 573.101 670.325 573.194 669.979 573.373L655.862 581.523C655.251 581.872 655.309 582.454 655.862 582.832L660.199 585.336ZM722.08 549.622C722.428 549.794 722.812 549.883 723.2 549.883C723.589 549.883 723.973 549.794 724.321 549.622L738.438 541.472C739.049 541.123 739.02 540.54 738.438 540.191L734.101 537.688C733.754 537.509 733.37 537.416 732.98 537.416C732.59 537.416 732.206 537.509 731.86 537.688L717.743 545.838C717.132 546.187 717.19 546.769 717.743 547.148L722.08 549.622ZM756.368 569.414C756.716 569.586 757.1 569.676 757.488 569.676C757.877 569.676 758.26 569.586 758.609 569.414L772.726 561.264C773.337 560.915 773.279 560.333 772.726 559.984L756.397 550.553C756.05 550.374 755.666 550.281 755.276 550.281C754.886 550.281 754.502 550.374 754.155 550.553L740.039 558.703C739.457 559.052 739.486 559.634 740.039 560.013L756.368 569.414ZM807.916 621.806L822.032 613.657C822.644 613.307 822.585 612.725 822.032 612.347L805.733 602.916C805.379 602.744 804.991 602.654 804.597 602.654C804.204 602.654 803.816 602.744 803.462 602.916L789.345 611.066C788.763 611.415 788.792 611.997 789.345 612.347L805.674 621.777C806.035 621.93 806.426 621.993 806.816 621.963C807.206 621.932 807.583 621.809 807.916 621.603V621.806ZM680.836 573.489C681.184 573.661 681.568 573.751 681.956 573.751C682.345 573.751 682.728 573.661 683.077 573.489L697.194 565.339C697.776 564.99 697.747 564.408 697.194 564.03L692.857 561.526C692.51 561.348 692.126 561.254 691.736 561.254C691.346 561.254 690.962 561.348 690.616 561.526L676.499 569.676C675.887 570.026 675.917 570.608 676.499 570.986L680.836 573.489ZM512.89 677.342C513.241 677.521 513.63 677.614 514.025 677.614C514.419 677.614 514.808 677.521 515.16 677.342L529.277 669.192C529.859 668.843 529.83 668.261 529.277 667.882L512.948 658.481C512.601 658.302 512.217 658.209 511.827 658.209C511.437 658.209 511.053 658.302 510.707 658.481L496.59 666.631C495.979 666.98 496.037 667.562 496.59 667.941L512.89 677.342Z" fill="#455A64"/>
<path d="M604.372 800.958L743.648 720.419C746.003 719.227 748.605 718.606 751.244 718.606C753.884 718.606 756.486 719.227 758.841 720.419L838.71 766.524C842.901 768.969 842.901 772.899 838.71 775.256L699.405 855.824C697.054 857.029 694.45 857.658 691.808 857.658C689.167 857.658 686.562 857.029 684.212 855.824L604.343 809.719C600.18 807.303 600.18 803.374 604.372 800.958Z" fill="#263238"/>
<path d="M634.818 92.3555V113.632L317.817 296.656C315.634 297.907 313.858 296.888 313.858 294.356L314.091 286.73C312.201 285.976 310.254 285.373 308.27 284.926L213.323 339.734C212.167 340.493 211.205 341.513 210.512 342.71C209.82 343.908 209.417 345.251 209.336 346.632V354.665C209.269 356.046 208.876 357.392 208.187 358.591C207.499 359.791 206.536 360.809 205.377 361.564L194.433 367.88V346.632C194.5 345.251 194.893 343.905 195.581 342.706C196.27 341.507 197.233 340.488 198.392 339.734L630.859 90.056C633.042 88.8044 634.818 89.8232 634.818 92.3555Z" fill="#5F2EEA"/>
<path d="M634.847 410.957C634.773 412.336 634.373 413.677 633.68 414.871C632.986 416.065 632.02 417.078 630.859 417.826L198.392 667.504C196.209 668.785 194.433 667.737 194.433 665.204V367.879L205.377 361.563C207.56 360.311 211.199 341.014 213.323 339.733L308.27 284.925C310.453 283.673 315.634 297.907 317.817 296.568L634.818 113.632V410.957H634.847Z" fill="#EBEBEB"/>
<path d="M213.324 449.377L403.274 339.616C405.457 338.335 407.233 339.383 407.233 341.915V528.606C407.166 529.987 406.772 531.332 406.084 532.532C405.396 533.731 404.433 534.75 403.274 535.504L213.324 645.266C211.141 646.517 209.365 645.498 209.365 642.966V456.275C209.432 454.894 209.825 453.549 210.513 452.349C211.201 451.15 212.165 450.131 213.324 449.377Z" fill="#FAFAFA"/>
<path d="M213.324 400.072L615.957 167.625C618.14 166.345 619.915 167.393 619.915 169.925V197.896C619.844 199.273 619.449 200.612 618.761 201.806C618.073 203 617.112 204.014 615.957 204.766L213.324 437.241C211.141 438.493 209.365 437.474 209.365 434.942V406.97C209.432 405.589 209.825 404.243 210.513 403.044C211.201 401.845 212.165 400.826 213.324 400.072Z" fill="#455A64"/>
<path d="M470.626 273.691V281.084C470.626 282.626 471.703 283.238 473.013 282.481L590.051 214.895V201.972L473.013 269.558C472.32 270.012 471.743 270.622 471.328 271.34C470.913 272.058 470.673 272.863 470.626 273.691Z" fill="#FAFAFA"/>
<path d="M602.597 194.723C603.936 193.966 604.984 194.723 604.984 196.091V203.513C604.941 204.342 604.703 205.148 604.288 205.867C603.873 206.586 603.294 207.195 602.597 207.646L590.052 214.894V201.97L602.597 194.723Z" fill="#5F2EEA"/>
<path d="M601.694 204.881L600.268 204.445C600.419 203.855 600.497 203.249 600.501 202.64C600.554 202.086 600.464 201.528 600.24 201.018C600.016 200.509 599.665 200.065 599.22 199.73C598.913 199.545 598.561 199.447 598.202 199.447C597.843 199.447 597.491 199.545 597.183 199.73C596.271 200.399 595.531 201.277 595.025 202.289C594.519 203.301 594.261 204.419 594.272 205.551C594.225 206.105 594.317 206.661 594.541 207.17C594.765 207.678 595.113 208.122 595.553 208.462C595.83 208.613 596.14 208.693 596.455 208.694C596.858 208.682 597.25 208.562 597.59 208.345C598.636 207.639 599.431 206.62 599.861 205.434L601.258 205.871H601.403C601.513 205.876 601.621 205.844 601.711 205.781C601.8 205.718 601.866 205.627 601.898 205.522C601.945 205.408 601.95 205.282 601.913 205.165C601.875 205.048 601.798 204.947 601.694 204.881ZM597.183 207.559C597.034 207.649 596.862 207.697 596.688 207.697C596.514 207.697 596.343 207.649 596.193 207.559C595.91 207.295 595.694 206.967 595.562 206.603C595.431 206.238 595.388 205.848 595.437 205.464C595.424 204.526 595.622 203.598 596.015 202.747C596.407 201.896 596.986 201.143 597.707 200.545C597.902 200.429 598.121 200.359 598.347 200.341C598.46 200.298 598.584 200.298 598.696 200.341C599.191 200.603 599.453 201.389 599.453 202.407C599.515 203.385 599.342 204.364 598.947 205.26C598.551 206.157 597.947 206.945 597.183 207.559Z" fill="#FAFAFA"/>
<path d="M634.818 113.632V139.508L194.433 393.755V367.879L202.612 363.164C204.795 361.883 205.523 359.962 206.571 356.266L209.336 346.631C209.496 345.271 209.933 343.957 210.618 342.771C211.304 341.585 212.224 340.551 213.323 339.733L308.27 284.925C308.692 284.548 309.2 284.28 309.75 284.144C310.299 284.007 310.873 284.006 311.423 284.14C311.973 284.275 312.482 284.541 312.906 284.916C313.33 285.291 313.657 285.764 313.858 286.293L317.264 292.464C318.515 294.618 319.126 295.898 321.309 294.618L634.818 113.632Z" fill="#E6E6E6"/>
<path d="M616.19 105.714C619.1 104.113 621.196 105.394 621.196 108.625C621.112 110.373 620.614 112.076 619.744 113.594C618.873 115.111 617.655 116.401 616.19 117.357C613.279 118.958 611.154 117.648 611.154 114.446C611.235 112.694 611.734 110.987 612.61 109.468C613.486 107.949 614.714 106.662 616.19 105.714Z" fill="#455A64"/>
<path d="M598.144 116.105C600.909 114.505 603.15 115.785 603.15 119.016C603.066 120.764 602.568 122.467 601.698 123.985C600.827 125.503 599.609 126.792 598.144 127.748C595.233 129.349 593.137 128.039 593.137 124.837C593.219 123.089 593.716 121.386 594.586 119.867C595.457 118.349 596.676 117.059 598.144 116.105Z" fill="#455A64"/>
<path d="M580.068 126.643C582.834 125.042 585.075 126.323 585.075 129.554C584.99 131.301 584.493 133.004 583.622 134.522C582.752 136.04 581.534 137.33 580.068 138.286C577.158 139.887 575.062 138.577 575.062 135.375C575.144 133.627 575.641 131.923 576.511 130.405C577.382 128.886 578.601 127.597 580.068 126.643Z" fill="#455A64"/>
<path opacity="0.5" d="M212.683 369.771L206.425 373.351L208.812 368.781C208.904 368.612 208.952 368.422 208.952 368.228C208.952 368.035 208.904 367.845 208.812 367.675C208.608 367.443 208.288 367.675 208.084 367.996L204.708 374.516V374.748C204.694 374.864 204.694 374.982 204.708 375.098C204.692 375.184 204.692 375.273 204.708 375.36V375.505L208.084 378.125C208.138 378.153 208.198 378.167 208.259 378.167C208.32 378.167 208.38 378.153 208.434 378.125C208.594 377.989 208.723 377.82 208.812 377.63C208.909 377.467 208.961 377.281 208.961 377.091C208.961 376.902 208.909 376.716 208.812 376.553L206.425 374.748L212.683 371.139C212.84 371.007 212.965 370.842 213.05 370.656C213.136 370.47 213.179 370.267 213.178 370.062C213.324 369.8 212.945 369.596 212.683 369.771Z" fill="#455A64"/>
<path opacity="0.5" d="M217.893 366.744L224.151 363.135L221.764 361.301C221.561 361.156 221.532 360.661 221.764 360.253C221.997 359.846 222.259 359.613 222.463 359.758L225.868 362.378C225.885 362.474 225.885 362.573 225.868 362.669C225.883 362.785 225.883 362.902 225.868 363.018C225.876 363.096 225.876 363.174 225.868 363.251L222.463 369.771C222.388 369.921 222.278 370.051 222.143 370.15C222.088 370.19 222.022 370.211 221.954 370.211C221.886 370.211 221.819 370.19 221.764 370.15C221.673 369.98 221.625 369.79 221.625 369.596C221.625 369.403 221.673 369.213 221.764 369.043L224.151 364.445L217.893 368.228C217.602 368.403 217.398 368.228 217.398 367.763C217.399 367.567 217.444 367.373 217.53 367.197C217.616 367.021 217.74 366.866 217.893 366.744Z" fill="#455A64"/>
<path opacity="0.5" d="M238.384 348.756C238.384 348.377 238.006 348.435 237.86 348.756L236.987 350.851C235.532 350.677 233.756 352.103 232.563 354.635C231.02 357.924 231.02 361.795 232.563 363.367C232.95 363.733 233.454 363.952 233.986 363.984C234.519 364.015 235.045 363.859 235.473 363.542C236.759 362.72 237.772 361.534 238.384 360.136C238.588 359.7 238.588 359.205 238.384 359.03C238.18 358.856 237.86 359.03 237.686 359.438C236.521 361.883 234.775 362.96 233.494 361.854C232.909 360.883 232.6 359.771 232.6 358.637C232.6 357.504 232.909 356.392 233.494 355.421C234.309 353.675 235.503 352.51 236.405 352.51L235.764 354.082C235.59 354.49 235.764 354.897 235.997 354.722L238.559 353.063C238.657 352.976 238.734 352.868 238.784 352.747C238.834 352.626 238.857 352.496 238.85 352.365L238.384 348.756Z" fill="#455A64"/>
<path opacity="0.5" d="M305.505 296.743L307.804 291.911C307.934 291.685 308.003 291.429 308.003 291.169C308.003 290.908 307.934 290.652 307.804 290.426C307.513 290.164 307.076 290.426 306.814 290.979L304.544 295.811L302.274 293.599C301.983 293.366 301.575 293.599 301.284 294.181C301.154 294.407 301.085 294.663 301.085 294.923C301.085 295.184 301.154 295.44 301.284 295.666L303.554 297.878L301.284 302.68C301.151 302.91 301.081 303.171 301.081 303.437C301.081 303.703 301.151 303.964 301.284 304.194C301.357 304.244 301.443 304.271 301.531 304.271C301.62 304.271 301.706 304.244 301.779 304.194C301.993 304.035 302.163 303.825 302.274 303.583L304.544 298.78L306.814 300.963C306.847 300.996 306.885 301.021 306.928 301.039C306.97 301.057 307.016 301.066 307.062 301.066C307.108 301.066 307.153 301.057 307.196 301.039C307.238 301.021 307.277 300.996 307.309 300.963C307.53 300.824 307.702 300.621 307.804 300.381C307.937 300.151 308.007 299.89 308.007 299.624C308.007 299.358 307.937 299.097 307.804 298.867L305.505 296.743Z" fill="#455A64"/>
<path d="M246.68 354.694V346.631C246.746 345.25 247.14 343.905 247.828 342.705C248.516 341.506 249.479 340.487 250.638 339.733L608.476 133.25C610.659 131.998 612.435 133.017 612.435 135.549V143.612C612.368 144.993 611.975 146.339 611.287 147.538C610.598 148.737 609.635 149.756 608.476 150.51L250.638 356.993C248.455 358.245 246.68 357.226 246.68 354.694Z" fill="#FAFAFA"/>
<path d="M606.264 137.528L607.312 139.74C607.358 139.776 607.414 139.795 607.472 139.795C607.53 139.795 607.586 139.776 607.632 139.74L609.99 138.838C610.339 138.838 610.514 139.216 610.223 139.711L608.535 142.884C608.481 143.084 608.481 143.295 608.535 143.495L608.942 146.406C608.942 146.842 608.593 147.453 608.273 147.424L606.177 147.162C606.094 147.158 606.011 147.178 605.939 147.219C605.867 147.261 605.808 147.322 605.769 147.395L603.674 150.073C603.324 150.481 602.946 150.335 603.004 149.811L603.412 146.493C603.45 146.421 603.47 146.341 603.47 146.26C603.47 146.179 603.45 146.099 603.412 146.027L601.694 144.805C601.432 144.601 601.694 143.902 601.956 143.611L604.285 141.836C604.456 141.692 604.578 141.499 604.634 141.283L605.682 137.877C605.507 137.441 605.973 137.179 606.264 137.528Z" stroke="#E0E0E0" stroke-width="0.75" stroke-miterlimit="10"/>
<g opacity="0.5">
<path d="M617.121 132.289C616.879 132.284 616.643 132.217 616.434 132.094C616.225 131.972 616.051 131.799 615.928 131.591C615.749 131.27 615.703 130.891 615.801 130.537C615.899 130.183 616.133 129.882 616.451 129.699L627.628 123.237C627.94 123.111 628.286 123.1 628.604 123.209C628.922 123.317 629.191 123.536 629.361 123.826C629.53 124.116 629.59 124.457 629.528 124.787C629.467 125.118 629.288 125.415 629.026 125.624L617.907 132.086C617.676 132.241 617.398 132.313 617.121 132.289Z" fill="#455A64"/>
<path d="M617.121 138.751C616.879 138.746 616.643 138.679 616.434 138.556C616.225 138.434 616.051 138.261 615.928 138.053C615.84 137.896 615.783 137.724 615.762 137.545C615.741 137.367 615.755 137.186 615.804 137.013C615.852 136.84 615.934 136.678 616.046 136.537C616.157 136.396 616.295 136.278 616.451 136.19L627.628 129.699C627.94 129.573 628.286 129.562 628.604 129.67C628.922 129.778 629.191 129.998 629.361 130.288C629.53 130.577 629.59 130.919 629.528 131.249C629.467 131.579 629.288 131.876 629.026 132.086L617.907 138.577C617.666 138.708 617.394 138.768 617.121 138.751Z" fill="#455A64"/>
<path d="M617.121 145.213C616.818 145.213 616.524 145.113 616.285 144.928C616.045 144.743 615.873 144.484 615.797 144.191C615.72 143.898 615.743 143.588 615.862 143.31C615.98 143.031 616.188 142.8 616.452 142.652L627.629 136.19C627.784 136.092 627.957 136.027 628.138 135.999C628.32 135.971 628.505 135.981 628.682 136.027C628.859 136.073 629.025 136.156 629.17 136.269C629.314 136.382 629.433 136.524 629.521 136.685C629.702 137.002 629.752 137.378 629.659 137.732C629.567 138.085 629.339 138.389 629.026 138.577L617.907 145.038C617.667 145.169 617.394 145.23 617.121 145.213Z" fill="#455A64"/>
</g>
<path d="M300.323 493.387C316.303 477.116 320.407 469.723 320.407 463.203C320.407 456.683 317.671 452.579 309.172 457.382C303.17 460.736 298.673 466.253 296.598 472.808C296.066 474.186 295.23 475.425 294.151 476.433C293.072 477.441 291.779 478.192 290.369 478.629L279.279 481.074C276.63 481.686 274.855 479.997 275.495 477.349C280.356 457.527 292.61 439.219 309.812 429.294C330.478 417.36 342.528 426.383 342.528 446.525C342.528 465.881 332.341 482.035 322.153 493.649C320.255 496.082 319.148 499.037 318.981 502.119V508.697C318.898 510.171 318.471 511.606 317.733 512.885C316.995 514.164 315.966 515.252 314.731 516.061L301.109 523.92C298.751 525.288 296.859 524.181 296.859 521.475V501.624C297.066 498.569 298.285 495.671 300.323 493.387Z" fill="#455A64"/>
<path d="M296.598 551.222C296.568 547.18 297.591 543.2 299.566 539.674C301.541 536.147 304.4 533.196 307.862 531.109C315.168 526.86 318.981 530.614 318.981 538.299C319.04 542.341 318.047 546.33 316.097 549.872C314.148 553.413 311.309 556.387 307.862 558.499C300.381 562.807 296.598 558.906 296.598 551.222Z" fill="#455A64"/>
<path d="M747.926 24.4196L737.244 18.1908C736.209 17.6928 735.058 17.4865 733.914 17.5942C732.77 17.7019 731.677 18.1195 730.753 18.802L464.805 172.311C462.148 174.043 459.936 176.376 458.348 179.122C456.76 181.868 455.841 184.949 455.666 188.116V570.608C455.563 571.718 455.748 572.837 456.201 573.856C456.655 574.875 457.362 575.761 458.256 576.429L469.026 582.658L730.637 422.28C733.291 420.546 735.498 418.212 737.081 415.466C738.664 412.72 739.577 409.64 739.747 406.475L747.926 24.4196Z" fill="#5F2EEA"/>
<path opacity="0.15" d="M468.851 582.658L458.227 576.516C457.33 575.853 456.622 574.967 456.173 573.946C455.723 572.925 455.549 571.804 455.666 570.695V188.116C455.786 184.761 456.79 181.498 458.576 178.656L469.462 184.856C467.666 187.704 466.662 190.979 466.552 194.345V576.866C466.424 577.946 466.567 579.041 466.968 580.053C467.37 581.064 468.017 581.959 468.851 582.658Z" fill="black"/>
<path d="M475.488 178.569L741.436 25.0308C746.471 22.1201 750.546 24.4778 750.546 30.2991V412.791C750.376 415.956 749.463 419.036 747.88 421.782C746.297 424.528 744.089 426.862 741.436 428.596L475.488 582.134C470.452 585.044 466.348 582.687 466.348 576.865V194.345C466.528 191.183 467.449 188.107 469.037 185.367C470.624 182.627 472.834 180.298 475.488 178.569Z" fill="#5F2EEA"/>
<path opacity="0.4" d="M737.245 18.1902L747.665 24.2153C746.655 23.8512 745.573 23.7353 744.509 23.8771C743.445 24.0189 742.431 24.4144 741.552 25.0303L475.604 178.568C473.074 180.131 470.965 182.289 469.463 184.855L458.664 178.656C460.165 176.073 462.273 173.895 464.806 172.31L730.608 18.947C731.534 18.2661 732.628 17.8519 733.772 17.7493C734.917 17.6466 736.067 17.8595 737.099 18.3648L737.245 18.1902Z" fill="white"/>
<path d="M505.671 193.588L718.645 70.6119C722.458 68.3998 725.543 70.2044 725.543 74.5995V401.788C725.413 404.184 724.721 406.515 723.523 408.593C722.324 410.672 720.653 412.439 718.645 413.751L505.671 536.494C501.858 538.677 498.744 536.902 498.744 532.507V205.609C498.859 203.199 499.547 200.85 500.752 198.76C501.957 196.669 503.643 194.896 505.671 193.588Z" fill="white"/>
<path d="M674.433 265.628L676.586 263.852C673.031 259.997 668.412 257.282 663.314 256.052L662.615 258.73C667.135 259.847 671.237 262.242 674.433 265.628Z" fill="#37474F"/>
<path d="M679.177 276.484L674.781 272.176C673.741 271.092 673.16 269.648 673.16 268.145C673.16 266.643 673.741 265.198 674.781 264.114C675.865 263.073 677.31 262.492 678.813 262.492C680.315 262.492 681.76 263.073 682.844 264.114L687.21 268.422C688.251 269.506 688.832 270.95 688.832 272.453C688.832 273.956 688.251 275.4 687.21 276.484C686.127 277.516 684.689 278.092 683.193 278.092C681.697 278.092 680.259 277.516 679.177 276.484Z" fill="#5F2EEA"/>
<mask id="mask0_119_3239" style="mask-type:luminance" maskUnits="userSpaceOnUse" x="498" y="69" width="228" height="469">
<path d="M505.671 193.588L718.645 70.6119C722.458 68.3998 725.543 70.2044 725.543 74.5995V401.788C725.413 404.184 724.721 406.515 723.523 408.593C722.324 410.672 720.653 412.439 718.645 413.751L505.671 536.494C501.858 538.677 498.744 536.902 498.744 532.507V205.609C498.859 203.199 499.547 200.85 500.752 198.76C501.957 196.669 503.643 194.896 505.671 193.588Z" fill="white"/>
</mask>
<g mask="url(#mask0_119_3239)">
<path d="M717.918 375.971L727.756 392.795C727.756 392.795 792.198 358.624 795.836 354.141C799.475 349.659 799.242 340.607 799.795 335.717C800.697 327.567 797.699 320.552 797.263 317.612C796.535 312.49 803.899 312.198 807.537 319.33C810.215 324.511 810.448 330.448 812.718 330.507C815.97 328.223 819 325.641 821.771 322.793C825.758 318.427 832.977 311.151 838.449 312.14C839.379 312.356 840.222 312.846 840.871 313.547C841.519 314.247 841.943 315.126 842.087 316.07C842.244 319.078 842.934 322.035 844.125 324.802C845.013 325.852 845.739 327.029 846.278 328.294C846.453 330.173 846.453 332.063 846.278 333.941C846.511 336.648 849.189 337.783 849.48 340.432C849.396 342.473 849.173 344.505 848.811 346.515C848.811 347.825 849.218 348.96 849.218 350.27C848.938 352.959 847.771 355.479 845.9 357.43C840.449 363.782 833.988 369.19 826.777 373.439C820.956 377.281 813.155 380.687 806.402 384.296C799.649 387.905 723.797 446.177 713.697 439.308C709.564 436.397 698.678 422.513 687.239 406.97" fill="#FFA8A7"/>
<path d="M684.852 408.979C673.224 392.791 662.534 375.949 652.835 358.537C641.192 325.937 654.378 304.223 654.378 304.223C654.378 304.223 671.114 299.042 685.056 321.047C691.198 330.74 707.265 357.984 717.801 375.972" fill="#FFA8A7"/>
<path d="M625.096 304.717C625.096 304.717 643.55 297.237 655.513 298.023C667.476 298.809 676.324 302.185 685.114 316.302C696.757 335.134 716.229 367.675 716.229 367.675C708 384.594 694.865 398.642 678.536 407.988L642.793 354.082L625.096 304.717Z" fill="#455A64"/>
<path d="M566.534 337.317C560.379 342.274 555.839 348.952 553.494 356.499C550.764 365.618 549.43 375.098 549.535 384.616V445.886L548.75 561.847C587.636 575.09 637.059 563.419 678.536 517.313C678.536 517.313 676.237 368.869 676.237 344.623C676.237 343.517 676.237 342.411 676.237 341.276C674.723 306.901 645.064 290.95 615.84 307.483L591.274 321.338L566.621 337.317H566.534Z" fill="#F0F0F0"/>
<path d="M580.068 196.267C580.068 196.267 561.003 194.783 556.782 212.479C552.911 228.255 581.669 290.544 581.028 289.496C580.388 288.448 580.068 196.267 580.068 196.267Z" fill="#263238"/>
<path d="M647.392 160.639C647.392 160.639 640.319 141.603 605.973 155.138C588.509 162.036 581.96 183.662 581.96 183.662L647.392 160.639Z" fill="#5F2EEA"/>
<path opacity="0.4" d="M647.392 160.639C647.392 160.639 640.319 141.603 605.973 155.138C588.509 162.036 581.96 183.662 581.96 183.662L647.392 160.639Z" fill="black"/>
<path d="M593.167 211.198C593.167 237.394 611.504 253.636 634.149 247.552C656.794 241.469 675.131 215.535 675.131 189.339C675.131 163.143 655.6 163.143 632.955 169.255C610.31 175.368 593.167 185.06 593.167 211.198Z" fill="#263238"/>
<path d="M571.772 252.588C571.772 252.588 577.798 283.732 580.213 288.477C580.942 289.851 582.002 291.021 583.299 291.88C584.595 292.74 586.086 293.26 587.636 293.396L587.228 270.459L571.772 252.588Z" fill="#263238"/>
<path d="M579.341 203.63C576.953 204.017 574.677 204.914 572.668 206.26C570.659 207.606 568.964 209.37 567.698 211.431C562.75 218.62 565.515 236.259 571.715 252.587L583.066 251.045L579.341 203.63Z" fill="#263238"/>
<path d="M586.559 250.142C584.26 252.325 581.029 248.134 578.206 245.485C575.382 242.836 566.214 240.653 561.615 253.024C557.016 265.394 565.661 278.317 572.908 279.016C585.366 280.18 587.229 270.458 587.229 270.458L587.636 323.636C608.564 345.816 645.18 319.678 628.706 309.869V294.064C634.423 293.571 640.061 292.399 645.5 290.571C654.669 286.467 660.432 276.6 663.226 264.375C667.68 244.786 669.368 229.447 665.584 194.315C661.451 155.778 621.487 166.082 599.919 187.533C578.351 208.985 586.559 250.142 586.559 250.142Z" fill="#FFA8A7"/>
<path d="M586.558 254.712C585.394 255.061 581.028 247.872 578.205 245.631C574.275 242.545 579.34 203.775 579.34 203.775C574.799 193.763 583.182 178.656 591.943 172.515C598.238 168.473 605.342 165.86 612.755 164.86C619.042 163.734 625.309 162.871 631.558 162.269C639.198 161.869 646.802 160.955 654.319 159.533C660.204 158.137 665.908 156.066 671.317 153.362C676.091 151.179 680.049 156.098 675.829 164.277C672.051 171.716 666.803 178.311 660.402 183.662C641.832 197.605 620.264 200.952 601.49 203.018C597.27 203.484 596.338 208.461 594.068 221.996C592.06 233.755 590.401 253.46 586.558 254.712Z" fill="#263238"/>
<path d="M565.049 203.95L551.252 199.089C553.203 193.995 557.889 190.968 561.673 192.307C565.456 193.646 566.999 198.856 565.049 203.95Z" fill="#263238"/>
<path d="M628.676 294.065C628.676 294.065 608.302 294.793 601.083 292.319C596.769 290.815 593.217 287.68 591.187 283.587C592.172 287.89 594.09 291.924 596.805 295.404C602.044 301.72 628.676 300.265 628.676 300.265V294.065Z" fill="#F28F8F"/>
<path d="M623.728 234.337C623.711 235.604 623.314 236.837 622.587 237.875C621.86 238.913 620.838 239.709 619.653 240.158C617.412 240.741 615.578 239.023 615.578 236.316C615.56 235.019 615.941 233.748 616.67 232.676C617.399 231.603 618.441 230.781 619.653 230.32C621.924 229.826 623.728 231.426 623.728 234.337Z" fill="#263238"/>
<path d="M617.179 216.437L608.447 224.384C607.834 222.897 607.701 221.257 608.067 219.691C608.432 218.125 609.277 216.713 610.484 215.651C610.916 215.142 611.467 214.748 612.087 214.503C612.708 214.259 613.38 214.171 614.042 214.249C614.705 214.327 615.338 214.568 615.886 214.949C616.433 215.331 616.877 215.842 617.179 216.437Z" fill="#263238"/>
<path d="M626.842 266.151L636.186 267.694C635.918 269.179 635.135 270.522 633.974 271.486C632.813 272.45 631.349 272.973 629.84 272.962C627.25 272.555 625.911 269.499 626.842 266.151Z" fill="#F28F8F"/>
<path d="M661.363 208.752L653.359 203.775C655.018 200.865 658.103 199.322 660.315 200.69C661.437 201.679 662.162 203.041 662.355 204.524C662.548 206.007 662.195 207.51 661.363 208.752Z" fill="#263238"/>
<path d="M657.87 223.772C657.893 225.078 657.51 226.358 656.775 227.437C656.041 228.516 654.989 229.341 653.766 229.798C651.496 230.38 649.662 228.662 649.662 225.955C649.642 224.654 650.025 223.379 650.761 222.305C651.496 221.231 652.546 220.411 653.766 219.959C656.037 219.348 657.87 221.066 657.87 223.772Z" fill="#263238"/>
<path d="M637.612 225.401L638.077 253.984L652.776 246.3L637.612 225.401Z" fill="#F28F8F"/>
<path d="M504.944 510.851C516.412 392.969 534.953 351.085 564.001 339.354C573.752 346.98 575.324 381.763 564.293 407.872C564.293 407.872 540.018 486.052 538.096 512.656C536.871 537.537 537.796 562.477 540.862 587.198C541.018 588.684 541.484 590.121 542.231 591.414C542.979 592.708 543.989 593.83 545.199 594.708C551.398 598.957 550.845 604.895 555.211 610.629C558.646 615.112 561.906 615.985 561.033 617.615C560.306 619.245 559.044 620.579 557.456 621.394C555.868 622.209 554.049 622.458 552.301 622.097C549.517 621.132 546.939 619.651 544.704 617.731C546.346 624.007 548.937 629.994 552.388 635.486C560.247 648.206 559.665 656.618 540.396 658.976C528.317 660.46 519.73 652.776 514.404 622.476C512.89 613.744 509.164 598.026 507.738 586.733C503.605 554.511 503.081 529.829 504.944 510.851Z" fill="#FFA8A7"/>
<path d="M572.326 333.766C572.326 333.766 551.194 340.577 540.308 357.488C529.422 374.399 518.536 401.759 510.27 450.629C510.27 450.629 523.077 469.083 558.034 454.85C558.034 454.85 574.596 392.678 576.546 367.966C578.554 341.013 572.326 333.766 572.326 333.766Z" fill="#455A64"/>
<path d="M591.973 161.571C572.209 173.942 563.681 188.961 563.186 207.065C563.013 219.502 563.508 231.938 564.67 244.322C560.948 247.002 557.879 250.488 555.692 254.52C553.504 258.552 552.256 263.025 552.038 267.607C552.038 279.861 561.964 287.138 574.217 283.849C580.367 282.029 585.801 278.348 589.773 273.313C593.745 268.278 596.059 262.136 596.397 255.731C596.648 251.756 595.405 247.83 592.912 244.723C590.419 241.617 586.856 239.553 582.92 238.937C580.446 221.645 580.495 204.085 583.066 186.807C587.461 160.611 636.419 145.504 647.392 160.611C644.103 147.571 619.449 144.253 591.973 161.571Z" fill="#5F2EEA"/>
<path opacity="0.15" d="M591.973 161.571C572.209 173.942 563.681 188.961 563.186 207.065C563.013 219.502 563.508 231.938 564.67 244.322C560.948 247.002 557.879 250.488 555.692 254.52C553.504 258.552 552.256 263.025 552.038 267.607C552.038 279.861 561.964 287.138 574.217 283.849C580.367 282.029 585.801 278.348 589.773 273.313C593.745 268.278 596.059 262.136 596.397 255.731C596.648 251.756 595.405 247.83 592.912 244.723C590.419 241.617 586.856 239.553 582.92 238.937C580.446 221.645 580.495 204.085 583.066 186.807C587.461 160.611 636.419 145.504 647.392 160.611C644.103 147.571 619.449 144.253 591.973 161.571Z" fill="black"/>
<path d="M584.842 258.817C584.904 257.515 584.642 256.217 584.08 255.04C583.518 253.863 582.673 252.844 581.62 252.074C580.567 251.304 579.34 250.807 578.049 250.628C576.757 250.448 575.441 250.592 574.218 251.046C571.272 251.919 568.669 253.684 566.766 256.097C564.864 258.51 563.756 261.454 563.594 264.522C563.55 265.819 563.826 267.106 564.398 268.271C564.97 269.435 565.821 270.44 566.874 271.197C567.928 271.954 569.152 272.44 570.438 272.611C571.724 272.782 573.032 272.633 574.247 272.177C577.172 271.309 579.758 269.561 581.654 267.17C583.55 264.78 584.663 261.863 584.842 258.817Z" fill="#5F2EEA"/>
</g>
<path d="M417.245 445.826C416.767 446.292 416.328 446.799 415.935 447.339C415.236 448.2 414.712 449.188 414.393 450.25C414.182 450.863 414.182 451.529 414.393 452.142C414.47 452.576 414.684 452.974 415.004 453.277C415.158 453.454 415.334 453.611 415.528 453.743L404.846 447.572C404.418 447.334 404.065 446.982 403.827 446.553C403.657 446.148 403.57 445.712 403.57 445.273C403.57 444.833 403.657 444.398 403.827 443.992C404.06 443.27 404.393 442.584 404.817 441.955C405.369 441.126 405.992 440.346 406.679 439.626L417.245 445.826Z" fill="#5F2EEA"/>
<path d="M417.333 445.71C411.773 451.532 413.723 455.461 421.699 454.442L466.348 449.29V394.773L417.333 445.71Z" fill="#5F2EEA"/>
<path d="M417.332 445.71C413.811 449.377 413.316 452.288 415.411 453.714L404.729 447.544C402.488 446.147 402.983 443.178 406.534 439.452L455.579 388.603L466.377 394.86L417.332 445.71Z" fill="#5F2EEA"/>
<path opacity="0.15" d="M417.245 445.826C416.767 446.292 416.328 446.799 415.935 447.339C415.259 448.215 414.738 449.199 414.393 450.25C414.222 450.869 414.222 451.523 414.393 452.142C414.478 452.573 414.691 452.969 415.004 453.277C415.158 453.454 415.334 453.611 415.528 453.743L404.846 447.572C404.418 447.334 404.065 446.982 403.827 446.553C403.657 446.148 403.57 445.712 403.57 445.273C403.57 444.833 403.657 444.398 403.827 443.992C404.072 443.275 404.405 442.591 404.817 441.955C405.369 441.126 405.992 440.346 406.679 439.626L417.245 445.826Z" fill="black"/>
<path opacity="0.4" d="M466.377 394.773L417.332 445.71L406.504 439.452L455.578 388.603L466.377 394.773Z" fill="white"/>
<path d="M717.918 375.97L727.756 392.794C727.756 392.794 792.198 358.623 795.837 354.14C799.475 349.658 799.242 340.606 799.795 335.716C800.697 327.566 797.699 320.551 797.263 317.611C796.39 311.353 805.384 312.809 808.236 315.283C810.109 317.278 811.67 319.544 812.864 322.006C814.261 324.335 816.881 331.932 819.559 332.398C821.654 332.776 825.816 329.807 827.534 328.526C834.607 323.171 838.973 315.749 844.416 308.967C845.385 307.508 846.733 306.34 848.316 305.59C849.706 305.314 851.141 305.356 852.512 305.714C853.883 306.072 855.156 306.736 856.233 307.657C858.528 308.939 860.514 310.708 862.054 312.838C862.994 314.434 863.663 316.175 864.034 317.99C866.944 330.331 860.599 340.751 853.119 350.007C845.611 359.111 836.711 366.97 826.748 373.293C820.927 377.135 813.126 380.54 806.373 384.149C799.62 387.759 727.261 448.388 717.132 441.519C705.023 432.099 694.174 421.162 684.853 408.977" fill="#FFA8A7"/>
</svg>
