<svg width="711" height="1000" viewBox="0 0 711 1000" fill="none" xmlns="http://www.w3.org/2000/svg">
<path d="M13.8793 913.826L5.03935 908.618C3.57557 907.651 2.35768 906.357 1.48277 904.837C0.607866 903.316 0.100133 901.613 0 899.862V244.663C0.104418 242.917 0.614196 241.219 1.48891 239.704C2.36363 238.189 3.57924 236.899 5.03935 235.935L411.565 1.19753C413.133 0.410079 414.864 0 416.619 0C418.373 0 420.104 0.410079 421.672 1.19753L430.512 6.32134C431.977 7.2816 433.199 8.57051 434.078 10.0856C434.958 11.6006 435.472 13.3001 435.58 15.0487V670.361C435.476 672.114 434.964 673.819 434.084 675.339C433.204 676.86 431.981 678.153 430.512 679.116L23.9861 913.826C22.418 914.613 20.6875 915.023 18.9327 915.023C17.178 915.023 15.4475 914.613 13.8793 913.826Z" fill="#37474F"/>
<path d="M435.523 14.2323C435.157 11.6422 433.046 10.685 430.512 12.149L23.9861 246.859C22.4918 247.778 21.2603 249.068 20.4107 250.603L1.46387 239.68C2.32157 238.151 3.55136 236.863 5.03928 235.935L411.565 1.19753C413.133 0.410079 414.864 0 416.619 0C418.373 0 420.104 0.410079 421.672 1.19753L430.512 6.32133C431.866 7.20324 433.014 8.36618 433.879 9.73119C434.744 11.0962 435.304 12.6313 435.523 14.2323Z" fill="#455A64"/>
<path d="M23.0853 914.248C22.9928 914.271 22.8962 914.271 22.8037 914.248L22.2688 914.445H22.0718C21.7621 914.445 21.4524 914.614 21.1427 914.699C19.1395 915.086 17.069 914.931 15.1462 914.248C14.7584 914.108 14.382 913.939 14.0201 913.741L5.03935 908.618C3.57557 907.651 2.35768 906.357 1.48277 904.837C0.607866 903.317 0.100133 901.613 0 899.862V244.663C0.0618472 242.905 0.5653 241.191 1.46393 239.68L20.4108 250.603C19.4943 252.109 18.9804 253.824 18.9186 255.586V910.926C18.8736 911.868 19.1408 912.798 19.6788 913.573C20.0216 913.964 20.4661 914.253 20.9631 914.407C21.46 914.561 21.99 914.574 22.4941 914.445L23.0853 914.248Z" fill="#263238"/>
<path d="M165.623 218.368C165.492 217.68 165.181 217.039 164.722 216.51L164.384 216.228C164.118 216.028 163.806 215.897 163.477 215.848C163.147 215.799 162.811 215.833 162.498 215.947C162.247 216.007 162.008 216.112 161.794 216.256C160.544 217.118 159.567 218.32 158.979 219.719C158.226 221.304 157.823 223.032 157.796 224.787C157.683 226.098 158.087 227.401 158.922 228.418C159.293 228.776 159.776 228.994 160.29 229.035C160.803 229.076 161.315 228.938 161.738 228.644C162.34 228.28 162.874 227.813 163.314 227.264C163.716 226.741 164.074 226.185 164.384 225.603C165.249 223.91 165.72 222.043 165.763 220.142C165.779 219.547 165.732 218.953 165.623 218.368ZM231.725 70.6503C230.258 69.7885 228.585 69.3409 226.883 69.3553C223.653 69.506 220.515 70.4747 217.762 72.1706C210.078 76.8737 204.145 83.9633 200.87 92.3561C200.335 93.5385 199.828 94.7773 199.378 95.9878C198.927 97.1984 198.449 98.4371 198.055 99.704C197.661 100.971 197.21 102.238 196.844 103.505C196.703 103.927 196.591 104.377 196.45 104.772L195.718 107.333C195.73 107.455 195.73 107.578 195.718 107.699C195.296 109.248 194.902 110.853 194.451 112.429C194.226 113.302 194.029 114.118 193.804 114.963L193.156 117.468C192.255 120.819 191.354 124.028 190.341 127.097L189.693 128.955C189.384 129.827 189.074 130.7 188.736 131.545C188.398 132.389 188.201 132.84 187.948 133.431C187.526 134.473 187.075 135.458 186.596 136.415C186.118 137.372 186.005 137.626 185.696 138.217C178.573 151.899 169.874 157.248 164.834 164.286C160.414 170.424 159.204 175.322 153.235 185.035C151.349 188.132 148.984 191.707 145.888 195.986C137.301 207.811 134.232 213.666 133.191 217.214C133.179 217.307 133.179 217.402 133.191 217.495C133.191 217.777 133.191 218.03 132.994 218.283C132.983 218.368 132.983 218.453 132.994 218.537C132.982 218.762 132.982 218.987 132.994 219.212C132.895 219.902 132.848 220.599 132.853 221.296V247.59L142.312 253.052V226.729C142.289 225.355 142.488 223.986 142.903 222.675C143.945 219.128 146.986 213.3 155.6 201.476C158.697 197.169 161.062 193.593 162.948 190.497C168.86 180.812 170.127 175.885 174.547 169.804C179.586 162.738 188.286 157.417 195.408 143.707C196.436 141.6 197.347 139.438 198.139 137.232C202.7 125.971 204.755 110.796 210.357 98.043C213.626 89.6614 219.562 82.588 227.249 77.9138C233.02 74.5917 237.243 74.3102 240.481 75.8305L231.725 70.6503ZM273.194 104.265C272.408 103.817 271.566 103.476 270.689 103.251C267.113 102.407 261.793 104.49 256.444 103.871C263.96 113.583 274.405 107.333 280.148 108.713C281.042 108.927 281.896 109.278 282.682 109.755L273.194 104.265ZM293.239 140.385C292.958 140.557 292.695 140.755 292.451 140.976L292.057 141.37L291.691 141.792C290.112 143.834 289.242 146.334 289.213 148.915C289.12 150.211 289.511 151.495 290.311 152.519C290.418 152.619 290.531 152.713 290.649 152.8C290.91 153 291.217 153.131 291.542 153.181C291.867 153.23 292.199 153.196 292.507 153.082C292.767 153.02 293.014 152.915 293.239 152.772C293.521 152.603 293.774 152.378 294.056 152.181C294.465 151.798 294.833 151.373 295.154 150.914C296.494 148.954 297.228 146.644 297.265 144.27C297.265 140.863 295.463 139.09 293.239 140.385ZM299.433 116.596C296.394 114.901 293.092 113.73 289.664 113.133C288.2 112.795 286.849 112.429 285.751 112.063C289.517 115.415 294.134 117.665 299.095 118.566C302.106 119.152 305.036 120.097 307.822 121.382L299.433 116.596Z" fill="#5F2EE9"/>
<path d="M308.583 121.86L307.823 121.41C305.037 120.126 302.107 119.18 299.096 118.595C294.133 117.699 289.514 115.448 285.751 112.091C284.809 111.22 283.781 110.447 282.682 109.783C281.894 109.318 281.04 108.976 280.149 108.769C274.518 107.39 263.961 113.64 256.472 103.927L256.219 103.617C250.982 96.5509 249.068 80.7853 241.213 76.1683L240.425 75.7179C237.188 74.1976 232.965 74.4791 227.193 77.8012C206.388 89.8224 205.685 118.369 198.196 137.147C190.707 155.925 180.066 161.809 174.294 169.889C168.523 177.969 168.129 183.965 155.319 201.589C142.51 219.213 142.031 223.548 142.031 226.926V253.221L312.412 154.686V128.392C312.514 127.043 312.203 125.694 311.519 124.527C310.835 123.36 309.81 122.43 308.583 121.86ZM161.794 228.644C159.57 229.939 157.797 228.221 157.797 224.787C157.775 223.167 158.123 221.564 158.816 220.1C159.509 218.636 160.528 217.35 161.794 216.341C164.019 215.046 165.792 216.791 165.792 220.226C165.814 221.841 165.465 223.44 164.772 224.9C164.079 226.359 163.06 227.64 161.794 228.644ZM227.193 149.422C226.126 150.234 224.881 150.78 223.561 151.016C222.24 151.251 220.883 151.169 219.601 150.775C218.319 150.382 217.149 149.689 216.188 148.753C215.227 147.818 214.502 146.667 214.074 145.396C212.603 142.067 211.901 138.449 212.019 134.811C212.019 121.888 218.804 107.502 227.193 102.66C228.326 101.984 229.563 101.499 230.853 101.224C237.497 99.9011 242.368 106.264 242.368 117.271C242.368 130.193 235.583 144.58 227.193 149.422ZM293.24 152.744C291.016 154.039 289.214 152.322 289.214 148.915C289.197 147.294 289.551 145.69 290.249 144.226C290.947 142.762 291.97 141.477 293.24 140.469C295.464 139.202 297.266 140.92 297.266 144.354C297.282 145.968 296.928 147.563 296.23 149.018C295.532 150.473 294.509 151.747 293.24 152.744Z" fill="#5F2EE9"/>
<path opacity="0.1" d="M308.583 121.86L307.823 121.41C305.037 120.126 302.107 119.18 299.096 118.595C294.133 117.699 289.514 115.448 285.751 112.091C284.809 111.22 283.781 110.447 282.682 109.783C281.894 109.318 281.04 108.976 280.149 108.769C274.518 107.39 263.961 113.64 256.472 103.927L256.219 103.617C250.982 96.5509 249.068 80.7853 241.213 76.1683L240.425 75.7179C237.188 74.1976 232.965 74.4791 227.193 77.8012C206.388 89.8224 205.685 118.369 198.196 137.147C190.707 155.925 180.066 161.809 174.294 169.889C168.523 177.969 168.129 183.965 155.319 201.589C142.51 219.213 142.031 223.548 142.031 226.926V253.221L312.412 154.686V128.392C312.514 127.043 312.203 125.694 311.519 124.527C310.835 123.36 309.81 122.43 308.583 121.86ZM161.794 228.644C159.57 229.939 157.797 228.221 157.797 224.787C157.775 223.167 158.123 221.564 158.816 220.1C159.509 218.636 160.528 217.35 161.794 216.341C164.019 215.046 165.792 216.791 165.792 220.226C165.814 221.841 165.465 223.44 164.772 224.9C164.079 226.359 163.06 227.64 161.794 228.644ZM227.193 149.422C226.126 150.234 224.881 150.78 223.561 151.016C222.24 151.251 220.883 151.169 219.601 150.775C218.319 150.382 217.149 149.689 216.188 148.753C215.227 147.818 214.502 146.667 214.074 145.396C212.603 142.067 211.901 138.449 212.019 134.811C212.019 121.888 218.804 107.502 227.193 102.66C228.326 101.984 229.563 101.499 230.853 101.224C237.497 99.9011 242.368 106.264 242.368 117.271C242.368 130.193 235.583 144.58 227.193 149.422ZM293.24 152.744C291.016 154.039 289.214 152.322 289.214 148.915C289.197 147.294 289.551 145.69 290.249 144.226C290.947 142.762 291.97 141.477 293.24 140.469C295.464 139.202 297.266 140.92 297.266 144.354C297.282 145.968 296.928 147.563 296.23 149.018C295.532 150.473 294.509 151.747 293.24 152.744Z" fill="black"/>
<path opacity="0.25" d="M142.622 222.788C142.207 224.098 142.007 225.467 142.031 226.842V253.165L132.572 247.703V221.408C132.567 220.711 132.614 220.015 132.712 219.325C132.701 219.1 132.701 218.874 132.712 218.649C132.702 218.565 132.702 218.48 132.712 218.396C132.712 218.143 132.712 217.889 132.909 217.608V217.326L142.622 222.788Z" fill="black"/>
<path opacity="0.25" d="M174.265 169.917C169.845 175.998 168.635 180.925 162.667 190.609L153.235 185.091C159.147 175.379 160.414 170.48 164.834 164.343L174.265 169.917Z" fill="black"/>
<path opacity="0.25" d="M210.414 97.8178C204.784 110.571 202.757 125.605 198.196 137.006C197.31 139.286 196.295 141.514 195.156 143.679L185.696 138.245C186.006 137.654 186.316 137.035 186.597 136.443C186.879 135.852 187.526 134.501 187.949 133.459C188.202 132.868 188.483 132.22 188.737 131.573C188.99 130.925 189.384 129.856 189.694 128.983L190.341 127.125C191.355 124.056 192.256 120.847 193.157 117.497L193.804 114.991C194.03 114.146 194.227 113.33 194.452 112.457C194.902 110.881 195.296 109.276 195.719 107.728C195.731 107.606 195.731 107.483 195.719 107.362L196.451 104.8C196.591 104.406 196.704 103.955 196.845 103.533C197.211 102.266 197.633 100.999 198.055 99.7322C198.478 98.4653 198.9 97.2547 199.379 96.016C199.857 94.7773 200.336 93.5667 200.871 92.3843L210.414 97.8178Z" fill="black"/>
<path d="M158.95 219.719C158.198 221.304 157.794 223.033 157.768 224.787C157.654 226.098 158.059 227.402 158.894 228.419C158.084 227.389 157.692 226.092 157.796 224.787C157.827 223.036 158.22 221.311 158.95 219.719ZM165.819 220.142C165.817 219.545 165.75 218.951 165.622 218.368C165.741 218.952 165.798 219.546 165.791 220.142C165.758 222.041 165.296 223.908 164.44 225.603C165.305 223.91 165.776 222.043 165.819 220.142ZM290.649 152.8C290.909 153.001 291.217 153.131 291.542 153.181C291.867 153.23 292.199 153.196 292.507 153.082C292.196 153.179 291.867 153.205 291.545 153.156C291.223 153.107 290.917 152.986 290.649 152.8Z" fill="#5F2EE9"/>
<path d="M242.395 117.271C242.395 130.193 235.582 144.579 227.192 149.422C226.117 150.204 224.875 150.726 223.564 150.947C222.253 151.168 220.908 151.081 219.636 150.693C218.364 150.306 217.2 149.628 216.234 148.713C215.269 147.799 214.529 146.673 214.073 145.424C215.375 145.144 216.622 144.649 217.761 143.96C226.207 139.09 232.936 124.732 232.936 111.81C233.059 108.168 232.346 104.547 230.852 101.224C237.553 99.9009 242.395 106.263 242.395 117.271Z" fill="#5F2EE9"/>
<path opacity="0.3" d="M242.395 117.271C242.395 130.193 235.582 144.579 227.192 149.422C226.117 150.204 224.875 150.726 223.564 150.947C222.253 151.168 220.908 151.081 219.636 150.693C218.364 150.306 217.2 149.628 216.234 148.713C215.269 147.799 214.529 146.673 214.073 145.424C215.375 145.144 216.622 144.649 217.761 143.96C226.207 139.09 232.936 124.732 232.936 111.81C233.059 108.168 232.346 104.547 230.852 101.224C237.553 99.9009 242.395 106.263 242.395 117.271Z" fill="black"/>
<path d="M164.356 225.603C164.072 226.194 163.722 226.751 163.314 227.264C162.874 227.814 162.34 228.281 161.737 228.644C161.315 228.938 160.803 229.077 160.289 229.035C159.776 228.994 159.293 228.776 158.922 228.419C158.087 227.402 157.683 226.098 157.796 224.787C157.823 223.033 158.226 221.304 158.978 219.719C159.566 218.32 160.544 217.118 161.794 216.257C162.008 216.112 162.246 216.007 162.498 215.947C162.883 215.813 163.299 215.795 163.694 215.895C164.089 215.995 164.447 216.209 164.722 216.51C165.181 217.039 165.491 217.68 165.623 218.368C165.751 218.951 165.817 219.545 165.82 220.142C165.776 222.053 165.274 223.926 164.356 225.603Z" fill="#37474F"/>
<path d="M297.266 144.27C297.228 146.644 296.494 148.954 295.154 150.914C294.833 151.373 294.465 151.798 294.056 152.181C293.775 152.378 293.521 152.603 293.24 152.772C293.015 152.915 292.767 153.02 292.508 153.082C292.126 153.21 291.716 153.225 291.326 153.125C290.937 153.025 290.584 152.815 290.312 152.519C289.511 151.495 289.12 150.211 289.214 148.915C289.242 146.335 290.112 143.834 291.691 141.793L292.057 141.37L292.451 140.976C292.695 140.755 292.959 140.557 293.24 140.385C295.464 139.09 297.266 140.864 297.266 144.27Z" fill="#37474F"/>
<path d="M50.3657 308.147L404.133 103.899C405.072 103.426 406.109 103.18 407.16 103.18C408.211 103.18 409.248 103.426 410.186 103.899L413.593 105.869C414.474 106.45 415.208 107.228 415.736 108.142C416.263 109.056 416.571 110.08 416.633 111.134V650.823C416.573 651.873 416.266 652.894 415.738 653.804C415.21 654.714 414.475 655.486 413.593 656.059L59.825 860.307C58.8903 860.794 57.8522 861.047 56.7986 861.047C55.745 861.047 54.7069 860.794 53.7722 860.307L50.3657 858.337C49.4819 857.765 48.7457 856.993 48.2172 856.083C47.6888 855.173 47.3831 854.151 47.3252 853.1V313.412C47.381 312.357 47.6856 311.33 48.214 310.415C48.7424 309.5 49.4797 308.723 50.3657 308.147Z" fill="#F5F5F5"/>
<path d="M416.52 110.205C416.126 108.967 414.972 108.572 413.705 109.361L59.8245 313.609C58.928 314.174 58.1913 314.959 57.6849 315.889L48.2256 310.428C48.7135 309.491 49.4549 308.711 50.3652 308.176L404.133 103.927C405.063 103.441 406.096 103.188 407.145 103.188C408.194 103.188 409.228 103.441 410.158 103.927L413.592 105.87C414.344 106.362 414.99 106.998 415.493 107.743C415.996 108.487 416.345 109.324 416.52 110.205Z" fill="#FAFAFA"/>
<path d="M59.1212 860.758C58.7579 860.894 58.38 860.989 57.9951 861.039H57.4039C56.7959 861.109 56.1819 861.109 55.574 861.039C55.1884 860.992 54.8101 860.898 54.4478 860.758L53.7722 860.42L50.3657 858.449C49.4787 857.881 48.7401 857.11 48.2112 856.199C47.6824 855.288 47.3786 854.264 47.3252 853.213V313.411C47.3545 312.354 47.6655 311.324 48.2261 310.427L57.6854 315.889C57.1522 316.796 56.8523 317.821 56.8127 318.873V858.562C56.8127 860.223 57.7699 861.039 59.1212 860.758Z" fill="#E0E0E0"/>
<path d="M198.871 184.19L198.393 184.979C197.264 186.822 196.446 188.838 195.971 190.947C195.971 191.116 195.971 191.2 195.971 191.285C195.965 191.332 195.965 191.379 195.971 191.426L190.2 223.914L188.398 234.302C188.398 234.725 188.201 235.147 188.089 235.597C187.979 236.017 187.847 236.43 187.694 236.836C187.694 237.118 187.497 237.399 187.385 237.681L196.844 243.142C197.296 242.056 197.626 240.923 197.829 239.764L199.688 229.376L205.318 196.887C205.746 194.284 206.756 191.81 208.274 189.652L198.871 184.19Z" fill="#5F2EE9"/>
<path d="M133.725 289.003C132.768 290.523 131.867 292.044 130.91 293.564C130.516 294.296 130.121 295.028 129.755 295.76C129.39 296.492 128.855 297.646 128.46 298.575C128.066 299.504 127.56 300.658 127.165 301.728C126.771 302.798 126.377 303.868 126.011 304.938C125.645 306.007 125.195 307.443 124.857 308.71C124.632 309.526 124.406 310.343 124.181 311.216C123.656 313.205 123.177 315.232 122.745 317.297C122.745 318 122.436 318.732 122.323 319.436C122.211 320.14 121.957 321.182 121.816 322.026C121.816 322.026 121.816 322.026 121.816 322.167C121.816 322.843 121.816 323.293 122.154 323.49C122.198 323.51 122.246 323.521 122.295 323.521C122.344 323.521 122.392 323.51 122.436 323.49L130.572 317.128L131.895 316.086L132.543 315.607L133.246 315.044L133.809 314.622L134.288 314.228C136.664 305.621 140.626 297.534 145.971 290.382L136.512 284.921C135.583 286.272 134.626 287.652 133.725 289.003Z" fill="#5F2EE9"/>
<path d="M236.089 112.71C235.638 113.442 235.244 114.174 234.85 114.906C234.592 115.31 234.366 115.734 234.174 116.173C233.837 116.764 233.555 117.384 233.245 118.003C232.936 118.623 232.739 118.989 232.513 119.495C232.035 120.452 231.613 121.41 231.218 122.311C230.824 123.211 230.318 124.394 229.923 125.435C229.529 126.365 229.22 127.294 228.91 128.251C228.403 129.658 227.981 131.066 227.587 132.502C227.362 133.262 227.193 133.994 226.996 134.726C227 134.782 227 134.839 226.996 134.895C226.996 135.289 226.798 135.655 226.742 136.049C226.517 136.922 226.348 137.823 226.207 138.695C226.066 139.568 225.926 140.075 225.729 140.779C225.532 141.483 225.363 142.243 225.137 142.975C224.912 143.707 224.687 144.354 224.462 145.058C224.462 145.058 224.462 145.058 224.462 145.255C224.18 146.015 223.871 146.803 223.533 147.592C223.195 148.38 222.913 149.14 222.519 149.957C222.423 150.167 222.338 150.384 222.266 150.604C221.984 151.195 221.675 151.786 221.393 152.406L219.901 155.221C219.563 155.897 219.225 156.516 218.859 157.164L228.347 162.625C231.756 156.873 234.245 150.622 235.723 144.101C237.513 134.882 240.885 126.043 245.689 117.975L236.089 112.71Z" fill="#5F2EE9"/>
<path d="M292.367 133.769C291.896 133.484 291.366 133.311 290.818 133.262C291.737 134.729 292.972 135.97 294.434 136.896C295.895 137.822 297.546 138.408 299.264 138.611C300.078 138.622 300.882 138.794 301.629 139.118L292.367 133.769Z" fill="#5F2EE9"/>
<path opacity="0.4" d="M292.367 133.769C291.896 133.484 291.366 133.311 290.818 133.262C291.737 134.729 292.972 135.97 294.434 136.896C295.895 137.822 297.546 138.408 299.264 138.611C300.078 138.622 300.882 138.794 301.629 139.118L292.367 133.769Z" fill="white"/>
<path d="M327.641 174.9C326.156 174.174 324.516 173.82 322.863 173.869C321.21 173.918 319.594 174.368 318.154 175.181C307.146 180.024 302.388 182.22 296.702 184.585C295.604 191.904 299.911 192.58 302.051 191.707C310.046 188.554 314.128 186.611 327.641 180.671C329.069 179.87 330.669 179.424 332.305 179.37C333.942 179.316 335.567 179.656 337.045 180.362L327.641 174.9Z" fill="#5F2EE9"/>
<path opacity="0.4" d="M327.641 174.9C326.156 174.174 324.516 173.82 322.863 173.869C321.21 173.918 319.594 174.368 318.154 175.181C307.146 180.024 302.388 182.22 296.702 184.585C295.604 191.904 299.911 192.58 302.051 191.707C310.046 188.554 314.128 186.611 327.641 180.671C329.069 179.87 330.669 179.424 332.305 179.37C333.942 179.316 335.567 179.656 337.045 180.362L327.641 174.9Z" fill="white"/>
<path d="M196.788 243.142C194.75 247.602 191.884 251.633 188.342 255.023L158.725 277.292C153.991 281.148 149.721 285.541 146 290.383L136.541 284.921C140.253 280.063 144.524 275.66 149.266 271.802L178.939 249.561C182.418 246.148 185.234 242.12 187.244 237.681L196.788 243.142Z" fill="#5F2EE9"/>
<path opacity="0.4" d="M196.788 243.142C194.75 247.602 191.884 251.633 188.342 255.023L158.725 277.292C153.991 281.148 149.721 285.541 146 290.383L136.541 284.921C140.253 280.063 144.524 275.66 149.266 271.802L178.939 249.561C182.418 246.148 185.234 242.12 187.244 237.681L196.788 243.142Z" fill="white"/>
<path d="M228.206 162.851C224.121 170.405 219.088 177.406 213.229 183.684C211.385 185.49 209.742 187.491 208.33 189.652L198.871 184.191C200.259 182.012 201.904 180.009 203.77 178.222C209.619 171.942 214.642 164.941 218.719 157.389L228.206 162.851Z" fill="#5F2EE9"/>
<path opacity="0.4" d="M228.206 162.851C224.121 170.405 219.088 177.406 213.229 183.684C211.385 185.49 209.742 187.491 208.33 189.652L198.871 184.191C200.259 182.012 201.904 180.009 203.77 178.222C209.619 171.942 214.642 164.941 218.719 157.389L228.206 162.851Z" fill="white"/>
<path d="M281.641 92.9471C278.15 91.1172 273.505 91.4269 268.043 94.2985C259.935 98.5495 251.771 107.558 245.521 118.2L236.062 112.57C242.255 101.928 250.419 92.8627 258.584 88.6679C261.237 87.1702 264.21 86.3303 267.255 86.2186C269.077 86.1953 270.873 86.6516 272.463 87.5418L281.641 92.9471Z" fill="#5F2EE9"/>
<path opacity="0.4" d="M281.641 92.9471C278.15 91.1172 273.505 91.4269 268.043 94.2985C259.935 98.5495 251.771 107.558 245.521 118.2L236.062 112.57C242.255 101.928 250.419 92.8627 258.584 88.6679C261.237 87.1702 264.21 86.3303 267.255 86.2186C269.077 86.1953 270.873 86.6516 272.463 87.5418L281.641 92.9471Z" fill="white"/>
<path opacity="0.15" d="M146.085 290.383C140.74 297.535 136.777 305.622 134.401 314.228L133.923 314.622L133.36 315.045L132.656 315.608L132.009 316.086L130.685 317.128L122.662 323.547C122.618 323.567 122.57 323.578 122.521 323.578C122.472 323.578 122.424 323.567 122.38 323.547C122.071 323.35 121.93 322.899 122.042 322.224C122.042 322.224 122.042 322.224 122.042 322.083C122.042 321.238 122.352 320.366 122.549 319.493C122.746 318.62 122.831 318.057 122.971 317.353C123.403 315.307 123.882 313.28 124.407 311.272C124.632 310.4 124.858 309.583 125.083 308.767C125.421 307.5 125.815 306.261 126.237 304.994C126.659 303.727 126.969 302.855 127.391 301.785C127.814 300.715 128.208 299.673 128.686 298.632C129.165 297.59 129.531 296.689 129.982 295.816C130.432 294.944 130.742 294.352 131.136 293.62C131.952 292.1 132.853 290.58 133.951 289.06C135.049 287.539 135.809 286.244 136.766 284.978L146.085 290.383Z" fill="black"/>
<path opacity="0.15" d="M208.331 189.652C206.813 191.81 205.802 194.284 205.375 196.887L199.744 229.376L197.886 239.764C197.683 240.923 197.352 242.056 196.901 243.142L187.441 237.681C187.441 237.399 187.667 237.118 187.751 236.836C187.904 236.43 188.035 236.017 188.145 235.597C188.145 235.147 188.37 234.725 188.455 234.302L190.257 223.914L196.028 191.426C196.021 191.379 196.021 191.332 196.028 191.285C196.028 191.285 196.028 191.116 196.028 190.947C196.502 188.838 197.32 186.822 198.449 184.979L198.928 184.19L208.331 189.652Z" fill="black"/>
<path opacity="0.15" d="M245.548 118.201C240.744 126.269 237.372 135.108 235.582 144.326C234.104 150.848 231.615 157.098 228.206 162.851L218.719 157.389C219.085 156.742 219.423 156.122 219.76 155.447L221.253 152.631C221.534 152.012 221.844 151.421 222.125 150.83C222.197 150.609 222.282 150.393 222.379 150.182C222.745 149.394 223.082 148.577 223.392 147.817C223.702 147.057 224.04 146.241 224.321 145.481C224.321 145.481 224.321 145.34 224.321 145.284C224.546 144.58 224.8 143.904 224.997 143.2C225.194 142.496 225.419 141.736 225.588 141.004C225.757 140.272 225.926 139.597 226.067 138.921C226.207 138.245 226.376 137.147 226.602 136.275C226.602 135.881 226.77 135.515 226.855 135.12C226.86 135.064 226.86 135.008 226.855 134.951C227.052 134.22 227.221 133.488 227.446 132.727C227.84 131.292 228.263 129.912 228.769 128.476C229.079 127.519 229.389 126.59 229.783 125.661C230.177 124.619 230.627 123.578 231.078 122.536C231.528 121.494 231.894 120.622 232.373 119.721C232.598 119.214 232.851 118.735 233.105 118.229C233.358 117.722 233.696 116.99 234.034 116.399C234.225 115.959 234.451 115.536 234.71 115.132C235.104 114.4 235.498 113.668 235.948 112.936L245.548 118.201Z" fill="black"/>
<path d="M122.577 323.547L130.573 317.128C127.391 319.69 123.056 323.04 122.577 323.547Z" fill="#5F2EE9"/>
<path d="M337.073 180.418C335.591 179.713 333.963 179.37 332.323 179.419C330.683 179.468 329.078 179.907 327.641 180.7C314.156 186.668 310.074 188.611 302.079 191.792C299.939 192.636 295.632 191.961 296.73 184.641C296.719 184.482 296.719 184.322 296.73 184.162L298.56 173.774L303.683 145.452C303.683 145.452 304.838 140.976 301.882 139.315H301.656C300.931 138.958 300.128 138.784 299.32 138.808C297.597 138.597 295.944 138.001 294.483 137.065C293.021 136.13 291.788 134.878 290.874 133.403C289.293 131.052 288.197 128.41 287.651 125.63C287.105 122.85 287.119 119.989 287.693 117.215C289.86 105.053 287.496 96.551 282.062 93.3979L281.64 93.1163C278.149 91.2864 273.504 91.5961 268.042 94.4677C253.656 102.013 239.129 124.394 235.582 144.495C233.358 157.164 220.605 176.674 213.229 183.909C205.853 191.144 205.374 197.113 205.374 197.113L199.743 229.601L197.885 239.989C196.534 247.76 188.567 255.276 188.567 255.276L158.725 277.292C146.885 286.71 138.338 299.643 134.316 314.228C134.316 314.228 123.055 322.843 122.492 323.547L126.293 321.379L331.02 203.672C331.02 203.672 333.385 202.405 333.835 202.068C334.285 201.73 342.591 193.96 342.591 193.96C342.45 187.259 340.507 182.473 337.073 180.418ZM277.952 120.706C275.756 133.065 266.86 146.832 258.02 151.477C251.91 154.658 247.434 152.688 245.942 147.057C245.287 143.9 245.287 140.642 245.942 137.485C248.11 125.126 257.062 111.359 265.902 106.742C266.72 106.297 267.578 105.93 268.464 105.644C275.7 103.448 279.782 109.614 277.895 120.706H277.952Z" fill="#5F2EE9"/>
<path d="M122.605 323.575L331.161 203.7L333.976 202.096C334.483 201.786 342.732 193.959 342.732 193.959L134.401 314.228C134.401 314.228 121.789 324.025 122.605 323.575Z" fill="#5F2EE9"/>
<path opacity="0.3" d="M122.605 323.575L331.161 203.7L333.976 202.096C334.483 201.786 342.732 193.959 342.732 193.959L134.401 314.228C134.401 314.228 121.789 324.025 122.605 323.575Z" fill="black"/>
<path d="M268.521 105.644C267.635 105.929 266.777 106.297 265.959 106.742C257.119 111.359 248.167 125.126 245.999 137.485C245.344 140.642 245.344 143.9 245.999 147.057C247.491 152.688 251.967 154.658 258.076 151.477C266.916 146.832 275.813 133.065 278.009 120.706C279.782 109.614 275.7 103.448 268.521 105.644ZM246.562 146.832C245.939 143.785 245.939 140.644 246.562 137.598C248.73 125.379 257.542 111.782 266.269 107.249C266.994 106.866 267.747 106.536 268.521 106.264C269.098 109.239 269.098 112.297 268.521 115.272C266.353 127.632 257.429 141.398 248.561 146.043C247.917 146.383 247.249 146.675 246.562 146.916V146.832Z" fill="#5F2EE9"/>
<path opacity="0.4" d="M268.521 105.644C267.635 105.929 266.777 106.297 265.959 106.742C257.119 111.359 248.167 125.126 245.999 137.485C245.344 140.642 245.344 143.9 245.999 147.057C247.491 152.688 251.967 154.658 258.076 151.477C266.916 146.832 275.813 133.065 278.009 120.706C279.782 109.614 275.7 103.448 268.521 105.644ZM246.562 146.832C245.939 143.785 245.939 140.644 246.562 137.598C248.73 125.379 257.542 111.782 266.269 107.249C266.994 106.866 267.747 106.536 268.521 106.264C269.098 109.239 269.098 112.297 268.521 115.272C266.353 127.632 257.429 141.398 248.561 146.043C247.917 146.383 247.249 146.675 246.562 146.916V146.832Z" fill="black"/>
<path d="M104.306 482.638C103.861 482.64 103.424 482.523 103.039 482.3C102.576 482.001 102.204 481.58 101.966 481.083C101.727 480.586 101.631 480.033 101.688 479.485V467.463C101.73 466.383 102.034 465.33 102.573 464.393C103.112 463.456 103.871 462.665 104.785 462.086L115.286 456.033C115.721 455.745 116.228 455.584 116.75 455.568C117.271 455.551 117.787 455.68 118.24 455.94C118.693 456.2 119.064 456.581 119.313 457.04C119.562 457.499 119.678 458.018 119.649 458.539V470.673C119.612 471.754 119.31 472.81 118.77 473.747C118.23 474.684 117.469 475.475 116.552 476.05L106.051 482.131C105.524 482.45 104.922 482.625 104.306 482.638ZM117.031 458.032C116.864 458.079 116.704 458.145 116.552 458.229L106.051 464.282C105.524 464.638 105.085 465.109 104.767 465.66C104.45 466.212 104.263 466.829 104.221 467.463V479.597C104.175 479.763 104.175 479.938 104.221 480.104C104.39 480.076 104.552 480.019 104.7 479.935L115.201 473.854C115.729 473.499 116.168 473.027 116.485 472.476C116.802 471.924 116.989 471.308 117.031 470.673V458.539C117.045 458.417 117.045 458.295 117.031 458.173V458.032Z" fill="#455A64"/>
<path d="M128.574 454.288L169.959 430.387C171.338 429.598 172.436 430.218 172.436 431.794V435.032C172.387 435.885 172.137 436.715 171.706 437.454C171.276 438.193 170.677 438.819 169.959 439.283L128.574 463.185C127.223 463.973 126.097 463.353 126.097 461.777V458.539C126.146 457.686 126.396 456.856 126.827 456.117C127.257 455.379 127.856 454.752 128.574 454.288Z" fill="#E0E0E0"/>
<path d="M206.867 423.433C206.421 423.438 205.983 423.321 205.6 423.095C205.131 422.8 204.754 422.38 204.51 421.883C204.267 421.386 204.166 420.831 204.22 420.28V408.146C204.268 407.064 204.577 406.009 205.121 405.073C205.665 404.136 206.428 403.346 207.345 402.769L217.846 396.716C218.28 396.405 218.794 396.224 219.328 396.194C219.861 396.164 220.392 396.286 220.859 396.547C221.313 396.82 221.68 397.216 221.92 397.69C222.159 398.163 222.259 398.694 222.21 399.222V411.355C222.173 412.437 221.871 413.492 221.331 414.43C220.791 415.367 220.029 416.158 219.113 416.733L208.612 422.814C208.096 423.172 207.493 423.386 206.867 423.433ZM219.563 398.827C219.409 398.883 219.259 398.949 219.113 399.024L208.612 405.077C208.081 405.431 207.637 405.902 207.315 406.453C206.993 407.004 206.801 407.622 206.754 408.259V420.392C206.698 420.557 206.698 420.735 206.754 420.899C206.921 420.866 207.082 420.81 207.233 420.73L217.734 414.649C218.264 414.297 218.706 413.826 219.023 413.274C219.341 412.722 219.526 412.104 219.563 411.468V399.334C219.614 399.169 219.614 398.993 219.563 398.827Z" fill="#455A64"/>
<path d="M231.134 395.083L272.518 371.181C273.898 370.393 274.996 371.012 274.996 372.589V375.826C274.946 376.68 274.696 377.51 274.266 378.248C273.835 378.987 273.237 379.614 272.518 380.077L231.134 403.979C229.754 404.767 228.656 404.148 228.656 402.571V399.334C228.721 398.484 228.977 397.66 229.406 396.923C229.835 396.187 230.426 395.558 231.134 395.083Z" fill="#E0E0E0"/>
<path d="M309.399 364.227C308.954 364.229 308.517 364.113 308.132 363.89C307.673 363.586 307.305 363.164 307.067 362.669C306.829 362.173 306.73 361.622 306.78 361.074V348.94C306.825 347.861 307.13 346.808 307.669 345.872C308.208 344.935 308.966 344.143 309.877 343.563L320.378 337.51C320.816 337.213 321.329 337.044 321.858 337.024C322.387 337.005 322.911 337.135 323.369 337.399C323.828 337.664 324.202 338.052 324.45 338.52C324.698 338.988 324.809 339.516 324.77 340.044V352.15C324.727 353.233 324.42 354.289 323.876 355.227C323.331 356.164 322.565 356.954 321.645 357.527L311.144 363.608C310.629 363.969 310.026 364.183 309.399 364.227ZM311.144 345.872C310.621 346.232 310.185 346.704 309.868 347.255C309.551 347.805 309.362 348.42 309.314 349.053V361.187C309.258 361.351 309.258 361.529 309.314 361.694C309.476 361.675 309.631 361.617 309.765 361.525L320.266 355.444C320.797 355.09 321.241 354.619 321.563 354.068C321.885 353.517 322.076 352.899 322.124 352.262V340.157C322.176 339.982 322.176 339.796 322.124 339.622C322.124 339.622 321.955 339.622 321.645 339.819L311.144 345.872Z" fill="#455A64"/>
<path d="M333.695 335.878L375.08 311.976C376.431 311.188 377.557 311.807 377.557 313.384V316.621C377.493 317.471 377.237 318.295 376.807 319.032C376.378 319.768 375.788 320.397 375.08 320.872L333.695 344.774C332.316 345.562 331.218 344.943 331.218 343.366V340.129C331.267 339.275 331.517 338.445 331.948 337.707C332.378 336.968 332.977 336.341 333.695 335.878Z" fill="#E0E0E0"/>
<path d="M128.687 395.055V399.784C128.687 402.374 130.488 403.416 132.712 402.121L374.826 262.455C376 261.684 376.976 260.648 377.675 259.43C378.375 258.213 378.778 256.847 378.852 255.445V250.687C378.852 248.125 377.05 247.084 374.826 248.35L132.712 388.045C131.539 388.815 130.563 389.852 129.863 391.069C129.164 392.287 128.761 393.652 128.687 395.055Z" fill="#E0E0E0"/>
<path d="M110.246 358.119V362.848C110.246 365.438 112.048 366.48 114.3 365.185L356.273 225.519C357.455 224.755 358.439 223.721 359.144 222.502C359.849 221.283 360.254 219.915 360.327 218.509V213.751C360.327 211.189 358.525 210.148 356.273 211.414L114.3 351.193C113.129 351.949 112.152 352.97 111.448 354.173C110.744 355.376 110.332 356.727 110.246 358.119Z" fill="#455A64"/>
<path d="M128.687 423.686V428.444C128.687 431.006 130.488 432.047 132.712 430.781L374.826 291.115C376 290.344 376.976 289.308 377.675 288.09C378.375 286.872 378.778 285.507 378.852 284.105V279.347C378.852 276.785 377.05 275.743 374.826 277.01L132.712 416.704C131.542 417.472 130.569 418.504 129.869 419.717C129.17 420.929 128.765 422.289 128.687 423.686Z" fill="#E0E0E0"/>
<path d="M102.166 426.135C108.501 419.857 110.077 417.183 110.077 414.874C110.077 412.566 109.148 411.327 106.305 412.96C105.075 413.675 104.018 414.65 103.205 415.817C102.393 416.984 101.846 418.315 101.603 419.716L94.6777 421.265C95.2807 417.636 96.6495 414.178 98.6932 411.12C100.737 408.062 103.408 405.474 106.53 403.529C113.456 399.531 117.481 402.515 117.481 409.159C117.095 415.627 114.279 421.711 109.599 426.192V431.681L102.166 435.961V426.135Z" fill="#455A64"/>
<path d="M102.082 444.378C102.071 443.025 102.413 441.693 103.075 440.513C103.736 439.332 104.695 438.346 105.855 437.65C108.332 436.214 109.599 437.481 109.599 440.042C109.62 441.402 109.286 442.743 108.629 443.933C107.973 445.123 107.016 446.121 105.855 446.827C103.349 448.263 102.082 446.912 102.082 444.378Z" fill="#455A64"/>
<path d="M105.938 467.463L109.035 469.8L106.22 475.149C105.978 475.475 105.847 475.87 105.847 476.275C105.847 476.681 105.978 477.076 106.22 477.401C106.755 477.796 107.515 477.401 107.965 476.557L110.781 471.236L113.878 473.573C114.328 473.91 115.004 473.573 115.398 472.841C115.606 472.56 115.718 472.219 115.718 471.869C115.718 471.52 115.606 471.179 115.398 470.898L112.301 468.561L115.116 463.212C115.358 462.887 115.489 462.492 115.489 462.086C115.489 461.681 115.358 461.286 115.116 460.96C114.581 460.566 113.821 460.96 113.371 461.805L110.555 467.154L107.459 464.817C107.008 464.479 106.333 464.817 105.938 465.521C105.73 465.802 105.618 466.143 105.618 466.492C105.618 466.842 105.73 467.182 105.938 467.463Z" fill="#5F2EE9"/>
<path d="M104.306 589.535C103.864 589.547 103.426 589.44 103.039 589.225C102.576 588.926 102.204 588.505 101.966 588.008C101.727 587.511 101.631 586.958 101.688 586.41V574.276C101.725 573.195 102.027 572.139 102.567 571.202C103.107 570.264 103.868 569.473 104.785 568.899L115.286 562.846C115.721 562.558 116.228 562.397 116.75 562.38C117.271 562.364 117.787 562.493 118.24 562.753C118.693 563.013 119.064 563.393 119.313 563.852C119.562 564.311 119.678 564.83 119.649 565.352V577.485C119.612 578.567 119.31 579.622 118.77 580.559C118.23 581.497 117.469 582.288 116.552 582.863L106.051 588.915C105.535 589.274 104.933 589.488 104.306 589.535ZM117.031 564.957C116.859 564.989 116.696 565.056 116.552 565.154L106.051 571.207C105.524 571.563 105.085 572.034 104.767 572.586C104.45 573.137 104.263 573.754 104.221 574.389V586.522C104.175 586.688 104.175 586.863 104.221 587.029C104.39 587.001 104.552 586.944 104.7 586.86L115.201 580.779C115.729 580.424 116.168 579.952 116.485 579.401C116.802 578.849 116.989 578.233 117.031 577.598V565.464C117.058 565.296 117.058 565.125 117.031 564.957Z" fill="#455A64"/>
<path d="M128.574 561.184L169.959 537.31C171.338 536.522 172.436 537.142 172.436 538.718V541.928C172.391 542.786 172.143 543.621 171.712 544.365C171.282 545.109 170.681 545.74 169.959 546.207L128.574 570.108C127.223 570.897 126.097 570.249 126.097 568.673V565.463C126.144 564.605 126.393 563.771 126.823 563.027C127.254 562.284 127.854 561.652 128.574 561.184Z" fill="#E0E0E0"/>
<path d="M206.867 530.329C206.424 530.343 205.986 530.236 205.6 530.019C205.131 529.724 204.754 529.304 204.51 528.807C204.267 528.31 204.166 527.755 204.22 527.204V515.07C204.263 513.987 204.57 512.93 205.115 511.993C205.659 511.056 206.425 510.266 207.345 509.693L217.846 503.64C218.28 503.329 218.794 503.148 219.328 503.118C219.861 503.088 220.392 503.21 220.859 503.471C221.313 503.744 221.68 504.14 221.92 504.613C222.159 505.086 222.259 505.618 222.21 506.145V518.279C222.173 519.36 221.871 520.416 221.331 521.353C220.791 522.291 220.029 523.082 219.113 523.656L208.612 529.709C208.096 530.068 207.493 530.282 206.867 530.329ZM219.563 505.751C219.403 505.791 219.251 505.858 219.113 505.948L208.612 512.001C208.081 512.355 207.637 512.826 207.315 513.377C206.993 513.928 206.801 514.546 206.754 515.182V527.316C206.698 527.481 206.698 527.659 206.754 527.823C206.921 527.79 207.082 527.733 207.233 527.654L217.734 521.573C218.261 521.218 218.7 520.746 219.018 520.195C219.335 519.643 219.522 519.027 219.563 518.392V506.258C219.614 506.093 219.614 505.916 219.563 505.751Z" fill="#455A64"/>
<path d="M231.134 501.979L272.518 478.105C273.898 477.317 274.996 477.936 274.996 479.513V482.722C274.951 483.581 274.703 484.416 274.272 485.16C273.841 485.904 273.24 486.535 272.518 487.002L231.134 510.903C229.754 511.692 228.656 510.903 228.656 509.468V506.258C228.716 505.403 228.971 504.574 229.4 503.832C229.829 503.09 230.422 502.457 231.134 501.979Z" fill="#E0E0E0"/>
<path d="M309.399 471.124C308.956 471.135 308.519 471.029 308.132 470.814C307.673 470.511 307.305 470.089 307.067 469.593C306.829 469.097 306.73 468.546 306.78 467.999V455.865C306.825 454.785 307.13 453.732 307.669 452.796C308.208 451.86 308.966 451.068 309.877 450.488L320.378 444.435C320.814 444.139 321.324 443.971 321.85 443.95C322.376 443.93 322.898 444.057 323.355 444.318C323.813 444.579 324.188 444.963 324.438 445.427C324.688 445.89 324.803 446.415 324.77 446.94V459.074C324.727 460.158 324.42 461.214 323.876 462.151C323.331 463.088 322.565 463.878 321.645 464.451L311.144 470.504C310.629 470.865 310.026 471.08 309.399 471.124ZM311.144 452.796C310.621 453.156 310.185 453.629 309.868 454.179C309.551 454.73 309.362 455.344 309.314 455.977V468.111C309.258 468.276 309.258 468.454 309.314 468.618C309.471 468.582 309.623 468.525 309.765 468.449L320.266 462.368C320.797 462.014 321.241 461.544 321.563 460.992C321.885 460.441 322.076 459.824 322.124 459.187V447.053C322.174 446.888 322.174 446.711 322.124 446.546C321.955 446.588 321.794 446.654 321.645 446.743L311.144 452.796Z" fill="#455A64"/>
<path d="M333.695 442.774L375.08 418.9C376.431 418.112 377.557 418.731 377.557 420.308V423.517C377.497 424.372 377.243 425.202 376.813 425.943C376.384 426.685 375.791 427.319 375.08 427.797L333.695 451.698C332.316 452.487 331.218 451.839 331.218 450.262V447.053C331.263 446.195 331.511 445.359 331.942 444.615C332.372 443.871 332.973 443.24 333.695 442.774Z" fill="#E0E0E0"/>
<path d="M128.687 501.951V506.709C128.687 509.27 130.488 510.312 132.712 509.045L374.826 369.379C376 368.609 376.976 367.572 377.675 366.355C378.375 365.137 378.778 363.772 378.852 362.369V357.612C378.852 355.05 377.05 354.008 374.826 355.275L132.712 494.969C131.542 495.737 130.569 496.769 129.869 497.981C129.17 499.194 128.765 500.553 128.687 501.951Z" fill="#E0E0E0"/>
<path d="M128.687 530.61V535.368C128.687 537.93 130.488 538.972 132.712 537.705L374.826 398.011C376.003 397.249 376.981 396.219 377.681 395.005C378.381 393.791 378.782 392.428 378.852 391.029V386.271C378.852 383.681 377.05 382.639 374.826 383.934L132.712 523.628C131.542 524.396 130.569 525.428 129.869 526.641C129.17 527.853 128.765 529.213 128.687 530.61Z" fill="#E0E0E0"/>
<path d="M102.166 533.06C108.501 526.782 110.077 524.107 110.077 521.799C110.077 519.49 109.148 518.251 106.305 519.884C105.075 520.599 104.018 521.574 103.205 522.742C102.393 523.909 101.846 525.24 101.603 526.641L94.6777 528.189C95.2807 524.561 96.6495 521.103 98.6932 518.044C100.737 514.986 103.408 512.398 106.53 510.453C113.456 506.455 117.481 509.44 117.481 516.224C117.095 522.693 114.279 528.776 109.599 533.257V538.747L102.166 543.026V533.06Z" fill="#455A64"/>
<path d="M102.082 551.303C102.071 549.95 102.413 548.617 103.075 547.437C103.736 546.257 104.695 545.27 105.855 544.574C108.332 543.139 109.599 544.405 109.599 546.967C109.618 548.326 109.282 549.666 108.626 550.856C107.969 552.045 107.014 553.044 105.855 553.752C103.349 555.188 102.082 553.893 102.082 551.303Z" fill="#455A64"/>
<path d="M208.5 515.07L211.596 517.406L208.781 522.755C208.539 523.081 208.408 523.476 208.408 523.881C208.408 524.287 208.539 524.682 208.781 525.007C209.288 525.402 210.076 525.008 210.527 524.163L213.342 518.842L216.439 521.179C216.889 521.517 217.565 521.179 217.931 520.447C218.139 520.166 218.251 519.825 218.251 519.475C218.251 519.126 218.139 518.785 217.931 518.504L214.834 516.168L217.649 510.819C217.876 510.48 217.985 510.076 217.96 509.669C217.935 509.262 217.776 508.874 217.509 508.566C217.002 508.2 216.214 508.566 215.763 509.411L212.948 514.76L209.851 512.423C209.429 512.085 208.753 512.423 208.359 513.127C208.166 513.421 208.075 513.771 208.101 514.122C208.126 514.473 208.266 514.806 208.5 515.07Z" fill="#5F2EE9"/>
<path d="M104.306 696.458C103.861 696.46 103.424 696.343 103.039 696.12C102.585 695.847 102.217 695.451 101.978 694.978C101.739 694.505 101.639 693.974 101.688 693.446V681.312C101.725 680.231 102.027 679.175 102.567 678.238C103.107 677.3 103.868 676.51 104.785 675.935L115.286 669.882C115.721 669.594 116.228 669.433 116.75 669.416C117.272 669.4 117.788 669.529 118.24 669.789C118.693 670.049 119.065 670.43 119.314 670.888C119.562 671.347 119.679 671.866 119.65 672.388V684.521C119.612 685.603 119.311 686.658 118.771 687.596C118.231 688.533 117.469 689.324 116.553 689.899L106.052 695.951C105.524 696.27 104.922 696.445 104.306 696.458ZM117.031 671.881C116.86 671.912 116.697 671.979 116.553 672.078L106.052 678.131C105.524 678.486 105.085 678.958 104.768 679.509C104.45 680.06 104.264 680.677 104.222 681.312V693.446C104.179 693.612 104.179 693.786 104.222 693.953C104.393 693.921 104.557 693.854 104.7 693.756L115.201 687.703C115.729 687.347 116.168 686.876 116.485 686.324C116.803 685.773 116.989 685.156 117.031 684.521V672.388C117.058 672.22 117.058 672.049 117.031 671.881Z" fill="#455A64"/>
<path d="M128.574 668.109L169.959 644.207C171.338 643.419 172.436 644.066 172.436 645.643V648.852C172.391 649.711 172.143 650.546 171.712 651.29C171.282 652.034 170.681 652.665 169.959 653.131L128.574 677.033C127.223 677.821 126.097 677.174 126.097 675.597V672.388C126.144 671.53 126.393 670.695 126.823 669.952C127.254 669.208 127.854 668.577 128.574 668.109Z" fill="#E0E0E0"/>
<path d="M206.866 637.253C206.421 637.258 205.983 637.141 205.599 636.915C205.14 636.646 204.766 636.251 204.522 635.778C204.278 635.305 204.173 634.772 204.22 634.241V622.107C204.262 621.024 204.57 619.968 205.114 619.03C205.659 618.093 206.425 617.303 207.345 616.73L217.846 610.677C218.285 610.379 218.796 610.204 219.325 610.169C219.855 610.135 220.384 610.242 220.858 610.48C221.317 610.783 221.685 611.205 221.923 611.701C222.161 612.197 222.26 612.748 222.209 613.295V625.429C222.172 626.51 221.87 627.566 221.331 628.503C220.791 629.441 220.029 630.231 219.113 630.806L208.612 636.859C208.073 637.139 207.472 637.274 206.866 637.253ZM219.563 612.676C219.403 612.716 219.251 612.782 219.113 612.873L208.612 618.926C208.08 619.28 207.637 619.75 207.315 620.301C206.993 620.853 206.801 621.47 206.754 622.107V634.241C206.703 634.406 206.703 634.582 206.754 634.748C206.924 634.711 207.086 634.645 207.232 634.551L217.846 628.498C218.373 628.142 218.813 627.671 219.13 627.119C219.447 626.568 219.634 625.951 219.676 625.316V613.183C219.696 613.006 219.657 612.827 219.563 612.676Z" fill="#455A64"/>
<path d="M231.134 608.903L272.518 585.001C273.898 584.241 274.996 584.861 274.996 586.437V589.647C274.951 590.505 274.703 591.34 274.272 592.084C273.841 592.828 273.24 593.459 272.518 593.926L231.134 617.827C229.754 618.616 228.656 617.968 228.656 616.392V613.182C228.716 612.327 228.971 611.498 229.4 610.756C229.829 610.015 230.422 609.381 231.134 608.903Z" fill="#E0E0E0"/>
<path d="M309.399 578.047C308.954 578.049 308.517 577.933 308.132 577.71C307.678 577.436 307.31 577.04 307.071 576.567C306.832 576.094 306.731 575.563 306.781 575.035V562.901C306.818 561.82 307.12 560.765 307.66 559.827C308.2 558.89 308.961 558.099 309.878 557.524L320.379 551.471C320.809 551.164 321.316 550.985 321.843 550.952C322.371 550.92 322.896 551.037 323.36 551.29C323.824 551.542 324.208 551.92 324.467 552.381C324.727 552.841 324.851 553.365 324.827 553.892V566.026C324.784 567.109 324.477 568.166 323.932 569.103C323.388 570.04 322.622 570.83 321.702 571.403L311.201 577.456C310.667 577.817 310.043 578.022 309.399 578.047ZM311.144 559.72C310.621 560.08 310.185 560.553 309.869 561.103C309.552 561.654 309.363 562.268 309.315 562.901V575.035C309.264 575.2 309.264 575.377 309.315 575.542C309.475 575.502 309.627 575.435 309.765 575.345L320.266 569.292C320.797 568.938 321.241 568.468 321.563 567.916C321.885 567.365 322.077 566.747 322.124 566.111V553.892C322.174 553.727 322.174 553.551 322.124 553.386C321.958 553.423 321.798 553.48 321.645 553.555L311.144 559.72Z" fill="#455A64"/>
<path d="M333.695 549.698L375.08 525.796C376.431 525.036 377.557 525.796 377.557 527.232V530.441C377.497 531.296 377.243 532.126 376.813 532.867C376.384 533.609 375.791 534.243 375.08 534.72L333.695 558.622C332.316 559.41 331.218 558.763 331.218 557.186V553.892C331.276 553.049 331.53 552.23 331.96 551.502C332.39 550.774 332.984 550.156 333.695 549.698Z" fill="#E0E0E0"/>
<path d="M128.687 608.876V613.634C128.687 616.195 130.488 617.237 132.712 615.97L374.826 476.276C376.003 475.515 376.981 474.485 377.681 473.271C378.381 472.057 378.782 470.694 378.852 469.294V464.536C378.852 461.975 377.05 460.905 374.826 462.2L132.712 601.894C131.542 602.662 130.569 603.694 129.869 604.906C129.17 606.119 128.765 607.478 128.687 608.876Z" fill="#E0E0E0"/>
<path d="M128.687 637.535V642.293C128.687 644.855 130.488 645.896 132.712 644.601L374.826 504.935C375.999 504.171 376.976 503.14 377.675 501.927C378.375 500.713 378.778 499.352 378.852 497.954V493.196C378.852 490.606 377.05 489.564 374.826 490.859L132.712 630.553C131.539 631.318 130.563 632.349 129.863 633.562C129.164 634.775 128.761 636.137 128.687 637.535Z" fill="#E0E0E0"/>
<path d="M102.166 639.984C108.501 633.706 110.077 631.031 110.077 628.723C110.077 626.414 109.148 625.147 106.305 626.808C105.075 627.523 104.018 628.498 103.205 629.666C102.393 630.833 101.846 632.164 101.603 633.565L94.6777 635.085C95.2844 631.462 96.655 628.009 98.6985 624.956C100.742 621.903 103.412 619.319 106.53 617.377C113.456 613.38 117.481 616.364 117.481 623.008C117.095 629.476 114.279 635.559 109.599 640.04V645.53L102.166 649.809V639.984Z" fill="#455A64"/>
<path d="M102.081 658.227C102.068 656.87 102.409 655.533 103.07 654.348C103.732 653.163 104.692 652.171 105.854 651.47C108.331 650.063 109.598 651.33 109.598 653.892C109.614 655.25 109.277 656.589 108.621 657.778C107.965 658.967 107.011 659.966 105.854 660.676C103.348 662.112 102.081 660.873 102.081 658.227Z" fill="#455A64"/>
<path d="M311.06 562.789L314.129 565.125L311.313 570.474C311.067 570.798 310.933 571.194 310.933 571.601C310.933 572.007 311.067 572.403 311.313 572.727C311.82 573.121 312.608 572.727 313.059 571.882L315.874 566.533L318.971 568.87C319.421 569.208 320.069 568.87 320.463 568.166C320.675 567.887 320.79 567.545 320.79 567.195C320.79 566.844 320.675 566.503 320.463 566.223L317.366 563.887L320.182 558.538C320.395 558.194 320.497 557.793 320.472 557.389C320.446 556.985 320.296 556.599 320.041 556.285C319.534 555.891 318.746 556.285 318.295 557.13L315.48 562.479L312.383 560.114C311.933 559.776 311.257 560.114 310.891 560.846C310.702 561.144 310.616 561.495 310.647 561.846C310.677 562.197 310.822 562.528 311.06 562.789Z" fill="#5F2EE9"/>
<path d="M104.306 803.382C103.861 803.384 103.424 803.268 103.039 803.045C102.585 802.771 102.217 802.375 101.978 801.902C101.739 801.429 101.639 800.898 101.688 800.37V788.236C101.725 787.155 102.027 786.099 102.567 785.162C103.107 784.225 103.868 783.434 104.785 782.859L115.286 776.778C115.731 776.493 116.242 776.327 116.77 776.298C117.298 776.268 117.824 776.375 118.298 776.609C118.761 776.908 119.133 777.329 119.371 777.826C119.61 778.323 119.706 778.876 119.65 779.424V791.558C119.605 792.638 119.3 793.691 118.761 794.627C118.222 795.563 117.464 796.355 116.553 796.935L106.052 802.988C105.514 803.268 104.912 803.404 104.306 803.382ZM117.031 778.805C116.863 778.833 116.701 778.89 116.553 778.974L106.052 785.055C105.524 785.41 105.085 785.882 104.768 786.433C104.45 786.985 104.264 787.601 104.222 788.236V800.37C104.179 800.536 104.179 800.711 104.222 800.877C104.389 800.83 104.549 800.764 104.7 800.68L115.201 794.627C115.729 794.272 116.168 793.8 116.485 793.249C116.803 792.697 116.989 792.08 117.031 791.446V779.312C117.062 779.144 117.062 778.973 117.031 778.805Z" fill="#455A64"/>
<path d="M128.574 775.033L169.959 751.131C171.338 750.343 172.436 750.99 172.436 752.567V755.776C172.391 756.634 172.143 757.47 171.712 758.214C171.282 758.958 170.681 759.589 169.959 760.055L128.574 783.957C127.223 784.745 126.097 783.957 126.097 782.521V779.312C126.144 778.454 126.393 777.619 126.823 776.876C127.254 776.132 127.854 775.501 128.574 775.033Z" fill="#E0E0E0"/>
<path d="M206.866 744.177C206.421 744.182 205.983 744.065 205.599 743.839C205.116 743.56 204.727 743.143 204.482 742.642C204.236 742.14 204.145 741.577 204.22 741.024V728.89C204.263 727.807 204.57 726.751 205.114 725.813C205.659 724.876 206.425 724.086 207.345 723.513L217.846 717.432C218.283 717.142 218.793 716.981 219.317 716.965C219.842 716.95 220.36 717.081 220.814 717.345C221.268 717.608 221.639 717.993 221.886 718.456C222.132 718.919 222.244 719.442 222.21 719.966V732.1C222.172 733.181 221.871 734.236 221.331 735.174C220.791 736.111 220.029 736.902 219.113 737.477L208.612 743.53C208.099 743.898 207.496 744.122 206.866 744.177ZM219.563 719.6C219.406 719.636 219.255 719.693 219.113 719.769L208.612 725.85C208.08 726.204 207.637 726.674 207.315 727.225C206.993 727.777 206.801 728.394 206.754 729.031V741.165C206.704 741.33 206.704 741.506 206.754 741.672C206.918 741.619 207.078 741.553 207.232 741.475L217.733 735.422C218.261 735.066 218.7 734.595 219.017 734.043C219.335 733.492 219.521 732.875 219.563 732.24V719.994C219.597 719.865 219.597 719.729 219.563 719.6Z" fill="#455A64"/>
<path d="M231.134 715.827L272.518 691.925C273.898 691.137 274.996 691.925 274.996 693.361V696.57C274.951 697.429 274.703 698.264 274.272 699.008C273.841 699.752 273.24 700.383 272.518 700.85L231.134 724.751C229.754 725.54 228.656 724.892 228.656 723.316V719.994C228.733 719.158 228.995 718.351 229.424 717.63C229.852 716.909 230.437 716.293 231.134 715.827Z" fill="#E0E0E0"/>
<path d="M309.399 684.972C308.954 684.974 308.517 684.857 308.132 684.634C307.678 684.361 307.31 683.965 307.071 683.492C306.832 683.018 306.731 682.487 306.781 681.959V669.826C306.818 668.744 307.12 667.689 307.66 666.752C308.2 665.814 308.961 665.023 309.878 664.448L320.379 658.367C320.829 658.082 321.345 657.917 321.877 657.888C322.409 657.858 322.94 657.965 323.419 658.199C323.878 658.502 324.246 658.924 324.484 659.419C324.722 659.915 324.821 660.466 324.77 661.014V673.148C324.723 674.23 324.414 675.284 323.87 676.221C323.325 677.157 322.562 677.948 321.645 678.525L311.144 684.578C310.607 684.86 310.005 684.996 309.399 684.972ZM311.144 666.644C310.621 667.004 310.185 667.477 309.869 668.027C309.552 668.578 309.363 669.192 309.315 669.826V681.959C309.264 682.125 309.264 682.301 309.315 682.466C309.469 682.41 309.619 682.344 309.765 682.269L320.266 676.216C320.797 675.862 321.241 675.392 321.563 674.841C321.885 674.289 322.077 673.672 322.124 673.035V660.873C322.18 660.709 322.18 660.531 322.124 660.366C321.958 660.404 321.798 660.46 321.645 660.535L311.144 666.644Z" fill="#455A64"/>
<path d="M333.695 656.622L375.08 632.721C376.431 631.932 377.557 632.58 377.557 634.156V637.366C377.497 638.221 377.243 639.05 376.813 639.792C376.384 640.534 375.791 641.167 375.08 641.645L333.695 665.547C332.316 666.335 331.218 665.547 331.218 664.111V660.873C331.267 660.02 331.517 659.19 331.948 658.451C332.378 657.713 332.977 657.086 333.695 656.622Z" fill="#E0E0E0"/>
<path d="M128.687 715.799V720.557C128.687 723.118 130.488 724.16 132.712 722.865L374.826 583.199C375.999 582.434 376.976 581.403 377.675 580.19C378.375 578.977 378.778 577.616 378.852 576.217V571.459C378.852 568.869 377.05 567.828 374.826 569.123L132.712 708.817C131.539 709.582 130.563 710.612 129.863 711.826C129.164 713.039 128.761 714.4 128.687 715.799Z" fill="#E0E0E0"/>
<path d="M128.687 744.459V749.217C128.687 751.779 130.488 752.82 132.712 751.525L374.826 611.859C375.996 611.091 376.97 610.06 377.669 608.847C378.368 607.634 378.773 606.275 378.852 604.877V600.12C378.852 597.53 377.05 596.488 374.826 597.783L132.712 737.477C131.539 738.242 130.563 739.273 129.863 740.486C129.164 741.699 128.761 743.06 128.687 744.459Z" fill="#E0E0E0"/>
<path d="M102.166 746.908C108.501 740.63 110.077 737.956 110.077 735.647C110.077 733.339 109.148 732.072 106.305 733.733C105.079 734.445 104.023 735.416 103.211 736.578C102.399 737.74 101.85 739.065 101.603 740.461L94.6777 742.01C95.2844 738.387 96.655 734.934 98.6985 731.881C100.742 728.827 103.412 726.244 106.53 724.302C113.456 720.304 117.481 723.288 117.481 730.073C117.095 736.541 114.279 742.625 109.599 747.106V752.595L102.166 756.875V746.908Z" fill="#455A64"/>
<path d="M102.081 765.039C102.068 763.682 102.409 762.344 103.07 761.159C103.732 759.974 104.692 758.983 105.854 758.282C108.331 756.874 109.598 758.113 109.598 760.703C109.617 762.058 109.282 763.394 108.625 764.58C107.968 765.765 107.013 766.758 105.854 767.46C103.348 769.036 102.081 767.854 102.081 765.039Z" fill="#455A64"/>
<path d="M311.06 670.164L314.129 672.5L311.313 677.849C311.067 678.173 310.933 678.569 310.933 678.975C310.933 679.382 311.067 679.778 311.313 680.102C311.82 680.496 312.608 680.102 313.059 679.257L315.874 673.908L318.971 676.273C319.421 676.611 320.069 676.273 320.463 675.541C320.675 675.262 320.79 674.92 320.79 674.57C320.79 674.219 320.675 673.878 320.463 673.598L317.366 671.262L320.182 665.913C320.395 665.569 320.497 665.168 320.472 664.764C320.446 664.36 320.296 663.974 320.041 663.66C319.534 663.266 318.746 663.66 318.295 664.505L315.48 669.854L312.383 667.489C311.933 667.18 311.257 667.489 310.891 668.221C310.702 668.519 310.616 668.87 310.647 669.221C310.677 669.572 310.822 669.903 311.06 670.164Z" fill="#5F2EE9"/>
<path d="M585.324 214.539L564.632 202.603L564.434 202.462C554.131 196.634 540.026 197.507 524.401 206.544C509.762 214.99 496.417 229.066 486.367 245.31C474.74 264.06 467.448 285.738 467.448 305.191C467.448 323.35 473.783 336.159 484.058 342.043L505.088 354.065C515.449 360.68 530.116 360.089 546.36 350.714C577.835 332.528 603.342 288.356 603.342 252.039C603.313 233.205 596.388 220.17 585.324 214.539Z" fill="#5F2EE9"/>
<path opacity="0.1" d="M504.639 354.008L484.031 342.212C473.755 336.244 467.421 323.49 467.421 305.36C467.421 285.906 474.712 264.229 486.34 245.479L508.327 258.176C496.7 276.898 489.408 298.575 489.408 318.001C489.352 335.23 495.151 347.645 504.639 354.008Z" fill="black"/>
<path opacity="0.4" d="M584.902 214.314C574.767 209.387 561.226 210.626 546.333 219.213C531.44 227.799 518.349 241.735 508.271 258.064L486.283 245.367C496.334 229.066 509.706 215.018 524.318 206.6C539.942 197.563 554.047 196.719 564.351 202.518L564.548 202.659L584.902 214.314Z" fill="white"/>
<path d="M533.749 268.03C533.788 270.222 533.321 272.395 532.384 274.377C531.446 276.36 530.063 278.099 528.343 279.46C525.359 281.177 522.938 278.868 522.938 274.28C522.898 272.087 523.365 269.915 524.303 267.932C525.241 265.949 526.623 264.21 528.343 262.85C531.327 261.104 533.749 263.441 533.749 268.03Z" fill="white"/>
<path d="M564.519 250.265C564.559 252.458 564.092 254.63 563.154 256.612C562.216 258.595 560.834 260.334 559.114 261.695C556.13 263.412 553.708 261.104 553.708 256.515C553.669 254.322 554.136 252.15 555.073 250.167C556.011 248.185 557.394 246.445 559.114 245.085C562.098 243.367 564.519 245.676 564.519 250.265Z" fill="white"/>
<path d="M515.364 336.666C515.149 336.693 514.932 336.693 514.717 336.666C514.318 336.586 513.939 336.427 513.602 336.199C513.265 335.97 512.977 335.678 512.754 335.337C512.531 334.996 512.379 334.615 512.305 334.215C512.231 333.815 512.237 333.404 512.324 333.006C517.222 309.724 529.694 289.341 544.08 281.036C547.009 279.092 550.353 277.86 553.843 277.439C557.334 277.019 560.874 277.422 564.181 278.615C570.966 281.43 576.203 288.215 578.905 297.843C579.042 298.609 578.887 299.399 578.473 300.057C578.058 300.715 577.413 301.195 576.663 301.403C575.913 301.61 575.113 301.531 574.418 301.18C573.724 300.829 573.186 300.231 572.909 299.504C570.769 291.79 566.828 286.413 561.845 284.358C559.413 283.56 556.83 283.333 554.296 283.694C551.762 284.055 549.345 284.995 547.233 286.441C534.508 293.789 522.937 313.018 518.461 334.301C518.289 334.988 517.889 335.596 517.326 336.025C516.764 336.455 516.072 336.681 515.364 336.666Z" fill="white"/>
<path d="M585.324 34.4176L564.632 22.4809H564.434C554.131 16.6532 540.026 17.526 524.401 26.563C509.762 35.0089 496.417 49.0852 486.367 65.3294C474.74 84.0791 467.448 105.757 467.448 125.21C467.448 143.369 473.783 156.178 484.058 162.062L505.088 174.084C515.449 180.699 530.116 180.108 546.36 170.733C577.835 152.547 603.342 108.375 603.342 72.1987C603.313 53.0829 596.388 40.0482 585.324 34.4176Z" fill="#5F2EE9"/>
<path opacity="0.1" d="M504.639 173.83L484.031 162.034C473.755 156.066 467.421 143.313 467.421 125.182C467.421 105.729 474.712 84.051 486.34 65.3013L508.327 77.9982C496.7 96.7198 489.408 118.397 489.408 137.823C489.352 155.109 495.151 167.524 504.639 173.83Z" fill="black"/>
<path opacity="0.4" d="M584.902 34.1926C574.767 29.2659 561.226 30.5046 546.333 39.0912C531.44 47.6778 518.349 61.6134 508.271 77.942L486.283 65.2451C496.334 48.9447 509.706 34.8965 524.318 26.4788C539.942 17.4417 554.047 16.5971 564.351 22.3966H564.548L584.902 34.1926Z" fill="white"/>
<path d="M533.41 147.62C530.737 147.628 528.087 147.111 525.612 146.1C518.264 143.087 512.634 135.74 509.734 125.351C509.538 124.51 509.674 123.626 510.114 122.884C510.554 122.141 511.263 121.596 512.095 121.364C512.926 121.132 513.815 121.229 514.577 121.636C515.338 122.044 515.913 122.729 516.181 123.549C518.518 131.995 522.769 137.626 528.146 139.906C530.776 140.784 533.573 141.039 536.318 140.653C539.063 140.268 541.682 139.25 543.968 137.682C557.678 129.771 570.178 108.994 574.936 86.0217C575.125 85.1554 575.648 84.3983 576.39 83.9138C577.133 83.4292 578.036 83.2561 578.905 83.4317C579.336 83.5221 579.745 83.6965 580.108 83.945C580.472 84.1935 580.782 84.5111 581.023 84.8797C581.264 85.2484 581.429 85.6608 581.51 86.0935C581.591 86.5261 581.586 86.9705 581.495 87.4012C576.203 112.514 562.746 134.529 547.233 143.51C543.061 146.057 538.297 147.473 533.41 147.62Z" fill="white"/>
<path d="M532.791 91.8773C532.832 94.2462 532.328 96.5928 531.317 98.7358C530.307 100.879 528.817 102.761 526.963 104.236C523.726 106.094 521.136 103.589 521.136 98.6058C521.089 96.2399 521.59 93.8953 522.601 91.7558C523.612 89.6164 525.105 87.7404 526.963 86.2749C530.173 84.4168 532.791 86.9224 532.791 91.8773Z" fill="white"/>
<path d="M566.011 72.7056C566.052 75.0705 565.547 77.4129 564.537 79.5514C563.526 81.6898 562.037 83.5667 560.183 85.0365C556.974 86.8946 554.356 84.389 554.356 79.4059C554.315 77.0411 554.819 74.6986 555.83 72.5602C556.841 70.4217 558.33 68.5448 560.183 67.075C563.393 65.217 566.011 67.7507 566.011 72.7056Z" fill="white"/>
<path d="M627.666 541.393L478.456 627.54C476.956 628.304 475.297 628.702 473.614 628.702C471.931 628.702 470.272 628.304 468.772 627.54L460.861 622.951C459.443 622.027 458.265 620.779 457.423 619.311C456.581 617.843 456.1 616.196 456.019 614.506V442.211C456.1 440.52 456.581 438.873 457.423 437.405C458.265 435.937 459.443 434.689 460.861 433.765L610.071 347.617C611.565 346.854 613.22 346.456 614.899 346.456C616.577 346.456 618.232 346.854 619.727 347.617L627.638 352.234C629.059 353.155 630.239 354.402 631.081 355.871C631.924 357.34 632.403 358.989 632.48 360.68V533.003C632.393 534.682 631.912 536.316 631.075 537.773C630.239 539.231 629.071 540.471 627.666 541.393Z" fill="#455A64"/>
<path d="M477.64 627.906C476.22 628.476 474.695 628.738 473.167 628.675C471.638 628.612 470.14 628.225 468.772 627.54L460.861 622.923C459.444 622.001 458.268 620.753 457.43 619.284C456.593 617.815 456.118 616.167 456.047 614.477V442.182C456.089 440.491 456.574 438.841 457.455 437.396L475.022 447.616C474.154 449.056 473.67 450.694 473.614 452.374V624.669C473.614 627.512 475.332 628.807 477.64 627.906Z" fill="#263238"/>
<path d="M627.666 541.392L478.457 627.54C475.782 629.088 473.614 627.85 473.614 624.725V452.542C473.696 450.852 474.177 449.205 475.019 447.737C475.861 446.268 477.039 445.021 478.457 444.096L627.666 357.949C630.341 356.401 632.509 357.667 632.509 360.764V533.087C632.405 534.753 631.914 536.372 631.073 537.814C630.232 539.257 629.065 540.482 627.666 541.392Z" fill="#37474F"/>
<path fill-rule="evenodd" clip-rule="evenodd" d="M548.979 498.459L508.439 555.891C526.345 573.993 560.804 560.395 585.409 525.514C600.189 504.597 608.128 482.018 608.128 460.932L559.058 489.141C555.164 491.614 551.75 494.771 548.979 498.459Z" fill="#5F2EE9"/>
<path opacity="0.3" fill-rule="evenodd" clip-rule="evenodd" d="M548.979 498.459L508.439 555.891C526.345 573.993 560.804 560.395 585.409 525.514C600.189 504.597 608.128 482.018 608.128 460.932L559.058 489.141C555.164 491.614 551.75 494.771 548.979 498.459Z" fill="black"/>
<path d="M506.384 554.427L546.924 496.996C549.903 493.042 553.587 489.672 557.791 487.058L606.861 458.736C607.246 458.513 607.684 458.396 608.129 458.396C608.573 458.397 609.01 458.514 609.396 458.736C609.781 458.959 610.101 459.279 610.323 459.664C610.545 460.05 610.662 460.487 610.662 460.932C610.662 482.666 602.638 505.526 587.492 526.978C571.192 550.064 550.246 564.759 531.468 566.392C526.945 566.916 522.363 566.41 518.063 564.914C513.763 563.417 509.857 560.968 506.637 557.749C506.248 557.355 505.999 556.844 505.928 556.295C505.857 555.746 505.968 555.189 506.243 554.709C506.259 554.602 506.308 554.504 506.384 554.427ZM605.482 465.38L560.437 491.449C556.858 493.684 553.711 496.545 551.147 499.895L511.874 555.497C514.54 557.681 517.62 559.306 520.929 560.273C524.237 561.241 527.707 561.531 531.13 561.128C548.191 559.72 568.236 545.475 583.41 523.938C586 520.306 588.337 516.618 590.476 512.93C599.145 498.479 604.286 482.189 605.482 465.38Z" fill="white"/>
<path fill-rule="evenodd" clip-rule="evenodd" d="M550.809 486.128L535.972 442.069C507.031 469.631 491.181 514.675 500.584 542.659C502.096 547.633 504.78 552.171 508.411 555.891L548.951 498.459C550.1 496.646 550.859 494.613 551.179 492.49C551.498 490.367 551.373 488.2 550.809 486.128Z" fill="#5F2EE9"/>
<path d="M534.256 440.24C534.558 439.943 534.932 439.728 535.34 439.614C535.749 439.501 536.18 439.494 536.592 439.592C537.005 439.701 537.385 439.909 537.699 440.199C538.013 440.488 538.252 440.85 538.394 441.253L553.202 485.312C553.889 487.762 554.054 490.328 553.685 492.845C553.316 495.362 552.423 497.774 551.063 499.924L510.635 557.355C510.416 557.649 510.137 557.894 509.817 558.074C509.497 558.253 509.143 558.363 508.777 558.397C508.406 558.435 508.031 558.39 507.68 558.263C507.329 558.136 507.011 557.932 506.75 557.665C502.86 553.707 499.966 548.883 498.304 543.588C491.463 523.234 497.544 494.124 512.127 468.871C518.095 458.318 525.548 448.675 534.256 440.24ZM546.924 496.996C547.838 495.503 548.439 493.839 548.691 492.107C548.943 490.374 548.84 488.608 548.388 486.917L534.875 446.715C508.468 473.798 494.222 515.689 503.006 541.871C504.129 545.471 505.893 548.837 508.214 551.809L546.924 496.996Z" fill="white"/>
<path fill-rule="evenodd" clip-rule="evenodd" d="M557.059 487.029L597.599 429.598C583.298 415.127 559.143 419.998 536.001 442.07L550.809 486.129C552.02 489.788 554.835 490.183 557.059 487.029Z" fill="#5F2EE9"/>
<path opacity="0.1" fill-rule="evenodd" clip-rule="evenodd" d="M557.059 487.029L597.599 429.598C583.298 415.127 559.143 419.998 536.001 442.07L550.809 486.129C552.02 489.788 554.835 490.183 557.059 487.029Z" fill="black"/>
<path d="M534.255 440.24C558.466 417.154 584.057 412.284 599.4 427.824C599.819 428.245 600.077 428.8 600.129 429.392C600.18 429.984 600.022 430.575 599.682 431.062L559.114 488.493C558.613 489.615 557.76 490.542 556.684 491.133C555.608 491.724 554.368 491.948 553.153 491.769C551.939 491.591 550.815 491.02 549.955 490.144C549.095 489.268 548.544 488.135 548.388 486.917L533.579 442.858C533.468 442.519 533.431 442.16 533.47 441.806C533.509 441.452 533.623 441.11 533.804 440.803C533.914 440.586 534.067 440.394 534.255 440.24ZM594.248 430.02C581.101 418.759 559.761 423.573 538.9 442.858L553.202 485.369C553.357 485.842 553.585 486.288 553.877 486.692C554.335 486.444 554.715 486.073 554.975 485.622L594.248 430.02Z" fill="white"/>
<path fill-rule="evenodd" clip-rule="evenodd" d="M559.058 489.141L608.128 460.988C608.128 446.912 604.75 436.918 597.599 429.654L557.059 487.086C554.835 490.183 555.679 491.168 559.058 489.141Z" fill="#5F2EE9"/>
<path opacity="0.2" fill-rule="evenodd" clip-rule="evenodd" d="M559.058 489.141L608.128 460.988C608.128 446.912 604.75 436.918 597.599 429.654L557.059 487.086C554.835 490.183 555.679 491.168 559.058 489.141Z" fill="black"/>
<path d="M554.976 485.565L595.544 428.134C595.758 427.834 596.036 427.585 596.357 427.405C596.678 427.225 597.035 427.118 597.402 427.092C597.769 427.056 598.139 427.103 598.485 427.229C598.831 427.356 599.144 427.559 599.401 427.824C607.087 435.594 610.662 446.123 610.662 460.932C610.662 461.377 610.545 461.814 610.323 462.199C610.101 462.585 609.781 462.905 609.395 463.127L560.353 491.449C559.283 492.069 556.074 493.927 554.103 491.759C553.553 491.034 553.255 490.149 553.255 489.239C553.255 488.329 553.553 487.444 554.103 486.72L554.976 485.565ZM597.909 433.68L561.845 484.777L605.651 459.439C605.369 448.263 602.892 439.958 597.909 433.68Z" fill="white"/>
<path d="M608.438 682.866L707.113 663.525C707.736 663.423 708.375 663.515 708.943 663.789C709.512 664.063 709.982 664.505 710.29 665.056C710.597 665.607 710.728 666.24 710.663 666.867C710.599 667.495 710.342 668.088 709.928 668.564L643.009 744.352L608.438 682.866Z" fill="#FFA8A7"/>
<path d="M709.985 668.564C710.399 668.088 710.656 667.495 710.72 666.867C710.785 666.24 710.655 665.607 710.347 665.056C710.039 664.505 709.569 664.063 709 663.789C708.432 663.515 707.793 663.423 707.17 663.525L687.857 667.382C690.501 669.02 692.642 671.356 694.042 674.133C695.443 676.91 696.05 680.02 695.796 683.119V684.865L709.985 668.564Z" fill="#5F2EE9"/>
<path d="M275.137 955.357L283.189 950.711L292.958 945.081L643.038 744.267C646.249 733.397 645.243 721.715 640.223 711.554C633.213 695.901 619.643 683.401 608.382 682.81L258.584 883.595L239.975 894.265C252.418 888.015 287.525 948.91 275.137 955.357Z" fill="#37474F"/>
<path d="M305.908 937.817L323.926 927.457C329.247 924.642 326.207 911.551 319.985 898.037C311.736 880.076 295.548 862.677 288.482 866.422L275.194 874.051L270.492 876.866C277.559 873.122 293.775 890.492 301.995 908.482C307.935 921.432 310.976 934.017 306.443 937.451C306.302 937.62 306.117 937.746 305.908 937.817Z" fill="#EBEBEB"/>
<path d="M310.385 935.199C322.744 928.64 287.356 867.633 274.969 874.22L256.923 884.524C269.282 877.993 304.783 938.944 292.311 945.503L310.385 935.199Z" fill="#5F2EE9"/>
<path d="M275.137 955.356L292.958 945.165C305.148 938.803 271.478 879.682 258.584 883.595C258.325 883.644 258.076 883.739 257.852 883.877L239.975 894.265C252.418 888.015 287.525 948.909 275.137 955.356Z" fill="#EBEBEB"/>
<path opacity="0.15" d="M710.436 665.243L707.114 663.525L635.521 702.686L265.312 915.127C264.608 914.029 264.045 913.944 263.595 914.704C274.124 931.117 282.063 951.782 275.137 955.385L283.189 950.74L292.958 945.109L643.038 744.296L709.957 668.508C710.37 668.084 710.639 667.539 710.725 666.953C710.811 666.367 710.71 665.768 710.436 665.243Z" fill="black"/>
<path d="M199.491 998.628L275.137 955.357C280.43 952.542 277.502 939.648 271.393 926.219C263.2 908.229 247.069 890.662 239.974 894.266L164.018 937.649C148.928 946.348 162.808 979.062 179.615 993.701C185.865 999.304 192.959 1001.75 199.491 998.628Z" fill="#F28F8F"/>
<path opacity="0.1" d="M203.995 975.176C199.659 958.116 185.865 941.393 173.168 937.818C171.303 937.158 169.308 936.954 167.349 937.224C165.39 937.493 163.524 938.228 161.907 939.366C150.645 949.923 163.793 979.934 179.699 993.785C185.808 999.191 192.649 1001.61 199.181 998.768C204.755 995.446 207.035 986.719 203.995 975.176Z" fill="black"/>
</svg>
