<svg width="1109" height="1000" viewBox="0 0 1109 1000" fill="none" xmlns="http://www.w3.org/2000/svg">
<path d="M208.558 663.659C207.592 618.651 194.586 574.723 170.892 536.443C139.159 484.371 97.8206 449.718 63.639 461.112C31.7174 471.564 39.4389 514.786 88.2159 561.397C122.398 594.072 157.144 635.692 173.529 683.81L201.778 745.394L208.558 663.659Z" fill="#5F2EE9"/>
<path d="M208.558 663.659C207.592 618.651 194.586 574.723 170.892 536.443C139.159 484.371 97.8206 449.718 63.639 461.112C31.7174 471.564 39.4389 514.786 88.2159 561.397C122.398 594.072 157.144 635.692 173.529 683.81L201.778 745.394L208.558 663.659Z" fill="#5F2EE9"/>
<g opacity="0.15">
<path d="M208.558 663.66C207.592 618.651 194.586 574.723 170.892 536.444C139.159 484.371 97.8206 449.719 63.639 461.113C31.7174 471.565 39.4389 514.786 88.2159 561.397C122.398 594.072 157.144 635.693 173.529 683.811L201.778 745.394L208.558 663.66Z" fill="black"/>
</g>
<path d="M203.756 685.316C203.324 685.293 202.91 685.136 202.572 684.865C202.235 684.595 201.99 684.226 201.873 683.81C180.121 600.286 126.541 512.808 77.4816 480.321C77.2495 480.169 77.0504 479.972 76.8958 479.742C76.7412 479.512 76.6344 479.253 76.5817 478.981C76.529 478.708 76.5315 478.429 76.589 478.157C76.6466 477.886 76.758 477.629 76.9166 477.402C77.0594 477.173 77.2475 476.975 77.4694 476.822C77.6913 476.668 77.9424 476.562 78.207 476.509C78.4717 476.456 78.7443 476.457 79.0082 476.514C79.2721 476.57 79.5217 476.68 79.7416 476.837C129.649 509.794 183.887 598.309 205.922 682.774C205.992 683.04 206.009 683.317 205.971 683.589C205.933 683.862 205.842 684.124 205.701 684.361C205.561 684.598 205.375 684.804 205.154 684.968C204.933 685.132 204.682 685.25 204.415 685.316H203.756Z" fill="white"/>
<path d="M210.253 758.764C194.297 773.324 174.826 783.481 153.755 788.238C117.313 796.806 99.7045 780.328 99.7045 780.328C99.7045 780.328 111.663 744.64 131.909 733.246C109.618 740.026 88.6362 750.532 69.8545 764.32C69.8545 764.32 47.3493 766.297 35.7671 732.586C35.7671 732.586 47.6317 710.929 91.6064 696.427C69.3047 694.06 46.7569 696.83 25.6915 704.526C22.7724 705.844 6.85866 662.34 1.58547 642.095C-3.68773 621.85 4.59872 621.473 20.4183 616.011C36.2379 610.55 90.3823 603.864 101.023 611.868C111.663 619.872 119.008 649.534 119.008 649.534C123.729 636.808 124.869 623.031 122.304 609.702C136.627 606.985 151.382 607.598 165.431 611.491C169.668 612.716 176.731 642.566 168.915 667.425C179.05 653.44 185.348 637.045 187.183 619.872C196.511 624.54 204.651 631.276 210.982 639.565C217.313 647.855 221.669 657.48 223.719 667.707C227.862 687.67 232.005 730.327 210.253 758.764Z" fill="#5F2EE9"/>
<path d="M210.346 760.648C209.964 760.688 209.579 760.61 209.242 760.425C208.906 760.239 208.634 759.956 208.463 759.612C174.093 699.912 57.8004 636.257 17.7806 631.454C17.4778 631.474 17.1745 631.426 16.892 631.316C16.6094 631.205 16.3546 631.033 16.1457 630.813C15.9367 630.593 15.7786 630.33 15.6826 630.042C15.5866 629.755 15.555 629.449 15.59 629.148C15.6251 628.846 15.726 628.556 15.8855 628.298C16.0449 628.04 16.2592 627.82 16.5131 627.654C16.7669 627.488 17.0542 627.379 17.3546 627.336C17.655 627.293 17.9612 627.317 18.2515 627.405C59.1187 632.208 177.106 696.899 212.041 757.54C212.315 758.015 212.389 758.579 212.248 759.108C212.107 759.638 211.762 760.09 211.288 760.365C211.012 760.556 210.682 760.654 210.346 760.648Z" fill="white"/>
<path d="M217.606 771.176C217.922 775.419 219.228 779.528 221.419 783.175C223.61 786.822 226.626 789.904 230.224 792.174L585.035 996.981C588.954 998.938 593.273 999.956 597.653 999.956C602.033 999.956 606.352 998.938 610.271 996.981L1095.69 716.749C1099.51 714.721 1102.71 711.691 1104.94 707.983C1107.17 704.275 1108.35 700.03 1108.35 695.703C1108.35 691.376 1107.17 687.131 1104.94 683.423C1102.71 679.716 1099.51 676.685 1095.69 674.658L740.971 469.85C737.04 467.879 732.703 466.852 728.306 466.852C723.908 466.852 719.571 467.879 715.641 469.85L230.224 750.083C226.614 752.362 223.59 755.459 221.398 759.124C219.206 762.788 217.907 766.917 217.606 771.176Z" fill="#37474F"/>
<path d="M597.655 972.595V999.997C593.262 1000.07 588.922 999.034 585.037 996.983L230.226 792.176C226.521 790.214 223.402 787.305 221.187 783.745C218.971 780.185 217.738 776.102 217.614 771.911C217.49 767.72 218.478 763.57 220.478 759.885C222.479 756.2 225.42 753.111 229.002 750.933C223.258 754.982 223.729 761.008 230.226 764.775L585.037 969.582C588.922 971.633 593.262 972.669 597.655 972.595Z" fill="#263238"/>
<path d="M205.742 750.554C202.205 748.171 199.286 744.981 197.223 741.249C195.16 737.516 194.013 733.347 193.877 729.085V305.817C194.129 301.43 195.401 297.163 197.591 293.355C199.782 289.546 202.83 286.301 206.495 283.877L691.911 3.64399C695.567 1.34406 699.782 0.0855329 704.1 0.00420759C708.419 -0.0771177 712.678 1.02183 716.417 3.18248C720.157 5.34313 723.237 8.48355 725.323 12.2653C727.41 16.047 728.425 20.3267 728.259 24.6427V447.91C728.007 452.297 726.735 456.564 724.544 460.373C722.354 464.182 719.305 467.427 715.641 469.851L230.224 750.083C226.469 752.084 222.294 753.169 218.04 753.251C213.785 753.333 209.572 752.409 205.742 750.554Z" fill="#455A64"/>
<path d="M228.813 750.836C225.139 752.841 220.998 753.834 216.814 753.714C212.63 753.594 208.552 752.365 204.999 750.152C201.446 747.94 198.544 744.823 196.59 741.122C194.636 737.42 193.7 733.266 193.878 729.084V305.345C194.041 300.96 195.304 296.685 197.55 292.916L221.28 306.569C219.022 310.334 217.758 314.611 217.607 318.999V742.738C217.607 750.271 222.504 753.755 228.813 750.836Z" fill="#263238"/>
<path d="M217.606 319.47V743.209C217.606 751.213 223.256 754.508 230.224 750.459L715.641 470.227C719.305 467.803 722.354 464.558 724.544 460.749C726.735 456.94 728.006 452.673 728.259 448.287V24.642C728.259 16.5439 722.609 13.3423 715.641 17.2972L230.224 297.53C226.56 299.954 223.511 303.199 221.321 307.008C219.13 310.816 217.859 315.084 217.606 319.47Z" fill="#37474F"/>
<path d="M230.225 764.773L585.036 969.485C588.954 971.442 593.274 972.46 597.654 972.46C602.033 972.46 606.353 971.442 610.272 969.485L1095.69 689.347C1097.2 688.799 1098.5 687.8 1099.42 686.486C1100.34 685.172 1100.83 683.606 1100.83 682.002C1100.83 680.398 1100.34 678.833 1099.42 677.519C1098.5 676.205 1097.2 675.206 1095.69 674.658L740.972 469.85C737.041 467.879 732.704 466.852 728.307 466.852C723.909 466.852 719.572 467.879 715.641 469.85L230.225 750.083C228.718 750.631 227.415 751.63 226.495 752.944C225.575 754.258 225.081 755.824 225.081 757.428C225.081 759.032 225.575 760.597 226.495 761.911C227.415 763.225 228.718 764.224 230.225 764.773Z" fill="#455A64"/>
<path d="M237.1 321.071L705.002 50.9144C709.239 48.5603 712.629 50.9144 712.629 55.3401V421.733C712.489 424.377 711.725 426.95 710.399 429.241C709.074 431.532 707.224 433.477 705.002 434.916L237.1 705.073C232.863 707.427 229.473 705.073 229.473 700.647V334.255C229.613 331.611 230.377 329.038 231.703 326.747C233.028 324.455 234.878 322.51 237.1 321.071Z" fill="#5F2EE9"/>
<path d="M539.462 250.638L538.238 249.602C520.347 236.137 496.523 236.796 471.193 251.392C443.542 269.08 421.138 293.858 406.314 323.145L404.807 325.875L404.054 327.288C386.561 359.81 377.041 396.02 376.275 432.94C376.275 466.745 385.692 492.923 404.054 506.482C422.416 520.042 445.863 519.383 471.193 504.787C500.159 486.155 523.424 459.893 538.426 428.891C556.083 396.41 565.765 360.197 566.675 323.239C566.016 290.093 556.6 264.104 539.462 250.638ZM486.165 491.887C482.827 494.565 479.337 497.049 475.713 499.326L471.287 502.057L466.956 504.411C463.563 506.149 460.074 507.69 456.503 509.025C412.529 524.939 378.818 493.77 378.347 433.034V430.398C379.504 394.132 389.182 358.649 406.596 326.817L408.103 324.086C420.24 301.066 436.78 280.654 456.786 264.01C460.124 261.331 463.614 258.848 467.238 256.571L471.57 253.84L475.996 251.486C479.388 249.747 482.877 248.207 486.448 246.872C494.637 243.339 503.596 241.968 512.467 242.892C521.337 243.815 529.822 247.001 537.108 252.145C537.632 252.491 538.135 252.869 538.615 253.275C554.528 266.081 564.415 290.187 564.604 322.862V325.499C563.568 386.988 529.857 457.046 486.165 491.887Z" fill="white"/>
<path d="M471.002 510.435C444.542 525.69 419.588 526.349 400.85 512.13C382.111 497.911 371.753 470.698 371.753 435.292C372.622 396.727 382.592 358.913 400.85 324.932L401.603 323.425L403.204 320.506C418.69 289.805 442.097 263.798 471.002 245.175C497.462 229.92 522.321 229.261 541.06 243.291L542.378 244.233C560.27 258.734 570.157 285.665 570.157 320.13C569.288 358.695 559.318 396.509 541.06 430.49C525.552 463.106 501.301 490.781 471.002 510.435ZM471.002 259.676L466.859 262.218C463.563 264.384 460.173 266.738 456.877 269.375C437.813 285.244 422.042 304.695 410.454 326.627L409.042 329.263C392.602 359.627 383.538 393.432 382.582 427.947V430.49C382.582 487.93 414.409 518.439 457.16 502.996C460.571 501.719 463.904 500.241 467.141 498.57C469.872 497.158 472.791 495.463 475.522 493.768C478.253 492.073 482.207 489.154 485.503 486.612C528.254 452.713 559.61 386.044 560.081 328.039V325.497C560.081 295.364 550.665 271.823 535.222 259.582L533.809 258.452C526.864 253.542 518.771 250.504 510.31 249.63C501.849 248.756 493.306 250.075 485.503 253.461C482.092 254.738 478.759 256.216 475.522 257.887L471.002 259.676Z" fill="white"/>
<path d="M541.06 247.625L539.836 246.683L538.329 245.553L536.822 248.472L535.316 251.109C530.159 260.529 524.371 269.59 517.99 278.228C517.365 278.935 516.799 279.691 516.295 280.488C508.211 290.9 498.988 300.375 488.799 308.737L486.821 310.244C482.535 313.662 478.038 316.807 473.356 319.66C467.839 322.868 462 325.488 455.935 327.476L454.052 328.041C445.362 330.732 436.139 331.217 427.215 329.454H425.52C419.667 327.969 414.163 325.345 409.324 321.732L408.006 320.696L406.499 319.378L404.898 322.297C404.898 323.144 403.862 324.086 403.392 325.122L401.791 328.041L403.298 329.265L404.616 330.301C409.886 334.211 415.867 337.057 422.224 338.682H424.014C433.588 340.455 443.453 339.841 452.734 336.893L454.711 336.328C461.26 334.229 467.572 331.451 473.544 328.041C478.494 325.183 483.273 322.038 487.857 318.625L489.929 317.024C500.851 308.076 510.709 297.903 519.308 286.703L521.097 284.255C528.129 274.967 534.426 265.143 539.93 254.875C540.495 254.028 540.966 253.086 541.531 252.051L543.037 249.132L541.06 247.625Z" fill="white"/>
<path d="M541.062 423.334C540.525 423.044 540.02 422.696 539.556 422.298C533.888 418.473 527.466 415.904 520.723 414.765C520.128 414.713 519.529 414.713 518.934 414.765C508.996 413.541 498.908 414.769 489.555 418.344L487.483 419.097C482.527 420.981 477.739 423.281 473.17 425.971C466.682 429.723 460.538 434.04 454.808 438.871L452.737 440.566C442.015 449.941 432.381 460.49 424.016 472.017L422.227 474.465C415.729 483.639 409.847 493.234 404.619 503.186V503.656C404.148 504.41 403.771 505.257 403.3 506.105L401.417 508.93L403.018 510.059C403.497 510.466 404 510.843 404.524 511.189L406.125 512.225L407.632 509.212L408.95 506.575C413.77 497.414 419.18 488.575 425.146 480.115L426.841 477.761C434.679 466.982 443.678 457.098 453.678 448.288L455.561 446.687C460.986 442.088 466.817 437.991 472.982 434.446C477.287 431.92 481.791 429.747 486.447 427.948L488.425 427.289C497.188 423.983 506.624 422.852 515.921 423.994H517.616C523.822 425.108 529.725 427.514 534.942 431.056L536.448 431.997L537.955 433.128L539.462 430.302V429.832C539.462 429.078 540.309 428.231 540.686 427.383L542.663 424.182L541.062 423.334Z" fill="white"/>
<path d="M507.068 266.363C497.651 246.871 484.751 240.468 471.097 248.378C457.443 256.288 444.543 277.475 435.032 307.984C425.438 340.126 420.616 373.502 420.719 407.045C419.59 435.275 424.468 463.423 435.032 489.627C444.449 509.119 457.349 515.522 471.097 507.612C484.845 499.702 497.557 478.515 507.068 448.006C516.671 415.834 521.493 382.426 521.381 348.851C522.497 320.653 517.618 292.538 507.068 266.363ZM471.097 499.514C459.232 506.388 448.121 500.361 439.552 482.753C429.607 457.875 425.018 431.179 426.086 404.408C425.952 372.531 430.489 340.806 439.552 310.244C448.121 282.748 459.232 263.915 471.097 257.135C482.962 250.356 493.979 256.288 502.548 273.897C512.493 298.775 517.082 325.47 516.013 352.241C516.148 384.118 511.611 415.843 502.548 446.405C493.979 473.43 482.867 492.263 471.097 499.514Z" fill="white"/>
<path d="M565.073 319.376L376.745 427.947C375.761 428.702 374.962 429.671 374.407 430.78C373.853 431.89 373.557 433.11 373.543 434.35C373.543 436.704 374.955 438.117 376.745 437.081L565.073 328.51C566.056 327.754 566.855 326.785 567.41 325.676C567.965 324.567 568.26 323.347 568.274 322.107C568.274 319.753 566.862 318.34 565.073 319.376Z" fill="white"/>
<path d="M474.392 501.584V250.919C474.392 248.565 472.791 247.623 471.002 248.659C469.976 249.35 469.126 250.273 468.52 251.352C467.915 252.431 467.572 253.637 467.518 254.874V505.539C467.518 507.893 469.213 508.929 471.002 507.893C472.008 507.167 472.835 506.222 473.423 505.129C474.01 504.036 474.341 502.824 474.392 501.584Z" fill="white"/>
<path d="M271.468 753.756L721.572 493.675C723.535 492.651 725.715 492.117 727.928 492.117C730.141 492.117 732.322 492.651 734.284 493.675L757.26 506.952C758.036 507.204 758.713 507.694 759.192 508.354C759.672 509.014 759.93 509.808 759.93 510.624C759.93 511.44 759.672 512.235 759.192 512.894C758.713 513.554 758.036 514.045 757.26 514.297L307.25 774.378C305.291 775.356 303.131 775.866 300.941 775.866C298.751 775.866 296.591 775.356 294.632 774.378L271.656 761.101C270.873 760.87 270.183 760.397 269.686 759.749C269.189 759.102 268.91 758.313 268.889 757.497C268.868 756.681 269.106 755.879 269.57 755.207C270.033 754.535 270.697 754.027 271.468 753.756Z" fill="#37474F"/>
<path d="M330.793 788.032L781.369 527.762C783.314 526.74 785.479 526.205 787.678 526.205C789.876 526.205 792.041 526.74 793.987 527.762L935.704 609.591C939.188 611.568 939.188 614.864 935.704 616.936L486.164 876.829C484.211 877.829 482.049 878.35 479.855 878.35C477.661 878.35 475.499 877.829 473.546 876.829L331.264 795.377C330.468 795.18 329.756 794.734 329.23 794.105C328.705 793.475 328.393 792.695 328.341 791.877C328.288 791.059 328.498 790.245 328.939 789.554C329.38 788.863 330.029 788.33 330.793 788.032Z" fill="#263238"/>
<path d="M734.664 644.997L748.789 636.805C749.354 636.805 749.354 635.863 748.789 635.487L732.498 626.07C732.152 625.881 731.763 625.781 731.368 625.781C730.973 625.781 730.585 625.881 730.238 626.07L716.114 634.168C715.549 634.168 715.549 635.11 716.114 635.487L732.404 644.903C732.752 645.079 733.134 645.179 733.524 645.195C733.914 645.211 734.303 645.144 734.664 644.997ZM706.415 612.605L692.384 620.797C691.725 620.797 691.819 621.645 692.384 622.021L708.675 631.438C709.03 631.599 709.415 631.682 709.805 631.682C710.195 631.682 710.58 631.599 710.935 631.438L724.965 623.245C725.624 623.245 725.53 622.304 724.965 622.021L708.581 612.605C708.02 612.339 707.377 612.305 706.791 612.511L706.415 612.605ZM660.933 638.876L637.016 652.719C636.451 652.719 636.451 653.66 637.016 654.037L653.306 663.453C653.653 663.643 654.041 663.742 654.436 663.742C654.831 663.742 655.22 663.643 655.566 663.453L679.484 649.706C680.049 649.706 679.955 648.764 679.484 648.387L663.099 638.971C662.534 638.723 661.898 638.69 661.31 638.876H660.933ZM685.887 624.469L671.762 632.662C671.103 632.662 671.197 633.603 671.762 633.98L688.053 643.396C688.399 643.586 688.788 643.685 689.183 643.685C689.578 643.685 689.966 643.586 690.313 643.396L704.437 635.298C705.002 635.298 705.002 634.357 704.437 633.98L688.053 624.564C687.488 624.316 686.852 624.283 686.264 624.469H685.887ZM630.518 656.485L616.394 664.583C615.829 664.583 615.829 665.525 616.394 665.902L632.684 675.318C633.039 675.48 633.424 675.563 633.814 675.563C634.204 675.563 634.589 675.48 634.944 675.318L649.069 667.126C649.634 667.126 649.634 666.184 649.069 665.808L632.778 656.391C632.475 656.276 632.151 656.225 631.827 656.241C631.503 656.258 631.186 656.341 630.895 656.485H630.518ZM609.897 668.35L595.772 676.542C595.207 676.542 595.207 677.39 595.772 677.766L612.062 687.183C612.411 687.364 612.799 687.459 613.192 687.459C613.586 687.459 613.973 687.364 614.322 687.183L628.447 678.99C629.012 678.99 629.012 678.143 628.447 677.766L612.157 668.35C611.858 668.226 611.538 668.162 611.215 668.162C610.892 668.162 610.571 668.226 610.273 668.35H609.897ZM674.493 706.675L688.618 698.483C689.183 698.483 689.183 697.541 688.618 697.258L672.327 687.842C671.978 687.66 671.591 687.565 671.197 687.565C670.804 687.565 670.416 687.66 670.067 687.842L655.943 696.034C655.378 696.034 655.378 696.882 655.943 697.258L672.233 706.675C672.588 706.836 672.973 706.92 673.363 706.92C673.753 706.92 674.138 706.836 674.493 706.675ZM653.871 718.54L667.996 710.441C668.655 710.441 668.561 709.5 667.996 709.123L651.705 699.707C651.35 699.545 650.965 699.462 650.575 699.462C650.186 699.462 649.8 699.545 649.445 699.707L635.321 707.899C634.756 707.899 634.756 708.84 635.321 709.217L651.611 718.633C651.953 718.792 652.329 718.867 652.706 718.851C653.083 718.834 653.45 718.728 653.777 718.54H653.871ZM633.249 730.498L647.374 722.306C648.033 722.306 647.939 721.364 647.374 720.988L631.084 711.571C630.735 711.39 630.347 711.295 629.953 711.295C629.56 711.295 629.172 711.39 628.823 711.571L614.699 719.669C614.134 719.669 614.134 720.611 614.699 720.988L631.084 730.404C631.403 730.564 631.752 730.656 632.109 730.672C632.466 730.688 632.822 730.629 633.155 730.498H633.249ZM612.627 742.363L626.752 734.265C627.411 734.265 627.317 733.323 626.752 732.947L610.462 723.53C610.107 723.369 609.721 723.285 609.331 723.285C608.942 723.285 608.556 723.369 608.201 723.53L594.171 731.722C593.512 731.722 593.606 732.664 594.171 733.041L610.556 742.457C610.875 742.574 611.214 742.627 611.554 742.61C611.894 742.594 612.227 742.51 612.533 742.363H612.627ZM714.136 656.862L728.261 648.764C728.826 648.764 728.826 647.822 728.261 647.445L711.971 638.029C711.616 637.868 711.23 637.784 710.84 637.784C710.451 637.784 710.065 637.868 709.71 638.029L695.586 646.221C695.021 646.221 695.021 647.163 695.586 647.54L711.876 656.956C712.218 657.115 712.594 657.189 712.971 657.173C713.348 657.157 713.715 657.05 714.042 656.862H714.136ZM695.303 694.527L726.754 676.354C727.413 676.354 727.319 675.506 726.754 675.13L687.111 652.248C686.756 652.087 686.371 652.003 685.981 652.003C685.591 652.003 685.206 652.087 684.851 652.248L668.561 661.664C667.996 661.664 667.996 662.606 668.561 662.982L689.559 675.036C690.219 675.036 690.219 676.071 689.559 676.354L676.471 683.887C675.906 683.887 675.906 684.829 676.471 685.205L692.761 694.622C693.1 694.826 693.484 694.942 693.879 694.958C694.274 694.974 694.667 694.891 695.021 694.716L695.303 694.527ZM589.745 680.309L575.621 688.407C575.056 688.407 575.056 689.349 575.621 689.725L591.911 699.142C592.258 699.331 592.646 699.431 593.041 699.431C593.436 699.431 593.825 699.331 594.171 699.142L608.296 691.043C608.861 691.043 608.861 690.102 608.296 689.725L592.005 680.309C591.659 680.119 591.27 680.02 590.875 680.02C590.48 680.02 590.092 680.119 589.745 680.309ZM569.123 692.173L554.999 700.272C554.434 700.272 554.434 701.213 554.999 701.59L571.289 711.006C571.644 711.168 572.029 711.251 572.419 711.251C572.809 711.251 573.194 711.168 573.549 711.006L587.674 702.814C588.239 702.814 588.239 701.872 587.674 701.496L571.383 692.079C571.009 691.918 570.603 691.843 570.196 691.86C569.788 691.876 569.39 691.983 569.029 692.173H569.123ZM466.108 825.604C466.457 825.786 466.844 825.881 467.238 825.881C467.631 825.881 468.019 825.786 468.368 825.604L482.492 817.412C483.057 817.412 483.057 816.564 482.492 816.188L466.202 806.771C465.853 806.59 465.465 806.495 465.072 806.495C464.679 806.495 464.291 806.59 463.942 806.771L449.818 814.964C449.253 814.964 449.253 815.811 449.818 816.188L466.108 825.604ZM404.242 787.374L390.117 795.566C389.458 795.566 389.552 796.507 390.117 796.79L406.408 806.206C406.757 806.388 407.144 806.483 407.538 806.483C407.931 806.483 408.319 806.388 408.668 806.206L422.792 798.014C423.357 798.014 423.357 797.167 422.792 796.79L406.408 787.374C406.064 787.175 405.674 787.071 405.278 787.071C404.881 787.071 404.491 787.175 404.148 787.374H404.242ZM437.388 815.623C437.734 815.812 438.123 815.912 438.518 815.912C438.913 815.912 439.301 815.812 439.648 815.623L453.772 807.525C454.337 807.525 454.337 806.583 453.772 806.206L437.482 796.79C437.127 796.629 436.742 796.545 436.352 796.545C435.962 796.545 435.577 796.629 435.222 796.79L421.097 804.982C420.532 804.982 420.532 805.924 421.097 806.3L437.388 815.623ZM502.549 833.137L516.58 825.039C517.239 825.039 517.145 824.097 516.58 823.721L500.195 814.304C499.84 814.143 499.455 814.06 499.065 814.06C498.675 814.06 498.29 814.143 497.935 814.304L483.905 822.497C483.246 822.497 483.34 823.438 483.905 823.815L500.289 833.231C500.655 833.342 501.041 833.365 501.417 833.3C501.793 833.234 502.149 833.082 502.455 832.855L502.549 833.137ZM479.667 845.002C480.022 845.163 480.408 845.247 480.797 845.247C481.187 845.247 481.572 845.163 481.927 845.002L495.958 836.81C496.617 836.81 496.523 835.868 495.958 835.491L479.573 826.075C479.227 825.885 478.838 825.786 478.443 825.786C478.048 825.786 477.66 825.885 477.313 826.075L463.283 834.173C462.624 834.173 462.718 835.115 463.283 835.491L479.667 845.002ZM424.864 775.791L410.739 783.889C410.08 783.889 410.174 784.831 410.739 785.208L427.03 794.624C427.385 794.785 427.77 794.869 428.16 794.869C428.549 794.869 428.935 794.785 429.29 794.624L443.32 786.432C443.979 786.432 443.885 785.49 443.32 785.113L426.935 775.697C426.619 775.486 426.255 775.358 425.877 775.325C425.498 775.292 425.118 775.356 424.77 775.509L424.864 775.791ZM527.785 716.091L513.661 724.189C513.096 724.189 513.096 725.131 513.661 725.508L529.951 734.924C530.306 735.085 530.691 735.169 531.081 735.169C531.471 735.169 531.856 735.085 532.211 734.924L546.336 726.732C546.995 726.732 546.901 725.79 546.336 725.413L530.045 715.997C529.691 715.822 529.298 715.738 528.903 715.755C528.508 715.771 528.124 715.887 527.785 716.091ZM445.298 763.173L431.267 771.365C430.608 771.365 430.702 772.307 431.267 772.684L447.652 782.1C447.998 782.29 448.387 782.389 448.782 782.389C449.177 782.389 449.565 782.29 449.912 782.1L463.942 774.002C464.601 774.002 464.507 773.061 463.942 772.684L447.557 763.268C447.209 763.091 446.828 762.992 446.438 762.975C446.048 762.959 445.659 763.027 445.298 763.173ZM548.407 703.661L534.283 711.854C533.718 711.854 533.718 712.795 534.283 713.172L550.573 722.589C550.92 722.778 551.308 722.877 551.703 722.877C552.098 722.877 552.486 722.778 552.833 722.589L566.958 714.49C567.523 714.49 567.523 713.549 566.958 713.172L550.667 703.756C550.292 703.637 549.896 703.601 549.506 703.65C549.116 703.699 548.741 703.831 548.407 704.038V703.661ZM507.163 727.485L493.039 735.677C492.474 735.677 492.474 736.619 493.039 736.901L509.423 746.318C509.755 746.499 510.128 746.594 510.506 746.594C510.885 746.594 511.257 746.499 511.589 746.318L525.714 738.126C526.373 738.126 526.279 737.278 525.714 736.901L509.423 727.485C509.044 727.359 508.64 727.327 508.247 727.393C507.853 727.458 507.481 727.619 507.163 727.862V727.485ZM486.165 739.82L472.134 747.919C471.475 747.919 471.569 748.86 472.134 749.237L488.519 758.653C488.851 758.835 489.223 758.93 489.602 758.93C489.98 758.93 490.353 758.835 490.685 758.653L504.809 750.555C505.469 750.555 505.374 749.614 504.809 749.237L488.519 739.82C488.161 739.614 487.755 739.505 487.342 739.505C486.929 739.505 486.523 739.614 486.165 739.82ZM465.543 751.685L451.512 759.783C450.853 759.783 450.947 760.725 451.512 761.102L467.897 770.518C468.252 770.679 468.637 770.763 469.027 770.763C469.417 770.763 469.802 770.679 470.157 770.518L484.187 762.326C484.847 762.326 484.752 761.384 484.187 761.007L467.897 751.591C467.249 751.374 466.544 751.408 465.92 751.685H465.543ZM571.007 766.187L585.037 757.994C585.696 757.994 585.602 757.053 585.037 756.77L568.653 747.354C568.306 747.164 567.918 747.065 567.523 747.065C567.128 747.065 566.739 747.164 566.393 747.354L552.362 755.546C551.703 755.546 551.797 756.394 552.362 756.77L568.653 766.187C569.056 766.458 569.532 766.603 570.018 766.603C570.504 766.603 570.98 766.458 571.383 766.187H571.007ZM751.99 586.333L737.96 594.431C737.301 594.431 737.395 595.373 737.96 595.749L754.25 605.166C754.597 605.355 754.985 605.455 755.38 605.455C755.775 605.455 756.164 605.355 756.51 605.166L770.541 597.068C771.2 597.068 771.106 596.126 770.541 595.749L754.156 586.333C753.583 586.097 752.94 586.097 752.367 586.333H751.99ZM727.037 600.74L713.006 608.838C712.347 608.838 712.441 609.78 713.006 610.156L729.297 619.573C729.646 619.754 730.033 619.849 730.427 619.849C730.82 619.849 731.208 619.754 731.557 619.573L745.587 611.475C746.246 611.475 746.152 610.533 745.587 610.156L729.203 600.74C728.629 600.505 727.987 600.505 727.413 600.74H727.037ZM772.612 574.374L758.582 582.566C757.923 582.566 758.017 583.508 758.582 583.791L774.966 593.207C775.315 593.389 775.703 593.483 776.096 593.483C776.49 593.483 776.877 593.389 777.226 593.207L791.257 585.109C791.916 585.109 791.822 584.167 791.257 583.791L774.872 574.374C774.208 574.295 773.538 574.463 772.989 574.845L772.612 574.374ZM665.924 684.452L680.049 676.26C680.614 676.26 680.614 675.318 680.049 675.036L663.758 665.619C663.409 665.438 663.022 665.343 662.628 665.343C662.235 665.343 661.847 665.438 661.498 665.619L647.374 673.812C646.809 673.812 646.809 674.659 647.374 675.036L663.664 684.452C664.068 684.675 664.521 684.791 664.982 684.791C665.444 684.791 665.897 684.675 666.301 684.452H665.924ZM795.494 562.509C795.145 562.328 794.758 562.233 794.364 562.233C793.971 562.233 793.583 562.328 793.234 562.509L779.204 570.607C778.545 570.607 778.639 571.549 779.204 571.926L795.588 581.342C795.943 581.504 796.329 581.587 796.718 581.587C797.108 581.587 797.493 581.504 797.848 581.342L811.879 573.15C812.538 573.15 812.444 572.208 811.879 571.832L795.494 562.509ZM591.629 754.228L605.659 746.13C606.318 746.13 606.224 745.188 605.659 744.811L589.369 735.395C589.022 735.205 588.634 735.106 588.239 735.106C587.844 735.106 587.455 735.205 587.109 735.395L573.078 743.493C572.419 743.493 572.513 744.434 573.078 744.811L589.463 754.228C589.842 754.471 590.284 754.6 590.734 754.6C591.185 754.6 591.626 754.471 592.005 754.228H591.629ZM844.365 608.273L858.49 600.175C859.149 600.175 859.055 599.233 858.49 598.857L842.2 589.44C841.851 589.259 841.463 589.164 841.07 589.164C840.676 589.164 840.289 589.259 839.94 589.44L825.815 597.538C825.25 597.538 825.25 598.48 825.815 598.857L842.2 608.273C842.574 608.528 843.017 608.665 843.471 608.665C843.924 608.665 844.367 608.528 844.742 608.273H844.365ZM800.485 606.767L814.61 598.574C815.174 598.574 815.174 597.727 814.61 597.35L798.319 587.934C797.97 587.752 797.582 587.657 797.189 587.657C796.796 587.657 796.408 587.752 796.059 587.934L781.935 596.126C781.37 596.126 781.37 596.974 781.935 597.35L798.225 606.767C798.619 607.018 799.076 607.152 799.543 607.152C800.01 607.152 800.468 607.018 800.862 606.767H800.485ZM818.847 575.975C818.5 575.785 818.112 575.686 817.717 575.686C817.322 575.686 816.933 575.785 816.587 575.975L802.462 584.073C801.897 584.073 801.897 585.015 802.462 585.391L818.753 594.808C819.099 594.997 819.488 595.097 819.883 595.097C820.278 595.097 820.666 594.997 821.013 594.808L835.137 586.71C835.702 586.71 835.702 585.768 835.137 585.391L818.847 575.975ZM823.178 573.526L862.727 596.314C863.076 596.496 863.464 596.591 863.857 596.591C864.251 596.591 864.638 596.496 864.987 596.314L879.112 588.122C879.771 588.122 879.677 587.275 879.112 586.898L839.563 564.016C839.208 563.855 838.823 563.771 838.433 563.771C838.043 563.771 837.658 563.855 837.303 564.016L823.178 572.208C822.896 572.491 822.896 573.15 823.555 573.526H823.178ZM775.343 599.704L761.218 607.897C760.653 607.897 760.653 608.838 761.218 609.215L777.509 618.631C777.855 618.821 778.244 618.92 778.639 618.92C779.034 618.92 779.422 618.821 779.769 618.631L793.893 610.533C794.458 610.533 794.458 609.591 793.893 609.215L777.603 599.798C777.006 599.544 776.339 599.511 775.72 599.704H775.343ZM620.161 689.349L606.036 697.447C605.471 697.447 605.471 698.388 606.036 698.765L622.326 708.181C622.681 708.343 623.066 708.426 623.456 708.426C623.846 708.426 624.231 708.343 624.586 708.181L638.711 699.989C639.276 699.989 639.276 699.047 638.711 698.671L622.42 689.254C622.117 689.139 621.793 689.088 621.469 689.105C621.145 689.121 620.827 689.204 620.537 689.349H620.161ZM821.578 620.138C821.916 620.297 822.286 620.38 822.66 620.38C823.035 620.38 823.405 620.297 823.743 620.138L837.868 611.946C838.527 611.946 838.433 611.004 837.868 610.627L821.578 601.211C821.229 601.029 820.841 600.935 820.448 600.935C820.054 600.935 819.667 601.029 819.318 601.211L805.287 609.309C804.628 609.309 804.722 610.251 805.287 610.627L821.578 620.138ZM640.782 677.39L626.658 685.582C626.093 685.582 626.093 686.524 626.658 686.9L642.948 696.317C643.295 696.506 643.683 696.606 644.078 696.606C644.473 696.606 644.862 696.506 645.208 696.317L659.333 688.219C659.898 688.219 659.898 687.277 659.333 686.9L643.042 677.484C642.446 677.23 641.778 677.197 641.159 677.39H640.782ZM486.259 813.739C486.605 813.929 486.994 814.028 487.389 814.028C487.784 814.028 488.172 813.929 488.519 813.739L502.644 805.641C503.208 805.641 503.208 804.7 502.644 804.323L486.353 794.907C486.007 794.717 485.618 794.618 485.223 794.618C484.828 794.618 484.44 794.717 484.093 794.907L469.969 803.005C469.404 803.005 469.404 803.946 469.969 804.323L486.259 813.739ZM455.279 784.548L441.154 792.741C440.495 792.741 440.589 793.588 441.154 793.965L457.445 803.381C457.794 803.563 458.181 803.658 458.575 803.658C458.968 803.658 459.356 803.563 459.705 803.381L473.829 795.189C474.394 795.189 474.394 794.341 473.829 793.965L457.539 784.548C457.24 784.424 456.92 784.36 456.597 784.36C456.274 784.36 455.954 784.424 455.656 784.548H455.279ZM509.141 801.875L523.265 793.777C523.83 793.777 523.83 792.835 523.265 792.458L506.975 783.042C506.62 782.88 506.235 782.797 505.845 782.797C505.455 782.797 505.07 782.88 504.715 783.042L490.591 791.234C489.931 791.234 490.026 792.176 490.591 792.552L506.881 801.969C507.28 802.218 507.744 802.343 508.214 802.326C508.683 802.309 509.138 802.152 509.518 801.875H509.141ZM529.763 790.01L543.887 781.818C544.452 781.818 544.452 780.876 543.887 780.499L527.503 771.083C527.171 770.902 526.798 770.807 526.42 770.807C526.042 770.807 525.669 770.902 525.337 771.083L511.212 779.181C510.553 779.181 510.648 780.123 511.212 780.499L527.503 789.916C527.899 790.153 528.348 790.286 528.809 790.302C529.27 790.319 529.728 790.218 530.14 790.01H529.763ZM550.385 778.051L564.415 769.953C565.074 769.953 564.98 769.011 564.415 768.635L548.031 759.218C547.692 759.059 547.322 758.976 546.948 758.976C546.573 758.976 546.204 759.059 545.865 759.218L531.74 767.411C531.081 767.411 531.175 768.352 531.74 768.729L548.031 778.145C548.444 778.403 548.924 778.531 549.41 778.515C549.897 778.498 550.367 778.336 550.761 778.051H550.385ZM476.748 772.59L462.624 780.688C461.965 780.688 462.059 781.629 462.624 782.006L478.914 791.423C479.261 791.612 479.649 791.711 480.044 791.711C480.439 791.711 480.828 791.612 481.174 791.423L495.299 783.325C495.864 783.325 495.864 782.383 495.299 782.006L478.914 772.59C478.582 772.408 478.21 772.313 477.831 772.313C477.453 772.313 477.08 772.408 476.748 772.59ZM497.37 760.631L483.246 768.823C482.587 768.823 482.681 769.765 483.246 770.141L499.536 779.558C499.885 779.739 500.273 779.834 500.666 779.834C501.06 779.834 501.447 779.739 501.796 779.558L515.826 771.46C516.486 771.46 516.391 770.518 515.826 770.141L499.442 760.725C499.055 760.502 498.617 760.384 498.171 760.384C497.724 760.384 497.286 760.502 496.9 760.725L497.37 760.631ZM579.764 713.078L565.639 721.176C565.074 721.176 565.074 722.118 565.639 722.494L582.024 731.911C582.356 732.092 582.729 732.187 583.107 732.187C583.485 732.187 583.858 732.092 584.19 731.911L598.314 723.813C598.974 723.813 598.879 722.871 598.314 722.494L582.024 713.078C581.615 712.808 581.133 712.671 580.643 712.688C580.154 712.705 579.682 712.874 579.293 713.172L579.764 713.078ZM558.671 725.508L544.641 733.7C543.982 733.7 544.076 734.547 544.641 734.924L561.025 744.34C561.364 744.5 561.734 744.583 562.108 744.583C562.483 744.583 562.852 744.5 563.191 744.34L577.316 736.148C577.975 736.148 577.881 735.206 577.316 734.924L561.025 725.508C560.665 725.31 560.26 725.206 559.848 725.206C559.437 725.206 559.032 725.31 558.671 725.508ZM599.915 701.684L585.79 709.876C585.225 709.876 585.225 710.818 585.79 711.195L602.081 720.611C602.436 720.772 602.821 720.856 603.211 720.856C603.601 720.856 603.986 720.772 604.341 720.611L618.465 712.513C619.124 712.513 619.03 711.571 618.465 711.195L602.175 701.778C601.863 701.523 601.499 701.34 601.108 701.243C600.718 701.145 600.31 701.135 599.915 701.213V701.684ZM517.427 749.331L503.397 757.429C502.738 757.429 502.832 758.371 503.397 758.748L519.781 768.164C520.136 768.325 520.522 768.409 520.911 768.409C521.301 768.409 521.686 768.325 522.041 768.164L536.072 759.972C536.731 759.972 536.637 759.03 536.072 758.653L519.687 749.237C519.374 748.987 519.002 748.821 518.606 748.755C518.211 748.689 517.805 748.726 517.427 748.86V749.331ZM538.049 737.372L524.019 745.565C523.36 745.565 523.454 746.506 524.019 746.883L540.403 756.299C540.75 756.489 541.138 756.588 541.533 756.588C541.928 756.588 542.317 756.489 542.663 756.299L556.694 748.201C557.353 748.201 557.259 747.259 556.694 746.883L540.403 737.466C540.081 737.198 539.7 737.007 539.292 736.909C538.884 736.811 538.459 736.808 538.049 736.901V737.372ZM523.077 821.461L537.108 813.269C537.767 813.269 537.673 812.327 537.108 812.044L520.817 802.628C520.468 802.447 520.081 802.352 519.687 802.352C519.294 802.352 518.906 802.447 518.557 802.628L504.527 810.726C503.868 810.726 503.962 811.668 504.527 812.044L520.911 821.461C521.285 821.538 521.671 821.536 522.044 821.455C522.417 821.374 522.769 821.216 523.077 820.99V821.461ZM402.076 809.22L385.786 799.803C385.439 799.614 385.051 799.514 384.656 799.514C384.261 799.514 383.872 799.614 383.526 799.803L369.401 807.901C368.742 807.901 368.836 808.843 369.401 809.22L385.691 818.636C386.04 818.818 386.428 818.912 386.822 818.912C387.215 818.912 387.603 818.818 387.952 818.636L402.076 810.538C402.735 809.69 402.735 809.125 402.076 808.749V809.22ZM432.962 818.636L416.672 809.22C416.325 809.03 415.937 808.931 415.542 808.931C415.147 808.931 414.758 809.03 414.412 809.22L392.66 821.743C392.095 821.743 392.095 822.685 392.66 823.062L408.95 832.478C409.296 832.668 409.685 832.767 410.08 832.767C410.475 832.767 410.864 832.668 411.21 832.478L432.962 819.954C433.621 818.73 433.621 818.165 432.962 817.788V818.636ZM377.029 791.423L360.738 782.006C360.383 781.845 359.998 781.761 359.608 781.761C359.218 781.761 358.833 781.845 358.478 782.006L341.058 791.423C340.493 791.423 341.058 792.364 341.058 792.647L357.442 802.063C357.774 802.244 358.147 802.339 358.525 802.339C358.904 802.339 359.276 802.244 359.608 802.063L377.029 792.082C377.688 791.423 377.688 791.423 377.029 790.575V791.423ZM390.306 783.701C390.661 783.862 391.046 783.946 391.436 783.946C391.825 783.946 392.211 783.862 392.566 783.701L406.69 775.509C407.255 775.509 407.255 774.567 406.69 774.191L390.4 764.774C390.053 764.585 389.665 764.485 389.27 764.485C388.875 764.485 388.486 764.585 388.14 764.774L374.015 772.872C373.45 772.872 373.45 773.814 374.015 774.191L390.306 783.701ZM461.682 828.994L445.392 819.578C445.045 819.388 444.657 819.289 444.262 819.289C443.867 819.289 443.478 819.388 443.132 819.578L416.012 835.209C415.353 835.209 415.447 836.151 416.012 836.527L432.303 845.944C432.652 846.125 433.039 846.22 433.433 846.22C433.826 846.22 434.214 846.125 434.563 845.944L461.682 830.312C462.341 829.088 462.341 828.523 461.682 828.146V828.994ZM475.242 847.827L458.857 838.41C458.518 838.251 458.149 838.168 457.774 838.168C457.4 838.168 457.03 838.251 456.691 838.41L439.083 847.921C438.518 847.921 438.518 848.863 439.083 849.145L455.373 858.562C455.722 858.743 456.11 858.838 456.503 858.838C456.897 858.838 457.284 858.743 457.633 858.562L475.053 848.58C475.901 847.921 475.807 847.921 475.242 847.262V847.827ZM543.605 694.904C543.96 695.066 544.345 695.149 544.735 695.149C545.125 695.149 545.51 695.066 545.865 694.904L559.989 686.712C560.554 686.712 560.554 685.77 559.989 685.488L543.699 676.071C543.35 675.89 542.962 675.795 542.569 675.795C542.176 675.795 541.788 675.89 541.439 676.071L527.314 684.169C526.749 684.169 526.749 685.111 527.314 685.488L543.605 694.904ZM502.361 718.728C502.716 718.889 503.101 718.973 503.491 718.973C503.881 718.973 504.266 718.889 504.621 718.728L518.746 710.536C519.31 710.536 519.31 709.594 518.746 709.217L502.455 699.801C502.109 699.611 501.72 699.512 501.325 699.512C500.93 699.512 500.542 699.611 500.195 699.801L486.071 707.899C485.506 707.899 485.506 708.84 486.071 709.217L502.361 718.728ZM410.833 770.989C411.18 771.178 411.568 771.278 411.963 771.278C412.358 771.278 412.747 771.178 413.093 770.989L427.218 762.891C427.783 762.891 427.783 761.949 427.218 761.572L410.928 752.156C410.573 751.995 410.188 751.911 409.798 751.911C409.408 751.911 409.022 751.995 408.668 752.156L394.543 760.348C393.978 760.348 393.978 761.29 394.543 761.667L410.833 770.989ZM522.889 706.298C523.235 706.488 523.624 706.587 524.019 706.587C524.414 706.587 524.802 706.488 525.149 706.298L539.274 698.2C539.839 698.2 539.839 697.258 539.274 696.882L522.983 687.465C522.628 687.304 522.243 687.221 521.853 687.221C521.463 687.221 521.078 687.304 520.723 687.465L506.599 695.657C506.034 695.657 506.034 696.599 506.599 696.976L522.889 706.298ZM481.645 730.122C482 730.283 482.385 730.366 482.775 730.366C483.165 730.366 483.55 730.283 483.905 730.122L498.03 722.024C498.595 722.024 498.595 721.082 498.03 720.705L481.739 711.289C481.384 711.127 480.999 711.044 480.609 711.044C480.219 711.044 479.834 711.127 479.479 711.289L465.355 719.481C464.79 719.481 464.79 720.423 465.355 720.799L481.645 730.122ZM486.447 848.768C486.092 848.607 485.707 848.524 485.317 848.524C484.928 848.524 484.542 848.607 484.187 848.768L462.529 861.386C461.87 861.386 461.964 862.234 462.529 862.611L478.914 872.027C479.263 872.209 479.651 872.303 480.044 872.303C480.438 872.303 480.825 872.209 481.174 872.027L502.832 859.503C503.397 859.503 503.397 858.562 502.832 858.185L486.447 848.768ZM452.077 747.165C452.424 747.355 452.812 747.454 453.207 747.454C453.602 747.454 453.991 747.355 454.337 747.165L468.462 739.067C469.027 739.067 469.027 738.125 468.462 737.749L452.172 728.332C451.825 728.143 451.436 728.044 451.041 728.044C450.647 728.044 450.258 728.143 449.912 728.332L435.787 736.431C435.222 736.431 435.222 737.372 435.787 737.749L452.077 747.165ZM431.455 759.03C431.81 759.191 432.196 759.275 432.585 759.275C432.975 759.275 433.36 759.191 433.715 759.03L447.84 750.838C448.405 750.838 448.405 749.896 447.84 749.614L431.55 740.197C431.201 740.016 430.813 739.921 430.419 739.921C430.026 739.921 429.639 740.016 429.29 740.197L415.165 748.389C414.6 748.389 414.6 749.237 415.165 749.614L431.455 759.03ZM868.377 628.236C868.031 628.047 867.642 627.947 867.247 627.947C866.852 627.947 866.464 628.047 866.117 628.236L831.371 648.293C830.806 648.293 830.806 649.14 831.371 649.517L847.755 658.933C848.087 659.115 848.46 659.21 848.838 659.21C849.217 659.21 849.589 659.115 849.921 658.933L884.668 638.876C885.327 638.876 885.233 637.935 884.668 637.558L868.377 628.236ZM822.802 654.602C822.453 654.42 822.065 654.326 821.672 654.326C821.278 654.326 820.891 654.42 820.542 654.602L806.417 662.794C805.852 662.794 805.852 663.642 806.417 664.018L822.802 673.435C823.134 673.616 823.506 673.711 823.885 673.711C824.263 673.711 824.635 673.616 824.968 673.435L839.092 665.243C839.751 665.243 839.657 664.395 839.092 664.018L822.802 654.602ZM543.511 809.031L557.635 800.933C558.295 800.933 558.2 799.991 557.635 799.615L541.345 790.198C540.996 790.017 540.608 789.922 540.215 789.922C539.822 789.922 539.434 790.017 539.085 790.198L525.055 798.297C524.395 798.297 524.49 799.238 525.055 799.615L541.439 809.031C541.771 809.212 542.144 809.308 542.522 809.308C542.9 809.308 543.273 809.212 543.605 809.031H543.511ZM781.652 678.425C781.303 678.244 780.916 678.149 780.522 678.149C780.129 678.149 779.741 678.244 779.392 678.425L765.362 686.523C764.702 686.523 764.797 687.465 765.362 687.842L781.746 697.258C782.101 697.42 782.486 697.503 782.876 697.503C783.266 697.503 783.651 697.42 784.006 697.258L798.037 689.066C798.696 689.066 798.602 688.124 798.037 687.748L781.652 678.425ZM889.093 616.466C888.739 616.304 888.353 616.221 887.963 616.221C887.574 616.221 887.188 616.304 886.833 616.466L872.709 624.658C872.144 624.658 872.144 625.599 872.709 625.976L888.999 635.392C889.346 635.582 889.734 635.681 890.129 635.681C890.524 635.681 890.913 635.582 891.259 635.392L905.384 627.294C905.949 627.294 905.949 626.353 905.384 625.976L889.093 616.466ZM926.006 613.923L886.457 591.041C886.102 590.88 885.717 590.796 885.327 590.796C884.937 590.796 884.552 590.88 884.197 591.041L870.072 599.139C869.413 599.139 869.507 600.081 870.072 600.458L909.621 623.339C909.976 623.501 910.361 623.584 910.751 623.584C911.141 623.584 911.526 623.501 911.881 623.339L926.006 615.147C926.665 614.77 926.665 614.206 926.006 613.829V613.923ZM704.626 722.871C704.271 722.71 703.885 722.626 703.496 722.626C703.106 722.626 702.721 722.71 702.366 722.871L685.04 732.947C684.475 732.947 684.475 733.888 685.04 734.265L701.33 743.681C701.679 743.863 702.067 743.958 702.46 743.958C702.853 743.958 703.241 743.863 703.59 743.681L720.916 733.7C721.575 733.7 721.481 732.758 720.916 732.382L704.626 722.871ZM756.699 692.738C756.35 692.557 755.962 692.462 755.568 692.462C755.175 692.462 754.787 692.557 754.438 692.738L732.781 705.262C732.216 705.262 732.216 706.204 732.781 706.58L749.071 715.997C749.42 716.178 749.808 716.273 750.201 716.273C750.595 716.273 750.982 716.178 751.331 715.997L772.989 703.473C773.648 703.473 773.554 702.531 772.989 702.155L756.699 692.738ZM656.885 750.367C656.53 750.206 656.144 750.122 655.755 750.122C655.365 750.122 654.98 750.206 654.625 750.367L538.52 817.412C537.955 817.412 537.955 818.353 538.52 818.73L554.811 828.146C555.157 828.336 555.546 828.436 555.94 828.436C556.335 828.436 556.724 828.336 557.07 828.146L673.175 761.102C673.834 761.102 673.74 760.16 673.175 759.783L656.885 750.367ZM534.471 821.178C534.125 820.989 533.736 820.889 533.341 820.889C532.946 820.889 532.558 820.989 532.211 821.178L514.414 831.16C513.755 831.16 513.849 832.101 514.414 832.478L530.705 841.894C531.051 842.084 531.44 842.183 531.834 842.183C532.229 842.183 532.618 842.084 532.964 841.894L550.291 831.913C550.856 831.913 550.856 830.972 550.291 830.595L534.471 821.178ZM680.991 736.431C680.644 736.241 680.256 736.142 679.861 736.142C679.466 736.142 679.077 736.241 678.731 736.431L661.31 746.412C660.745 746.412 660.745 747.354 661.31 747.73L677.6 757.147C677.947 757.336 678.336 757.436 678.731 757.436C679.126 757.436 679.514 757.336 679.861 757.147L697.281 747.165C697.846 747.165 697.846 746.224 697.281 745.847L680.991 736.431ZM510.648 834.832C510.299 834.65 509.911 834.556 509.518 834.556C509.124 834.556 508.736 834.65 508.387 834.832L490.967 844.908C490.402 844.908 490.402 845.755 490.967 846.132L507.257 855.548C507.606 855.73 507.994 855.825 508.387 855.825C508.781 855.825 509.169 855.73 509.518 855.548L526.938 845.473C527.503 845.473 527.503 844.625 526.938 844.248L510.648 834.832ZM728.732 708.841C728.385 708.651 727.997 708.552 727.602 708.552C727.207 708.552 726.818 708.651 726.472 708.841L709.052 718.822C708.487 718.822 708.487 719.763 709.052 720.14L725.342 729.557C725.697 729.718 726.082 729.801 726.472 729.801C726.861 729.801 727.247 729.718 727.602 729.557L745.022 719.481C745.587 719.481 745.587 718.539 745.022 718.163L728.732 708.841ZM802.462 666.278C802.116 666.089 801.727 665.989 801.332 665.989C800.937 665.989 800.549 666.089 800.202 666.278L786.172 674.377C785.513 674.377 785.607 675.318 786.172 675.695L802.557 685.111C802.889 685.292 803.261 685.388 803.639 685.388C804.018 685.388 804.39 685.292 804.722 685.111L818.847 677.013C819.506 677.013 819.412 676.071 818.847 675.695L802.462 666.278ZM847.661 633.509L861.786 625.317C862.351 625.317 862.351 624.375 861.786 623.999L845.495 614.582C845.149 614.393 844.76 614.293 844.365 614.293C843.97 614.293 843.582 614.393 843.235 614.582L829.111 622.68C828.546 622.68 828.546 623.622 829.111 623.999L845.401 633.415C845.711 633.596 846.053 633.714 846.409 633.762C846.764 633.811 847.126 633.789 847.473 633.698L847.661 633.509ZM755.474 632.85L769.599 624.752C770.164 624.752 770.164 623.81 769.599 623.434L753.309 614.017C752.962 613.828 752.574 613.728 752.179 613.728C751.784 613.728 751.395 613.828 751.049 614.017L736.924 622.115C736.359 622.115 736.359 623.057 736.924 623.434L753.214 632.85C753.522 633.038 753.869 633.153 754.228 633.185C754.588 633.218 754.949 633.168 755.286 633.038L755.474 632.85ZM708.392 713.643L749.636 689.819C750.201 689.819 750.201 688.972 749.636 688.595L733.346 679.179C732.997 678.997 732.609 678.903 732.216 678.903C731.822 678.903 731.435 678.997 731.086 679.179L689.842 703.002C689.277 703.002 689.277 703.944 689.842 704.321L706.132 713.737C706.492 713.976 706.911 714.111 707.343 714.128C707.775 714.144 708.203 714.042 708.581 713.831L708.392 713.643ZM824.403 645.374C824.758 645.535 825.143 645.619 825.533 645.619C825.922 645.619 826.308 645.535 826.663 645.374L840.787 637.276C841.352 637.276 841.352 636.334 840.787 635.957L824.497 626.541C824.142 626.38 823.757 626.296 823.367 626.296C822.977 626.296 822.592 626.38 822.237 626.541L808.112 634.733C807.547 634.733 807.547 635.675 808.112 636.052L824.403 645.374ZM803.404 631.908L817.434 623.81C818.093 623.81 817.999 622.869 817.434 622.492L801.144 613.076C800.789 612.914 800.404 612.831 800.014 612.831C799.624 612.831 799.239 612.914 798.884 613.076L784.854 621.268C784.194 621.268 784.289 622.21 784.854 622.586L801.238 632.003C801.588 632.224 801.989 632.349 802.402 632.365C802.816 632.382 803.226 632.289 803.592 632.097L803.404 631.908ZM687.959 725.508L702.083 717.315C702.648 717.315 702.648 716.374 702.083 715.997L685.793 706.58C685.447 706.391 685.058 706.292 684.663 706.292C684.268 706.292 683.879 706.391 683.533 706.58L669.408 714.679C668.843 714.679 668.843 715.62 669.408 715.997L685.699 725.413C686.047 725.59 686.429 725.689 686.819 725.706C687.208 725.722 687.597 725.654 687.959 725.508ZM779.015 671.551C779.362 671.741 779.75 671.84 780.145 671.84C780.54 671.84 780.929 671.741 781.275 671.551L795.4 663.453C795.965 663.453 795.965 662.512 795.4 662.135L779.109 652.719C778.763 652.529 778.374 652.43 777.98 652.43C777.585 652.43 777.196 652.529 776.85 652.719L762.725 660.817C762.16 660.817 762.16 661.758 762.725 662.135L779.015 671.551ZM584.849 785.019L598.974 776.827C599.633 776.827 599.539 775.885 598.974 775.509L582.683 766.092C582.334 765.911 581.947 765.816 581.553 765.816C581.16 765.816 580.772 765.911 580.423 766.092L566.299 774.191C565.734 774.191 565.734 775.132 566.299 775.509L582.589 784.925C582.916 785.148 583.287 785.297 583.677 785.362C584.068 785.427 584.467 785.407 584.849 785.302V785.019ZM605.471 773.06L619.596 764.962C620.161 764.962 620.161 764.021 619.596 763.644L603.305 754.228C602.95 754.066 602.565 753.983 602.175 753.983C601.785 753.983 601.4 754.066 601.045 754.228L586.921 762.42C586.356 762.42 586.356 763.362 586.921 763.738L603.211 773.155C603.541 773.374 603.922 773.506 604.317 773.539C604.712 773.572 605.109 773.504 605.471 773.343V773.06ZM564.227 796.884L578.352 788.692C579.011 788.692 578.917 787.844 578.352 787.467L562.061 778.051C561.706 777.89 561.321 777.807 560.931 777.807C560.541 777.807 560.156 777.89 559.801 778.051L545.677 786.244C545.112 786.244 545.112 787.185 545.677 787.467L562.061 796.884C562.378 797.089 562.737 797.221 563.112 797.27C563.487 797.319 563.868 797.283 564.227 797.166V796.884ZM646.715 749.237L660.839 741.139C661.404 741.139 661.404 740.197 660.839 739.82L644.549 730.404C644.203 730.214 643.814 730.115 643.419 730.115C643.024 730.115 642.635 730.214 642.289 730.404L628.164 738.502C627.599 738.502 627.599 739.444 628.164 739.82L644.455 749.237C644.777 749.471 645.153 749.62 645.548 749.67C645.943 749.719 646.345 749.667 646.715 749.519V749.237ZM626.093 761.196L640.217 753.004C640.782 753.004 640.782 752.062 640.217 751.685L623.927 742.269C623.572 742.107 623.187 742.024 622.797 742.024C622.407 742.024 622.022 742.107 621.667 742.269L607.543 750.367C606.978 750.367 606.978 751.309 607.543 751.685L623.833 761.102C624.16 761.324 624.531 761.473 624.921 761.538C625.312 761.603 625.711 761.583 626.093 761.478V761.196ZM667.337 737.372L681.461 729.18C682.026 729.18 682.026 728.333 681.461 727.956L665.171 718.54C664.822 718.358 664.434 718.263 664.041 718.263C663.648 718.263 663.26 718.358 662.911 718.54L648.786 726.732C648.221 726.732 648.221 727.673 648.786 727.956L665.077 737.372C665.402 737.599 665.778 737.743 666.172 737.792C666.566 737.841 666.965 737.794 667.337 737.655V737.372ZM761.501 561.285C761.856 561.447 762.241 561.53 762.631 561.53C763.021 561.53 763.406 561.447 763.761 561.285L777.791 553.093C778.45 553.093 778.356 552.151 777.791 551.775L773.366 549.326C773.033 549.145 772.661 549.05 772.283 549.05C771.904 549.05 771.532 549.145 771.2 549.326L757.075 557.519C756.416 557.519 756.51 558.366 757.075 558.743L761.501 561.285ZM660.086 627.2C660.418 627.381 660.79 627.477 661.169 627.477C661.547 627.477 661.92 627.381 662.252 627.2L676.377 619.008C677.036 619.008 676.942 618.066 676.377 617.784L660.086 608.367C659.737 608.186 659.35 608.091 658.956 608.091C658.563 608.091 658.175 608.186 657.826 608.367L643.702 616.56C643.137 616.56 643.137 617.407 643.702 617.784L660.086 627.2ZM701.236 603.471C701.591 603.632 701.976 603.715 702.366 603.715C702.755 603.715 703.141 603.632 703.496 603.471L717.62 595.373C718.185 595.373 718.185 594.431 717.62 594.054L701.33 584.638C700.975 584.477 700.59 584.393 700.2 584.393C699.81 584.393 699.425 584.477 699.07 584.638L684.945 592.83C684.38 592.83 684.38 593.772 684.945 594.148L701.236 603.471ZM634.85 641.795C635.197 641.985 635.585 642.085 635.98 642.085C636.375 642.085 636.763 641.985 637.11 641.795L651.235 633.698C651.8 633.698 651.8 632.756 651.235 632.379L634.944 622.963C634.589 622.801 634.204 622.718 633.814 622.718C633.424 622.718 633.039 622.801 632.684 622.963L618.56 631.155C617.995 631.155 617.995 632.097 618.56 632.473L634.85 641.795ZM680.614 615.335C680.96 615.525 681.349 615.624 681.744 615.624C682.139 615.624 682.527 615.525 682.874 615.335L696.999 607.237C697.658 607.237 697.564 606.296 696.999 605.919L680.708 596.503C680.359 596.321 679.971 596.226 679.578 596.226C679.185 596.226 678.797 596.321 678.448 596.503L664.324 604.601C663.759 604.601 663.759 605.542 664.324 605.919L680.614 615.335ZM593.606 665.525C593.955 665.707 594.343 665.801 594.736 665.801C595.129 665.801 595.517 665.707 595.866 665.525L609.991 657.427C610.556 657.427 610.556 656.485 609.991 656.109L593.7 646.692C593.346 646.531 592.96 646.447 592.57 646.447C592.18 646.447 591.795 646.531 591.44 646.692L577.316 654.884C576.751 654.884 576.751 655.826 577.316 656.109L593.606 665.525ZM614.228 653.66C614.583 653.822 614.968 653.905 615.358 653.905C615.748 653.905 616.133 653.822 616.488 653.66L630.613 645.468C631.178 645.468 631.178 644.526 630.613 644.15L614.322 634.733C613.976 634.544 613.587 634.444 613.192 634.444C612.797 634.444 612.409 634.544 612.062 634.733L597.938 642.831C597.373 642.831 597.373 643.773 597.938 644.15L614.228 653.66ZM720.257 585.58C720.603 585.769 720.992 585.869 721.387 585.869C721.782 585.869 722.17 585.769 722.517 585.58L736.642 577.481C737.207 577.481 737.207 576.54 736.642 576.163L732.31 573.621C731.964 573.431 731.575 573.332 731.18 573.332C730.785 573.332 730.396 573.431 730.05 573.621L715.925 581.719C715.36 581.719 715.36 582.66 715.925 583.037L720.257 585.58ZM782.123 549.891C782.472 550.073 782.859 550.168 783.253 550.168C783.646 550.168 784.034 550.073 784.383 549.891L798.413 541.793C799.072 541.793 798.978 540.852 798.413 540.475L793.988 537.932C793.655 537.751 793.283 537.656 792.905 537.656C792.526 537.656 792.154 537.751 791.822 537.932L777.697 546.031C777.038 546.031 777.132 546.972 777.697 547.349L782.123 549.891ZM816.399 569.666C816.731 569.847 817.103 569.942 817.481 569.942C817.86 569.942 818.232 569.847 818.564 569.666L832.689 561.568C833.348 561.568 833.254 560.626 832.689 560.25L816.399 550.833C816.044 550.672 815.659 550.588 815.269 550.588C814.879 550.588 814.493 550.672 814.139 550.833L800.014 559.025C799.449 559.025 799.449 559.967 800.014 560.344L816.399 569.666ZM867.906 621.927L882.031 613.829C882.596 613.829 882.596 612.887 882.031 612.511L865.741 603.094C865.386 602.933 865 602.849 864.611 602.849C864.221 602.849 863.836 602.933 863.481 603.094L849.356 611.286C848.791 611.286 848.791 612.228 849.356 612.605L865.646 622.021C866.024 622.232 866.452 622.334 866.884 622.318C867.316 622.301 867.735 622.166 868.095 621.927H867.906ZM740.879 573.621C741.228 573.802 741.616 573.897 742.009 573.897C742.402 573.897 742.79 573.802 743.139 573.621L757.264 565.428C757.829 565.428 757.734 564.581 757.264 564.204L752.932 561.662C752.585 561.472 752.197 561.373 751.802 561.373C751.407 561.373 751.018 561.472 750.672 561.662L736.547 569.76C735.888 569.76 735.982 570.702 736.547 571.078L740.879 573.621ZM572.984 677.201C573.331 677.391 573.719 677.49 574.114 677.49C574.509 677.49 574.898 677.391 575.244 677.201L589.745 669.009C590.31 669.009 590.31 668.067 589.745 667.691L573.455 658.274C573.108 658.085 572.72 657.985 572.325 657.985C571.93 657.985 571.541 658.085 571.195 658.274L557.07 666.372C556.505 666.372 556.505 667.314 557.07 667.691L572.984 677.201Z" fill="#455A64"/>
<path d="M665.074 800.837L804.343 720.515C806.688 719.309 809.287 718.68 811.923 718.68C814.56 718.68 817.159 719.309 819.504 720.515L899.355 766.561C900.275 766.867 901.075 767.454 901.642 768.24C902.209 769.026 902.514 769.971 902.514 770.94C902.514 771.909 902.209 772.853 901.642 773.639C901.075 774.425 900.275 775.013 899.355 775.318L759.239 855.923C756.881 857.086 754.287 857.691 751.658 857.691C749.03 857.691 746.436 857.086 744.078 855.923L665.074 810.253C663.826 810.253 662.628 809.757 661.745 808.874C660.862 807.991 660.366 806.794 660.366 805.545C660.366 804.296 660.862 803.099 661.745 802.216C662.628 801.333 663.826 800.837 665.074 800.837Z" fill="#263238"/>
</svg>
