<svg width="1027" height="1000" viewBox="0 0 1027 1000" fill="none" xmlns="http://www.w3.org/2000/svg">
<path d="M387.732 431.399C336.92 460.739 295.761 532.067 295.761 590.684C295.761 649.301 336.92 673.098 387.732 643.789C438.544 614.481 479.703 543.121 479.703 484.504C479.703 425.887 438.512 402.058 387.732 431.399ZM379.959 598.234C373.692 602.186 366.522 604.477 359.124 604.892C341.284 604.892 339.341 583.835 339.341 574.787C339.341 539.426 365.209 494.667 395.824 476.986C402.075 473.025 409.237 470.733 416.626 470.328C434.498 470.328 436.41 491.385 436.41 500.433C436.25 535.762 410.414 580.553 379.959 598.234Z" fill="#455A64"/>
<path d="M419.016 470.518C418.171 470.403 417.32 470.34 416.467 470.327C411.992 470.48 407.585 471.463 403.469 473.226C403.876 476.086 404.078 478.971 404.075 481.859C404.075 517.189 378.207 561.98 347.592 579.629C345.091 581.081 342.482 582.338 339.787 583.388C340.373 588.71 342.254 593.807 345.267 598.233C346.832 600.378 348.899 602.106 351.287 603.267C353.675 604.428 356.312 604.985 358.965 604.891C366.365 604.492 373.539 602.199 379.8 598.233C410.414 580.552 436.25 535.761 436.25 500.432C436.25 491.831 434.498 472.43 419.016 470.518Z" fill="#263238"/>
<path d="M452.625 424.9L407.006 398.554C390.281 388.774 367.216 390.112 341.731 404.702C290.759 434.043 249.759 505.37 249.759 563.987C249.759 592.977 259.826 613.398 276.137 623.146L276.583 623.465H276.838L321.82 649.428H322.043C314.215 644.551 307.939 637.545 303.948 629.231C300.45 622.075 298.117 614.407 297.035 606.517C296.205 601.162 295.779 595.752 295.761 590.333C295.761 531.684 336.92 460.356 387.732 431.048C392.432 428.353 397.331 426.021 402.386 424.071C409.763 421.066 417.569 419.249 425.515 418.687C434.94 417.946 444.377 419.984 452.657 424.549L452.625 424.9Z" fill="#37474F"/>
<path d="M378.685 203.015L335.773 178.23L271.135 215.535L121.121 748.28L164.064 773.065L227.81 736.238L378.685 203.015Z" fill="#37474F"/>
<path d="M227.809 736.238L164.063 773.065L314.301 240.192L378.684 203.015L227.809 736.238Z" fill="#455A64"/>
<path d="M164.064 773.065L314.302 240.193L271.135 215.535L121.121 748.28L164.064 773.065Z" fill="#263238"/>
<path d="M137.845 345.544C87.0652 374.884 45.874 446.212 45.874 504.829C45.874 563.446 87.1289 587.275 137.845 557.966C188.562 528.658 229.817 457.298 229.817 398.681C229.817 340.064 188.817 316.235 137.845 345.544ZM130.008 512.379C123.744 516.336 116.572 518.628 109.174 519.037C91.3022 519.037 89.3907 497.98 89.3907 488.932C89.3907 453.603 115.227 408.812 145.841 391.131C152.102 387.165 159.276 384.873 166.676 384.473C184.516 384.473 186.459 405.531 186.459 414.578C186.459 449.907 160.591 494.698 130.008 512.379Z" fill="#455A64"/>
<path d="M169.225 384.664C168.38 384.55 167.529 384.486 166.676 384.473C162.188 384.625 157.768 385.619 153.647 387.404C154.053 390.253 154.255 393.127 154.252 396.005C154.252 431.334 128.416 476.125 97.8013 493.774C95.3173 495.217 92.7298 496.473 90.0601 497.533C90.641 502.871 92.5344 507.982 95.5713 512.411C97.1403 514.549 99.209 516.271 101.597 517.427C103.985 518.582 106.619 519.134 109.27 519.037C116.668 518.627 123.84 516.336 130.104 512.379C160.687 494.698 186.555 449.907 186.555 414.578C186.459 405.976 184.675 386.575 169.225 384.664Z" fill="#263238"/>
<path d="M202.834 339.045L157.214 312.699C140.553 302.983 117.489 304.321 92.0031 319.07C41.0319 348.379 0 419.707 0 478.356C0 507.345 10.0987 527.766 26.3776 537.514L26.8236 537.833H27.0785L71.9969 563.987H72.2518C64.4159 559.125 58.1281 552.13 54.1251 543.822C50.6316 536.653 48.2982 528.976 47.2121 521.076C46.3803 515.721 45.9543 510.311 45.9379 504.892C45.9379 446.244 87.129 374.916 137.909 345.607C142.616 342.925 147.514 340.593 152.563 338.631C159.951 335.625 167.768 333.808 175.723 333.247C185.139 332.508 194.565 334.546 202.834 339.108V339.045Z" fill="#37474F"/>
<path d="M856.062 938.754L886.166 995.619C910.132 991.822 933.235 983.808 954.404 971.949L881.611 955.607C874.188 959.844 865.396 937.13 856.062 938.754Z" fill="#5F2EE9"/>
<path opacity="0.2" d="M856.062 938.754L886.166 995.619C910.132 991.822 933.235 983.808 954.404 971.949L881.611 955.607C874.188 959.844 865.396 937.13 856.062 938.754Z" fill="black"/>
<path d="M794.355 905.145C808.913 896.735 828.856 893.454 847.715 895.174L863.803 802.789L847.715 774.117L764.696 785.012L675.496 915.626L678.268 919.608L776.578 926.744C778.171 918.844 783.906 911.23 794.355 905.145Z" fill="#2A00A3"/>
<path opacity="0.4" d="M794.355 905.145C808.913 896.735 828.856 893.454 847.715 895.174L863.803 802.789L847.715 774.117L764.696 785.012L675.496 915.626L678.268 919.608L776.578 926.744C778.171 918.844 783.906 911.23 794.355 905.145Z" fill="#391C8C"/>
<path d="M863.803 739.998V723.688L847.715 782.241L847.747 798.552L863.803 739.998Z" fill="#300B9A"/>
<path d="M794.355 792.212C808.913 783.834 828.856 780.521 847.715 782.241L863.803 723.688C774.03 715.5 689.736 750.83 675.528 802.661C675.114 804.127 674.668 806.134 674.413 807.599L776.611 813.811C778.172 805.911 783.906 798.265 794.355 792.212Z" fill="#5F2EE9"/>
<path d="M776.611 880.424V813.811L674.413 807.599V874.212L776.611 880.424Z" fill="#4C25BA"/>
<path d="M881.707 808.523C894.067 815.691 900.056 825.088 899.706 834.454L1002.57 835.506C1004.04 787.561 945.835 747.517 863.803 739.935L847.715 798.488C859.627 799.395 871.212 802.815 881.707 808.523Z" fill="#5F2EE9"/>
<path opacity="0.8" d="M881.707 808.523C894.067 815.691 900.056 825.088 899.706 834.454L1002.57 835.506C1004.04 787.561 945.835 747.517 863.803 739.935L847.715 798.488C859.627 799.395 871.212 802.815 881.707 808.523Z" fill="white"/>
<path d="M899.706 834.454V905.4L1002.57 906.451V835.505L899.706 834.454Z" fill="#5F2EE9"/>
<path opacity="0.6" d="M899.706 834.454V905.4L1002.57 906.451V835.505L899.706 834.454Z" fill="white"/>
<path d="M899.738 834.455V904.859C899.738 895.748 893.749 886.605 881.707 879.628C872.15 874.085 860.171 896.48 847.747 895.333V798.552C875.845 800.941 900.247 815.117 899.738 834.455Z" fill="#5F2EE9"/>
<path opacity="0.6" d="M899.738 834.455V904.859C899.738 895.748 893.749 886.605 881.707 879.628C872.15 874.085 860.171 896.48 847.747 895.333V798.552C875.845 800.941 900.247 815.117 899.738 834.455Z" fill="white"/>
<path d="M899.77 866.057H776.292V949.076H899.77V866.057Z" fill="#E0E0E0"/>
<path d="M794.355 891.702C770.239 877.78 770.239 855.194 794.355 841.272C818.471 827.351 857.591 827.351 881.707 841.272C905.823 855.194 905.791 877.78 881.707 891.702C857.623 905.623 818.471 905.623 794.355 891.702Z" fill="#FAFAFA"/>
<path d="M899.706 905.4C899.388 914.289 893.335 948.79 881.707 955.543L954.5 971.886C986.357 953.536 1001.9 932.351 1002.67 906.388L899.706 905.4Z" fill="#37474F"/>
<path d="M1002.57 851.052V906.451L954.404 971.949V916.582L1002.57 851.052Z" fill="#37474F"/>
<path d="M899.706 850C899.388 858.888 893.335 867.713 881.707 874.498L954.5 916.517C986.357 898.168 1001.9 876.983 1002.67 851.019L899.706 850Z" fill="#455A64"/>
<path d="M954.405 916.582V971.95L881.611 929.93L881.707 874.499L954.405 916.582Z" fill="#263238"/>
<path d="M954.405 934.071L886.167 957.741V995.619L954.405 971.949V934.071Z" fill="#5F2EE9"/>
<path opacity="0.2" d="M954.405 934.071L886.167 957.741V995.619L954.405 971.949V934.071Z" fill="black"/>
<path d="M856.062 900.876L886.166 957.741C910.132 953.944 933.235 945.93 954.404 934.071L881.611 892.115C873.658 896.476 865.016 899.439 856.062 900.876Z" fill="#5F2EE9"/>
<path d="M856.03 900.876V918.143L886.167 995.619V957.741L856.03 900.876Z" fill="#5F2EE9"/>
<path opacity="0.4" d="M856.03 900.876V918.143L886.167 995.619V957.741L856.03 900.876Z" fill="black"/>
<path d="M808.913 949.458C795.279 941.557 774.795 937.129 776.611 926.839L673.489 877.365C673.489 877.365 673.489 901.895 673.489 905.304C673.712 953.089 736.471 994.281 820.86 999.378C842.695 1000.88 864.633 999.66 886.167 995.746V967.999C865.046 971.567 825.607 959.015 808.913 949.458Z" fill="#5F2EE9"/>
<path opacity="0.5" d="M808.913 949.458C795.279 941.557 774.795 937.129 776.611 926.839L673.489 877.365C673.489 877.365 673.489 901.895 673.489 905.304C673.712 953.089 736.471 994.281 820.86 999.378C842.695 1000.88 864.633 999.66 886.167 995.746V967.999C865.046 971.567 825.607 959.015 808.913 949.458Z" fill="black"/>
<path d="M794.355 902.119C780.72 894.25 774.794 883.578 776.61 873.288L674.413 867.076C664.856 919.258 730.481 966.024 820.955 971.504C842.791 972.99 864.726 971.77 886.262 967.872L856.157 911.007C834.94 914.702 811.048 911.772 794.355 902.119Z" fill="#5F2EE9"/>
<path opacity="0.3" d="M794.355 902.119C780.72 894.25 774.794 883.578 776.61 873.288L674.413 867.076C664.856 919.258 730.481 966.024 820.955 971.504C842.791 972.99 864.726 971.77 886.262 967.872L856.157 911.007C834.94 914.702 811.048 911.772 794.355 902.119Z" fill="black"/>
<path d="M421.373 758.315C424.032 738.568 422.864 718.494 417.932 699.189C412.644 678.131 402.004 663.477 389.42 655.768C376.837 648.058 353.932 656.15 372.218 680.775C390.504 705.401 409.076 736.748 411.051 760.418L421.373 758.315Z" fill="#37474F"/>
<path d="M417.837 760.609C417.628 760.605 417.421 760.56 417.23 760.476C417.038 760.392 416.865 760.271 416.72 760.12C416.575 759.969 416.461 759.792 416.385 759.597C416.309 759.402 416.272 759.194 416.276 758.985C417.168 715.436 396.747 671.633 378.047 661.566C377.671 661.367 377.39 661.027 377.264 660.621C377.139 660.215 377.18 659.775 377.378 659.4C377.577 659.024 377.917 658.742 378.323 658.616C378.729 658.491 379.169 658.532 379.545 658.73C399.2 669.243 420.513 714.385 419.589 759.048C419.591 759.27 419.545 759.49 419.455 759.693C419.365 759.896 419.232 760.078 419.066 760.226C418.901 760.373 418.705 760.484 418.493 760.55C418.281 760.616 418.057 760.636 417.837 760.609Z" fill="white"/>
<path d="M422.934 835.346C402.864 847.005 380.054 836.301 376.104 813.906C374.734 806.101 373.364 797.977 366.133 793.549C360.08 789.79 351.925 789.312 346.732 784.279C339.341 777.079 343.546 767.809 348.197 760.513C352.53 753.887 356.034 746.146 351.957 738.564C349.455 734.586 347.475 730.303 346.063 725.821C345.376 723.584 345.282 721.207 345.791 718.923C346.299 716.639 347.392 714.526 348.962 712.791C352.785 709.16 358.806 709.319 363.935 710.562C372.251 712.786 379.903 716.994 386.235 722.826C390.727 726.681 393.275 730.6 399.742 731.778C404.521 732.638 409.49 731.778 414.205 732.893C417.177 733.698 419.943 735.13 422.316 737.091C424.69 739.053 426.617 741.499 427.967 744.266C432.65 753.409 431.153 764.05 430.42 773.893C429.688 783.737 428.764 792.625 427.617 801.959C426.661 809.86 425.578 817.888 424.431 825.629C424.24 826.84 424.017 834.772 422.934 835.346Z" fill="#455A64"/>
<path d="M424.845 824.323C424.464 824.319 424.097 824.179 423.811 823.927C423.524 823.676 423.338 823.33 423.284 822.953C416.308 772.937 374.193 726.394 358.519 718.398C358.333 718.302 358.167 718.17 358.032 718.01C357.897 717.85 357.795 717.665 357.731 717.465C357.667 717.265 357.644 717.055 357.661 716.846C357.679 716.637 357.738 716.434 357.834 716.248C357.93 716.062 358.062 715.896 358.222 715.761C358.382 715.626 358.568 715.524 358.767 715.46C358.967 715.396 359.177 715.373 359.386 715.39C359.595 715.408 359.798 715.467 359.984 715.563C376.582 724.037 419.206 770.644 426.438 822.539C426.492 822.957 426.379 823.38 426.122 823.714C425.865 824.048 425.486 824.267 425.068 824.323H424.845Z" fill="white"/>
<path d="M362.596 770.166C362.174 770.25 361.735 770.163 361.377 769.924C361.018 769.685 360.769 769.314 360.685 768.891C360.6 768.469 360.687 768.03 360.926 767.672C361.165 767.313 361.537 767.064 361.959 766.98C374.593 762.084 388.197 760.207 401.685 761.5C401.893 761.516 402.096 761.574 402.282 761.67C402.467 761.765 402.632 761.897 402.765 762.058C402.899 762.218 402.999 762.404 403.06 762.603C403.12 762.803 403.14 763.013 403.118 763.221C403.099 763.43 403.037 763.634 402.938 763.82C402.839 764.005 402.704 764.17 402.541 764.303C402.378 764.436 402.191 764.536 401.989 764.596C401.787 764.657 401.576 764.676 401.366 764.654C388.372 763.534 375.294 765.408 363.138 770.134C362.959 770.166 362.777 770.177 362.596 770.166Z" fill="white"/>
<path d="M427.394 847.133C424.562 845.225 422.22 842.675 420.559 839.692C418.899 836.708 417.966 833.374 417.836 829.962V348.538C418.019 345.02 419.032 341.595 420.792 338.544C422.553 335.493 425.012 332.903 427.967 330.985L996.902 2.53905C999.914 0.94462 1003.26 0.0767744 1006.66 0.00486568C1010.07 -0.0670431 1013.45 0.658963 1016.53 2.12489C1019.36 4.00849 1021.7 6.5395 1023.37 9.50868C1025.03 12.4779 1025.96 15.7999 1026.08 19.2003V500.783C1025.9 504.301 1024.89 507.726 1023.13 510.777C1021.37 513.828 1018.91 516.419 1015.95 518.336L447.017 846.782C444.003 848.374 440.656 849.235 437.247 849.296C433.839 849.357 430.463 848.616 427.394 847.133Z" fill="#5F2EE9"/>
<path d="M474.925 369.659L420.768 338.439C418.937 341.464 417.917 344.909 417.805 348.443V829.962C417.708 833.406 418.544 836.812 420.224 839.82C421.905 842.829 424.367 845.327 427.35 847.05C430.334 848.774 433.728 849.659 437.173 849.612C440.618 849.564 443.987 848.587 446.922 846.782L474.829 830.662L474.925 369.659Z" fill="#5F2EE9"/>
<path opacity="0.2" d="M474.925 369.659L420.768 338.439C418.937 341.464 417.917 344.909 417.805 348.443V829.962C417.708 833.406 418.544 836.812 420.224 839.82C421.905 842.829 424.367 845.327 427.35 847.05C430.334 848.774 433.728 849.659 437.173 849.612C440.618 849.564 443.987 848.587 446.922 846.782L474.829 830.662L474.925 369.659Z" fill="black"/>
<path d="M447.018 341.976L1015.89 13.3707C1021.5 10.185 1026.02 12.7654 1026.02 19.2005V500.783C1025.84 504.301 1024.82 507.726 1023.06 510.777C1021.3 513.828 1018.84 516.419 1015.89 518.337L447.018 846.783C441.443 849.968 436.919 847.388 436.919 840.921V359.529C437.098 356.014 438.106 352.591 439.861 349.54C441.616 346.489 444.069 343.897 447.018 341.976Z" fill="#5F2EE9"/>
<g opacity="0.5">
<path d="M447.018 341.976L1015.89 13.3707C1021.5 10.185 1026.02 12.7654 1026.02 19.2005V500.783C1025.84 504.301 1024.82 507.726 1023.06 510.777C1021.3 513.828 1018.84 516.419 1015.89 518.337L447.018 846.783C441.443 849.968 436.919 847.388 436.919 840.921V359.529C437.098 356.014 438.106 352.591 439.861 349.54C441.616 346.489 444.069 343.897 447.018 341.976Z" fill="white"/>
</g>
<path opacity="0.4" d="M493.911 731.906C494.491 697.183 496.926 662.515 501.206 628.052C505.635 590.62 514.714 527.448 550.84 506.613C586.966 485.779 600.505 523.434 605.697 542.006C612.483 566.058 647.781 550.831 652.718 511.137C657.656 471.443 660.81 345.13 703.116 320.695C745.422 296.261 759.121 355.069 763.931 371.475C773.488 403.715 801.204 394.827 810.283 373.451C819.363 352.075 844.052 346.882 853.386 376.923C862.72 406.964 868.518 441.465 898.782 423.753C925.319 408.207 913.118 379.886 939.018 366.41C946.568 362.524 961.604 364.69 964.981 386.862C968.067 410.305 969.419 433.943 969.027 457.585L493.911 731.906Z" fill="white"/>
<path d="M493.912 734.264C493.292 734.255 492.7 734.003 492.265 733.562C491.83 733.121 491.586 732.526 491.586 731.906C492.169 697.067 494.604 662.283 498.881 627.702C502.449 597.533 510.828 526.906 549.661 504.479C561.162 497.852 571.547 496.355 580.563 500.019C592.573 504.893 601.525 518.4 607.96 541.433C609.871 548.187 614.331 551.691 620.48 551.213C632.84 550.257 647.399 534.934 650.393 510.914C651.19 504.542 651.954 495.814 652.814 485.715C657.529 431.144 665.557 339.81 701.97 318.72C713.152 312.349 723.41 310.884 732.521 314.579C752.559 322.703 761.192 353.126 765.302 367.748C765.62 368.927 765.907 369.978 766.194 370.934C769.73 383.008 776.26 390.048 784.575 390.399C793.718 391.004 803.53 383.486 808.117 372.654C813.215 360.644 823.154 353.222 833.093 353.731C843.033 354.241 851.316 362.46 855.616 376.382C856.636 379.567 857.623 382.976 858.579 386.289C863.899 404.352 868.869 421.332 879.127 425.473C884.065 427.417 890.117 426.238 897.604 421.873C910.092 414.546 913.532 404.448 916.909 393.744C920.286 383.04 924.141 371.667 937.935 364.499C940.463 363.257 943.249 362.628 946.065 362.661C948.882 362.694 951.651 363.389 954.15 364.69C958.992 367.143 965.204 372.973 967.275 386.671C970.376 410.252 971.739 434.028 971.353 457.808C971.358 458.118 971.299 458.425 971.179 458.71C971.059 458.995 970.881 459.252 970.656 459.465C970.432 459.678 970.165 459.842 969.874 459.946C969.582 460.05 969.272 460.092 968.964 460.07C968.344 460.053 967.756 459.793 967.326 459.346C966.897 458.899 966.661 458.301 966.67 457.681C967.077 434.177 965.735 410.677 962.656 387.372C960.872 375.617 955.902 370.807 952.048 368.863C950.209 367.901 948.172 367.382 946.097 367.349C944.023 367.316 941.969 367.769 940.101 368.672C927.995 375.044 924.778 384.792 921.369 395.209C917.738 406.264 913.978 417.7 899.961 425.919C891.137 431.048 883.778 432.291 877.406 429.806C865.046 424.9 859.726 406.773 854.087 387.595C853.131 384.41 852.176 381.001 851.156 377.751C847.461 365.837 840.771 358.797 832.87 358.382C824.97 357.968 816.687 364.467 812.418 374.502C807.002 387.245 795.47 395.719 784.288 395.082C778.236 394.731 767.277 391.291 761.702 372.272C761.415 371.348 761.128 370.265 760.778 369.086C756.86 355.197 748.672 326.239 730.737 318.975C723.059 315.789 714.171 317.159 704.295 322.83C669.89 342.709 661.83 436.05 657.497 486.193C656.605 496.323 655.841 505.084 655.044 511.678C651.859 538.088 635.07 554.972 620.83 556.055C612.452 556.692 605.953 551.755 603.468 542.866C597.447 521.49 589.387 509.002 578.779 504.638C571.197 501.452 562.181 502.95 551.987 508.811C515.192 530.06 507.005 599.062 503.532 628.53C499.278 662.899 496.854 697.471 496.269 732.097C496.221 732.689 495.951 733.24 495.514 733.642C495.077 734.044 494.505 734.266 493.912 734.264Z" fill="#F5F5F5"/>
<path d="M561.257 506.167C560.86 506.167 560.479 506.009 560.199 505.728C559.918 505.447 559.76 505.066 559.76 504.669V501.739C559.729 501.526 559.744 501.309 559.804 501.102C559.864 500.896 559.968 500.705 560.108 500.542C560.249 500.379 560.423 500.249 560.618 500.159C560.814 500.07 561.026 500.023 561.241 500.023C561.456 500.023 561.669 500.07 561.864 500.159C562.06 500.249 562.234 500.379 562.375 500.542C562.515 500.705 562.619 500.896 562.679 501.102C562.739 501.309 562.754 501.526 562.723 501.739V504.669C562.723 505.061 562.57 505.437 562.296 505.717C562.022 505.997 561.649 506.158 561.257 506.167Z" fill="#F5F5F5"/>
<path d="M561.257 682.942C561.061 682.942 560.866 682.903 560.684 682.828C560.503 682.753 560.338 682.643 560.199 682.504C560.06 682.364 559.949 682.199 559.874 682.018C559.799 681.836 559.76 681.641 559.76 681.445V675.488C559.812 675.132 559.991 674.807 560.263 674.572C560.535 674.337 560.882 674.208 561.241 674.208C561.601 674.208 561.948 674.337 562.22 674.572C562.492 674.807 562.67 675.132 562.723 675.488V681.381C562.731 681.58 562.7 681.779 562.63 681.966C562.561 682.153 562.455 682.324 562.318 682.47C562.182 682.615 562.018 682.732 561.836 682.813C561.653 682.894 561.457 682.938 561.257 682.942ZM561.257 671.155C560.86 671.155 560.479 670.997 560.199 670.716C559.918 670.436 559.76 670.055 559.76 669.658V663.764C559.812 663.409 559.991 663.084 560.263 662.849C560.535 662.614 560.882 662.485 561.241 662.485C561.601 662.485 561.948 662.614 562.22 662.849C562.492 663.084 562.67 663.409 562.723 663.764V669.658C562.723 670.049 562.57 670.425 562.296 670.705C562.022 670.985 561.649 671.147 561.257 671.155ZM561.257 659.368C561.061 659.368 560.866 659.329 560.684 659.254C560.503 659.179 560.338 659.068 560.199 658.929C560.06 658.79 559.949 658.625 559.874 658.444C559.799 658.262 559.76 658.067 559.76 657.871V652.009C559.729 651.796 559.744 651.579 559.804 651.373C559.864 651.166 559.968 650.975 560.108 650.812C560.249 650.65 560.423 650.519 560.618 650.43C560.814 650.34 561.026 650.294 561.241 650.294C561.456 650.294 561.669 650.34 561.864 650.43C562.06 650.519 562.234 650.65 562.375 650.812C562.515 650.975 562.619 651.166 562.679 651.373C562.739 651.579 562.754 651.796 562.723 652.009V657.871C562.723 658.262 562.57 658.638 562.296 658.918C562.022 659.198 561.649 659.36 561.257 659.368ZM561.257 647.581C560.866 647.581 560.49 647.427 560.21 647.154C559.93 646.88 559.768 646.507 559.76 646.115V640.222C559.729 640.009 559.744 639.792 559.804 639.586C559.864 639.379 559.968 639.188 560.108 639.025C560.249 638.863 560.423 638.732 560.618 638.643C560.814 638.553 561.026 638.507 561.241 638.507C561.456 638.507 561.669 638.553 561.864 638.643C562.06 638.732 562.234 638.863 562.375 639.025C562.515 639.188 562.619 639.379 562.679 639.586C562.739 639.792 562.754 640.009 562.723 640.222V646.115C562.715 646.501 562.558 646.869 562.285 647.143C562.011 647.416 561.643 647.573 561.257 647.581ZM561.257 635.794C560.866 635.794 560.49 635.64 560.21 635.366C559.93 635.092 559.768 634.72 559.76 634.328V628.435C559.729 628.222 559.744 628.005 559.804 627.799C559.864 627.592 559.968 627.401 560.108 627.238C560.249 627.075 560.423 626.945 560.618 626.855C560.814 626.766 561.026 626.72 561.241 626.72C561.456 626.72 561.669 626.766 561.864 626.855C562.06 626.945 562.234 627.075 562.375 627.238C562.515 627.401 562.619 627.592 562.679 627.799C562.739 628.005 562.754 628.222 562.723 628.435V634.328C562.715 634.714 562.558 635.082 562.285 635.355C562.011 635.628 561.643 635.786 561.257 635.794ZM561.257 624.007C560.866 624.007 560.49 623.853 560.21 623.579C559.93 623.305 559.768 622.933 559.76 622.541V616.648C559.729 616.435 559.744 616.218 559.804 616.011C559.864 615.805 559.968 615.614 560.108 615.451C560.249 615.288 560.423 615.158 560.618 615.068C560.814 614.979 561.026 614.933 561.241 614.933C561.456 614.933 561.669 614.979 561.864 615.068C562.06 615.158 562.234 615.288 562.375 615.451C562.515 615.614 562.619 615.805 562.679 616.011C562.739 616.218 562.754 616.435 562.723 616.648V622.541C562.715 622.927 562.558 623.295 562.285 623.568C562.011 623.841 561.643 623.998 561.257 624.007ZM561.257 612.22C560.866 612.22 560.49 612.066 560.21 611.792C559.93 611.518 559.768 611.146 559.76 610.754V604.86C559.729 604.648 559.744 604.431 559.804 604.224C559.864 604.018 559.968 603.827 560.108 603.664C560.249 603.501 560.423 603.371 560.618 603.281C560.814 603.192 561.026 603.145 561.241 603.145C561.456 603.145 561.669 603.192 561.864 603.281C562.06 603.371 562.234 603.501 562.375 603.664C562.515 603.827 562.619 604.018 562.679 604.224C562.739 604.431 562.754 604.648 562.723 604.86V610.754C562.715 611.14 562.558 611.508 562.285 611.781C562.011 612.054 561.643 612.211 561.257 612.22ZM561.257 600.432C561.062 600.437 560.868 600.402 560.687 600.33C560.505 600.258 560.34 600.151 560.2 600.015C560.061 599.878 559.95 599.715 559.875 599.535C559.799 599.355 559.76 599.162 559.76 598.967V593.073C559.729 592.861 559.744 592.644 559.804 592.437C559.864 592.231 559.968 592.04 560.108 591.877C560.249 591.714 560.423 591.584 560.618 591.494C560.814 591.405 561.026 591.358 561.241 591.358C561.456 591.358 561.669 591.405 561.864 591.494C562.06 591.584 562.234 591.714 562.375 591.877C562.515 592.04 562.619 592.231 562.679 592.437C562.739 592.644 562.754 592.861 562.723 593.073V599.031C562.706 599.408 562.545 599.765 562.272 600.026C561.999 600.287 561.635 600.433 561.257 600.432ZM561.257 588.645C561.062 588.65 560.868 588.615 560.687 588.543C560.505 588.471 560.34 588.364 560.2 588.227C560.061 588.091 559.95 587.928 559.875 587.748C559.799 587.568 559.76 587.375 559.76 587.18V581.286C559.729 581.074 559.744 580.857 559.804 580.65C559.864 580.444 559.968 580.253 560.108 580.09C560.249 579.927 560.423 579.796 560.618 579.707C560.814 579.617 561.026 579.571 561.241 579.571C561.456 579.571 561.669 579.617 561.864 579.707C562.06 579.796 562.234 579.927 562.375 580.09C562.515 580.253 562.619 580.444 562.679 580.65C562.739 580.857 562.754 581.074 562.723 581.286V587.18C562.723 587.372 562.685 587.563 562.611 587.741C562.538 587.918 562.43 588.08 562.294 588.216C562.157 588.352 561.996 588.46 561.818 588.534C561.64 588.607 561.45 588.645 561.257 588.645ZM561.257 576.858C561.062 576.862 560.868 576.828 560.687 576.756C560.505 576.684 560.34 576.577 560.2 576.44C560.061 576.304 559.95 576.141 559.875 575.961C559.799 575.781 559.76 575.588 559.76 575.393V569.499C559.812 569.144 559.991 568.819 560.263 568.584C560.535 568.349 560.882 568.22 561.241 568.22C561.601 568.22 561.948 568.349 562.22 568.584C562.492 568.819 562.67 569.144 562.723 569.499V575.393C562.691 575.759 562.522 576.1 562.251 576.347C561.98 576.595 561.625 576.732 561.257 576.731V576.858ZM561.257 565.103C560.86 565.103 560.479 564.945 560.199 564.664C559.918 564.384 559.76 564.003 559.76 563.606V557.616C559.812 557.261 559.991 556.936 560.263 556.701C560.535 556.466 560.882 556.337 561.241 556.337C561.601 556.337 561.948 556.466 562.22 556.701C562.492 556.936 562.67 557.261 562.723 557.616V563.51C562.736 563.712 562.708 563.914 562.64 564.105C562.573 564.296 562.467 564.471 562.33 564.62C562.194 564.769 562.028 564.888 561.843 564.971C561.659 565.054 561.46 565.099 561.257 565.103ZM561.257 553.316C560.86 553.316 560.479 553.158 560.199 552.877C559.918 552.596 559.76 552.216 559.76 551.818V545.925C559.812 545.569 559.991 545.245 560.263 545.01C560.535 544.775 560.882 544.646 561.241 544.646C561.601 544.646 561.948 544.775 562.22 545.01C562.492 545.245 562.67 545.569 562.723 545.925V551.818C562.723 552.21 562.57 552.586 562.296 552.866C562.022 553.146 561.649 553.307 561.257 553.316ZM561.257 541.529C560.86 541.529 560.479 541.371 560.199 541.09C559.918 540.809 559.76 540.429 559.76 540.031V534.138C559.812 533.782 559.991 533.457 560.263 533.223C560.535 532.988 560.882 532.858 561.241 532.858C561.601 532.858 561.948 532.988 562.22 533.223C562.492 533.457 562.67 533.782 562.723 534.138V540.031C562.745 540.238 562.724 540.448 562.66 540.646C562.597 540.844 562.493 541.027 562.355 541.183C562.218 541.339 562.049 541.464 561.86 541.551C561.671 541.638 561.465 541.685 561.257 541.688V541.529ZM561.257 529.742C560.86 529.742 560.479 529.584 560.199 529.303C559.918 529.022 559.76 528.641 559.76 528.244V522.351C559.812 521.995 559.991 521.67 560.263 521.435C560.535 521.201 560.882 521.071 561.241 521.071C561.601 521.071 561.948 521.201 562.22 521.435C562.492 521.67 562.67 521.995 562.723 522.351V528.244C562.723 528.636 562.57 529.012 562.296 529.292C562.022 529.572 561.649 529.733 561.257 529.742ZM561.257 517.954C560.86 517.954 560.479 517.797 560.199 517.516C559.918 517.235 559.76 516.854 559.76 516.457V510.564C559.812 510.208 559.991 509.883 560.263 509.648C560.535 509.413 560.882 509.284 561.241 509.284C561.601 509.284 561.948 509.413 562.22 509.648C562.492 509.883 562.67 510.208 562.723 510.564V516.457C562.723 516.849 562.57 517.225 562.296 517.505C562.022 517.785 561.649 517.946 561.257 517.954Z" fill="#F5F5F5"/>
<path d="M561.257 691.798C561.06 691.798 560.866 691.759 560.684 691.684C560.502 691.609 560.337 691.499 560.198 691.36C560.059 691.22 559.949 691.055 559.874 690.874C559.798 690.692 559.76 690.497 559.76 690.301V687.338C559.812 686.983 559.99 686.658 560.262 686.423C560.534 686.188 560.882 686.059 561.241 686.059C561.6 686.059 561.948 686.188 562.22 686.423C562.492 686.658 562.67 686.983 562.722 687.338V690.301C562.723 690.692 562.569 691.069 562.295 691.348C562.021 691.628 561.649 691.79 561.257 691.798Z" fill="#F5F5F5"/>
<path d="M714.107 321.141C713.721 321.133 713.353 320.976 713.08 320.703C712.807 320.43 712.65 320.062 712.642 319.676V316.713C712.611 316.5 712.626 316.283 712.686 316.077C712.746 315.87 712.85 315.679 712.99 315.517C713.131 315.354 713.305 315.223 713.5 315.134C713.696 315.044 713.908 314.998 714.123 314.998C714.338 314.998 714.551 315.044 714.746 315.134C714.942 315.223 715.116 315.354 715.256 315.517C715.397 315.679 715.501 315.87 715.561 316.077C715.621 316.283 715.636 316.5 715.605 316.713V319.676C715.596 320.067 715.435 320.44 715.155 320.714C714.875 320.988 714.499 321.141 714.107 321.141Z" fill="#F5F5F5"/>
<path d="M714.107 597.469C713.716 597.461 713.343 597.3 713.069 597.02C712.795 596.74 712.642 596.364 712.642 595.972V589.983C712.611 589.77 712.626 589.553 712.686 589.347C712.746 589.14 712.85 588.949 712.99 588.787C713.131 588.624 713.305 588.493 713.5 588.404C713.696 588.314 713.908 588.268 714.123 588.268C714.338 588.268 714.551 588.314 714.746 588.404C714.942 588.493 715.116 588.624 715.256 588.787C715.397 588.949 715.501 589.14 715.561 589.347C715.621 589.553 715.636 589.77 715.605 589.983V595.845C715.622 596.052 715.597 596.26 715.529 596.457C715.462 596.654 715.355 596.834 715.214 596.987C715.073 597.14 714.902 597.262 714.711 597.345C714.521 597.428 714.315 597.47 714.107 597.469ZM714.107 585.459C713.716 585.451 713.343 585.29 713.069 585.01C712.795 584.73 712.642 584.354 712.642 583.962V577.941C712.694 577.586 712.873 577.261 713.145 577.026C713.416 576.791 713.764 576.662 714.123 576.662C714.483 576.662 714.83 576.791 715.102 577.026C715.374 577.261 715.552 577.586 715.605 577.941V583.962C715.605 584.159 715.566 584.353 715.491 584.535C715.415 584.717 715.305 584.882 715.166 585.021C715.027 585.16 714.862 585.27 714.68 585.345C714.499 585.421 714.304 585.459 714.107 585.459ZM714.107 573.417C713.719 573.417 713.346 573.263 713.071 572.988C712.796 572.713 712.642 572.341 712.642 571.952V565.931C712.694 565.575 712.873 565.251 713.145 565.016C713.416 564.781 713.764 564.652 714.123 564.652C714.483 564.652 714.83 564.781 715.102 565.016C715.374 565.251 715.552 565.575 715.605 565.931V571.952C715.623 572.158 715.597 572.365 715.529 572.56C715.462 572.755 715.354 572.933 715.213 573.084C715.071 573.234 714.9 573.353 714.709 573.432C714.519 573.512 714.314 573.55 714.107 573.545V573.417ZM714.107 561.407C713.721 561.399 713.353 561.242 713.08 560.969C712.807 560.696 712.65 560.328 712.642 559.942V553.921C712.694 553.565 712.873 553.24 713.145 553.006C713.416 552.771 713.764 552.641 714.123 552.641C714.483 552.641 714.83 552.771 715.102 553.006C715.374 553.24 715.552 553.565 715.605 553.921V559.942C715.596 560.333 715.435 560.706 715.155 560.98C714.875 561.254 714.499 561.407 714.107 561.407ZM714.107 549.397C713.721 549.389 713.353 549.232 713.08 548.959C712.807 548.686 712.65 548.318 712.642 547.932V541.911C712.694 541.555 712.873 541.23 713.145 540.995C713.416 540.761 713.764 540.631 714.123 540.631C714.483 540.631 714.83 540.761 715.102 540.995C715.374 541.23 715.552 541.555 715.605 541.911V548.059C715.565 548.428 715.39 548.769 715.114 549.016C714.837 549.264 714.478 549.399 714.107 549.397ZM714.107 537.387C713.721 537.379 713.353 537.222 713.08 536.949C712.807 536.676 712.65 536.308 712.642 535.922V529.901C712.694 529.545 712.873 529.22 713.145 528.985C713.416 528.75 713.764 528.621 714.123 528.621C714.483 528.621 714.83 528.75 715.102 528.985C715.374 529.22 715.552 529.545 715.605 529.901V535.922C715.596 536.313 715.435 536.686 715.155 536.96C714.875 537.234 714.499 537.387 714.107 537.387ZM714.107 525.377C713.716 525.369 713.343 525.207 713.069 524.927C712.795 524.647 712.642 524.271 712.642 523.88V517.891C712.611 517.678 712.626 517.461 712.686 517.254C712.746 517.048 712.85 516.857 712.99 516.694C713.131 516.531 713.305 516.401 713.5 516.311C713.696 516.222 713.908 516.175 714.123 516.175C714.338 516.175 714.551 516.222 714.746 516.311C714.942 516.401 715.116 516.531 715.256 516.694C715.397 516.857 715.501 517.048 715.561 517.254C715.621 517.461 715.636 517.678 715.605 517.891V523.88C715.605 524.076 715.566 524.271 715.491 524.453C715.415 524.634 715.305 524.799 715.166 524.938C715.027 525.077 714.862 525.188 714.68 525.263C714.499 525.338 714.304 525.377 714.107 525.377ZM714.107 513.367C713.716 513.359 713.343 513.197 713.069 512.917C712.795 512.637 712.642 512.261 712.642 511.87V505.88C712.611 505.668 712.626 505.451 712.686 505.244C712.746 505.038 712.85 504.847 712.99 504.684C713.131 504.521 713.305 504.391 713.5 504.301C713.696 504.212 713.908 504.165 714.123 504.165C714.338 504.165 714.551 504.212 714.746 504.301C714.942 504.391 715.116 504.521 715.256 504.684C715.397 504.847 715.501 505.038 715.561 505.244C715.621 505.451 715.636 505.668 715.605 505.88V511.87C715.605 512.066 715.566 512.261 715.491 512.443C715.415 512.624 715.305 512.789 715.166 512.928C715.027 513.067 714.862 513.178 714.68 513.253C714.499 513.328 714.304 513.367 714.107 513.367ZM714.107 501.357C713.716 501.348 713.343 501.187 713.069 500.907C712.795 500.627 712.642 500.251 712.642 499.859V493.902C712.611 493.689 712.626 493.472 712.686 493.266C712.746 493.06 712.85 492.868 712.99 492.706C713.131 492.543 713.305 492.412 713.5 492.323C713.696 492.233 713.908 492.187 714.123 492.187C714.338 492.187 714.551 492.233 714.746 492.323C714.942 492.412 715.116 492.543 715.256 492.706C715.397 492.868 715.501 493.06 715.561 493.266C715.621 493.472 715.636 493.689 715.605 493.902V499.891C715.596 500.283 715.435 500.656 715.155 500.93C714.875 501.203 714.499 501.357 714.107 501.357ZM714.107 489.347C713.716 489.338 713.343 489.177 713.069 488.897C712.795 488.617 712.642 488.241 712.642 487.849V481.86C712.611 481.648 712.626 481.431 712.686 481.224C712.746 481.018 712.85 480.826 712.99 480.664C713.131 480.501 713.305 480.37 713.5 480.281C713.696 480.191 713.908 480.145 714.123 480.145C714.338 480.145 714.551 480.191 714.746 480.281C714.942 480.37 715.116 480.501 715.256 480.664C715.397 480.826 715.501 481.018 715.561 481.224C715.621 481.431 715.636 481.648 715.605 481.86V487.849C715.605 488.046 715.566 488.241 715.491 488.422C715.415 488.604 715.305 488.769 715.166 488.908C715.027 489.047 714.862 489.157 714.68 489.233C714.499 489.308 714.304 489.347 714.107 489.347ZM714.107 477.337C713.716 477.328 713.343 477.167 713.069 476.887C712.795 476.607 712.642 476.231 712.642 475.839V469.85C712.611 469.637 712.626 469.42 712.686 469.214C712.746 469.007 712.85 468.816 712.99 468.654C713.131 468.491 713.305 468.36 713.5 468.271C713.696 468.181 713.908 468.135 714.123 468.135C714.338 468.135 714.551 468.181 714.746 468.271C714.942 468.36 715.116 468.491 715.256 468.654C715.397 468.816 715.501 469.007 715.561 469.214C715.621 469.42 715.636 469.637 715.605 469.85V475.839C715.605 476.036 715.566 476.231 715.491 476.412C715.415 476.594 715.305 476.759 715.166 476.898C715.027 477.037 714.862 477.147 714.68 477.223C714.499 477.298 714.304 477.337 714.107 477.337ZM714.107 465.295C713.719 465.295 713.346 465.14 713.071 464.865C712.796 464.591 712.642 464.218 712.642 463.829V457.808C712.694 457.453 712.873 457.128 713.145 456.893C713.416 456.658 713.764 456.529 714.123 456.529C714.483 456.529 714.83 456.658 715.102 456.893C715.374 457.128 715.552 457.453 715.605 457.808V463.829C715.588 464.212 715.422 464.574 715.142 464.836C714.862 465.098 714.491 465.24 714.107 465.231V465.295ZM714.107 453.284C713.719 453.284 713.346 453.13 713.071 452.855C712.796 452.58 712.642 452.208 712.642 451.819V445.798C712.694 445.443 712.873 445.118 713.145 444.883C713.416 444.648 713.764 444.519 714.123 444.519C714.483 444.519 714.83 444.648 715.102 444.883C715.374 445.118 715.552 445.443 715.605 445.798V451.819C715.605 452.014 715.566 452.207 715.49 452.387C715.415 452.567 715.304 452.73 715.164 452.867C715.025 453.003 714.859 453.11 714.678 453.182C714.496 453.254 714.302 453.289 714.107 453.284ZM714.107 441.274C713.721 441.266 713.353 441.109 713.08 440.836C712.807 440.563 712.65 440.195 712.642 439.809V433.788C712.694 433.432 712.873 433.108 713.145 432.873C713.416 432.638 713.764 432.509 714.123 432.509C714.483 432.509 714.83 432.638 715.102 432.873C715.374 433.108 715.552 433.432 715.605 433.788V439.745C715.609 439.945 715.573 440.143 715.5 440.328C715.427 440.513 715.317 440.682 715.177 440.825C715.038 440.967 714.872 441.08 714.688 441.157C714.504 441.235 714.307 441.274 714.107 441.274ZM714.107 429.264C713.721 429.256 713.353 429.099 713.08 428.826C712.807 428.553 712.65 428.185 712.642 427.799V421.778C712.694 421.422 712.873 421.097 713.145 420.863C713.416 420.628 713.764 420.498 714.123 420.498C714.483 420.498 714.83 420.628 715.102 420.863C715.374 421.097 715.552 421.422 715.605 421.778V427.799C715.596 428.19 715.435 428.563 715.155 428.837C714.875 429.111 714.499 429.264 714.107 429.264ZM714.107 417.254C713.721 417.246 713.353 417.089 713.08 416.816C712.807 416.543 712.65 416.175 712.642 415.789V409.768C712.694 409.412 712.873 409.087 713.145 408.852C713.416 408.618 713.764 408.488 714.123 408.488C714.483 408.488 714.83 408.618 715.102 408.852C715.374 409.087 715.552 409.412 715.605 409.768V415.789C715.596 416.18 715.435 416.553 715.155 416.827C714.875 417.101 714.499 417.254 714.107 417.254ZM714.107 405.244C713.716 405.236 713.343 405.074 713.069 404.794C712.795 404.515 712.642 404.138 712.642 403.747V397.758C712.611 397.545 712.626 397.328 712.686 397.121C712.746 396.915 712.85 396.724 712.99 396.561C713.131 396.398 713.305 396.268 713.5 396.178C713.696 396.089 713.908 396.043 714.123 396.043C714.338 396.043 714.551 396.089 714.746 396.178C714.942 396.268 715.116 396.398 715.256 396.561C715.397 396.724 715.501 396.915 715.561 397.121C715.621 397.328 715.636 397.545 715.605 397.758V403.747C715.605 403.943 715.566 404.138 715.491 404.32C715.415 404.501 715.305 404.666 715.166 404.806C715.027 404.945 714.862 405.055 714.68 405.13C714.499 405.205 714.304 405.244 714.107 405.244ZM714.107 393.234C713.716 393.226 713.343 393.064 713.069 392.784C712.795 392.504 712.642 392.128 712.642 391.737V385.748C712.611 385.535 712.626 385.318 712.686 385.111C712.746 384.905 712.85 384.714 712.99 384.551C713.131 384.388 713.305 384.258 713.5 384.168C713.696 384.079 713.908 384.032 714.123 384.032C714.338 384.032 714.551 384.079 714.746 384.168C714.942 384.258 715.116 384.388 715.256 384.551C715.397 384.714 715.501 384.905 715.561 385.111C715.621 385.318 715.636 385.535 715.605 385.748V391.737C715.605 391.933 715.566 392.128 715.491 392.31C715.415 392.491 715.305 392.656 715.166 392.795C715.027 392.934 714.862 393.045 714.68 393.12C714.499 393.195 714.304 393.234 714.107 393.234ZM714.107 381.224C713.716 381.216 713.343 381.054 713.069 380.774C712.795 380.494 712.642 380.118 712.642 379.727V373.737C712.611 373.525 712.626 373.308 712.686 373.101C712.746 372.895 712.85 372.704 712.99 372.541C713.131 372.378 713.305 372.248 713.5 372.158C713.696 372.069 713.908 372.022 714.123 372.022C714.338 372.022 714.551 372.069 714.746 372.158C714.942 372.248 715.116 372.378 715.256 372.541C715.397 372.704 715.501 372.895 715.561 373.101C715.621 373.308 715.636 373.525 715.605 373.737V379.727C715.605 379.923 715.566 380.118 715.491 380.3C715.415 380.481 715.305 380.646 715.166 380.785C715.027 380.924 714.862 381.035 714.68 381.11C714.499 381.185 714.304 381.224 714.107 381.224ZM714.107 369.214C713.716 369.205 713.343 369.044 713.069 368.764C712.795 368.484 712.642 368.108 712.642 367.716V361.727C712.611 361.515 712.626 361.298 712.686 361.091C712.746 360.885 712.85 360.694 712.99 360.531C713.131 360.368 713.305 360.238 713.5 360.148C713.696 360.059 713.908 360.012 714.123 360.012C714.338 360.012 714.551 360.059 714.746 360.148C714.942 360.238 715.116 360.368 715.256 360.531C715.397 360.694 715.501 360.885 715.561 361.091C715.621 361.298 715.636 361.515 715.605 361.727V367.716C715.605 367.913 715.566 368.108 715.491 368.289C715.415 368.471 715.305 368.636 715.166 368.775C715.027 368.914 714.862 369.025 714.68 369.1C714.499 369.175 714.304 369.214 714.107 369.214ZM714.107 357.204C713.716 357.195 713.343 357.034 713.069 356.754C712.795 356.474 712.642 356.098 712.642 355.706V349.685C712.694 349.33 712.873 349.005 713.145 348.77C713.416 348.535 713.764 348.406 714.123 348.406C714.483 348.406 714.83 348.535 715.102 348.77C715.374 349.005 715.552 349.33 715.605 349.685V355.706C715.605 355.903 715.566 356.098 715.491 356.279C715.415 356.461 715.305 356.626 715.166 356.765C715.027 356.904 714.862 357.014 714.68 357.09C714.499 357.165 714.304 357.204 714.107 357.204ZM714.107 345.162C713.719 345.162 713.346 345.007 713.071 344.732C712.796 344.458 712.642 344.085 712.642 343.696V337.803C712.694 337.447 712.873 337.122 713.145 336.887C713.416 336.653 713.764 336.523 714.123 336.523C714.483 336.523 714.83 336.653 715.102 336.887C715.374 337.122 715.552 337.447 715.605 337.803V343.824C715.572 344.195 715.399 344.541 715.121 344.789C714.843 345.038 714.48 345.171 714.107 345.162ZM714.107 333.152C713.719 333.152 713.346 332.997 713.071 332.722C712.796 332.448 712.642 332.075 712.642 331.686V325.665C712.694 325.31 712.873 324.985 713.145 324.75C713.416 324.515 713.764 324.386 714.123 324.386C714.483 324.386 714.83 324.515 715.102 324.75C715.374 324.985 715.552 325.31 715.605 325.665V331.686C715.605 331.881 715.566 332.075 715.49 332.254C715.415 332.434 715.304 332.597 715.164 332.734C715.025 332.87 714.859 332.978 714.678 333.049C714.496 333.121 714.302 333.156 714.107 333.152Z" fill="#F5F5F5"/>
<path d="M714.107 606.422C713.721 606.413 713.353 606.256 713.08 605.983C712.807 605.71 712.65 605.342 712.642 604.956V601.993C712.611 601.781 712.626 601.564 712.686 601.357C712.746 601.151 712.85 600.96 712.99 600.797C713.131 600.634 713.305 600.504 713.5 600.414C713.696 600.325 713.908 600.278 714.123 600.278C714.338 600.278 714.551 600.325 714.746 600.414C714.942 600.504 715.116 600.634 715.256 600.797C715.397 600.96 715.501 601.151 715.561 601.357C715.621 601.564 715.636 601.781 715.605 601.993V604.956C715.596 605.348 715.435 605.72 715.155 605.994C714.875 606.268 714.499 606.422 714.107 606.422Z" fill="#F5F5F5"/>
<path d="M830.927 361.44C830.535 361.432 830.163 361.271 829.889 360.991C829.615 360.711 829.461 360.335 829.461 359.943V356.917C829.514 356.561 829.692 356.236 829.964 356.001C830.236 355.766 830.583 355.637 830.943 355.637C831.302 355.637 831.65 355.766 831.921 356.001C832.193 356.236 832.372 356.561 832.424 356.917V360.102C832.385 360.471 832.21 360.812 831.933 361.06C831.656 361.307 831.298 361.442 830.927 361.44Z" fill="#F5F5F5"/>
<path d="M830.927 530.474C830.541 530.466 830.173 530.309 829.899 530.036C829.626 529.763 829.469 529.395 829.461 529.009V522.956C829.514 522.6 829.692 522.276 829.964 522.041C830.236 521.806 830.583 521.676 830.943 521.676C831.302 521.676 831.649 521.806 831.921 522.041C832.193 522.276 832.372 522.6 832.424 522.956V528.945C832.428 529.144 832.393 529.343 832.319 529.528C832.246 529.713 832.136 529.882 831.997 530.024C831.857 530.167 831.691 530.28 831.507 530.357C831.323 530.435 831.126 530.474 830.927 530.474ZM830.927 518.4C830.541 518.392 830.173 518.235 829.899 517.962C829.626 517.689 829.469 517.321 829.461 516.935V510.882C829.514 510.527 829.692 510.202 829.964 509.967C830.236 509.732 830.583 509.603 830.943 509.603C831.302 509.603 831.649 509.732 831.921 509.967C832.193 510.202 832.372 510.527 832.424 510.882V516.935C832.416 517.327 832.254 517.699 831.974 517.973C831.694 518.247 831.318 518.4 830.927 518.4ZM830.927 506.327C830.541 506.318 830.173 506.161 829.899 505.888C829.626 505.615 829.469 505.247 829.461 504.861V498.808C829.514 498.453 829.692 498.128 829.964 497.893C830.236 497.658 830.583 497.529 830.943 497.529C831.302 497.529 831.649 497.658 831.921 497.893C832.193 498.128 832.372 498.453 832.424 498.808V504.861C832.416 505.253 832.254 505.625 831.974 505.899C831.694 506.173 831.318 506.327 830.927 506.327ZM830.927 494.253C830.541 494.245 830.173 494.088 829.899 493.815C829.626 493.541 829.469 493.173 829.461 492.787V486.734C829.514 486.379 829.692 486.054 829.964 485.819C830.236 485.584 830.583 485.455 830.943 485.455C831.302 485.455 831.649 485.584 831.921 485.819C832.193 486.054 832.372 486.379 832.424 486.734V492.787C832.416 493.179 832.254 493.552 831.974 493.826C831.694 494.099 831.318 494.253 830.927 494.253ZM830.927 482.179C830.541 482.171 830.173 482.014 829.899 481.741C829.626 481.468 829.469 481.1 829.461 480.714V474.788C829.514 474.433 829.692 474.108 829.964 473.873C830.236 473.638 830.583 473.509 830.943 473.509C831.302 473.509 831.649 473.638 831.921 473.873C832.193 474.108 832.372 474.433 832.424 474.788V480.841C832.384 481.21 832.21 481.551 831.933 481.798C831.656 482.045 831.298 482.181 830.927 482.179ZM830.927 470.105C830.541 470.097 830.173 469.94 829.899 469.667C829.626 469.394 829.469 469.026 829.461 468.64V462.587C829.514 462.231 829.692 461.906 829.964 461.672C830.236 461.437 830.583 461.307 830.943 461.307C831.302 461.307 831.649 461.437 831.921 461.672C832.193 461.906 832.372 462.231 832.424 462.587V468.64C832.416 469.031 832.254 469.404 831.974 469.678C831.694 469.952 831.318 470.105 830.927 470.105ZM830.927 458.031C830.541 458.023 830.173 457.866 829.899 457.593C829.626 457.32 829.469 456.952 829.461 456.566V450.513C829.514 450.158 829.692 449.833 829.964 449.598C830.236 449.363 830.583 449.234 830.943 449.234C831.302 449.234 831.649 449.363 831.921 449.598C832.193 449.833 832.372 450.158 832.424 450.513V456.566C832.416 456.957 832.254 457.33 831.974 457.604C831.694 457.878 831.318 458.031 830.927 458.031ZM830.927 445.957C830.541 445.949 830.173 445.792 829.899 445.519C829.626 445.246 829.469 444.878 829.461 444.492V438.439C829.514 438.084 829.692 437.759 829.964 437.524C830.236 437.289 830.583 437.16 830.943 437.16C831.302 437.16 831.649 437.289 831.921 437.524C832.193 437.759 832.372 438.084 832.424 438.439V444.492C832.442 444.699 832.416 444.908 832.349 445.104C832.281 445.301 832.174 445.481 832.033 445.634C831.892 445.787 831.721 445.909 831.531 445.992C831.34 446.075 831.134 446.118 830.927 446.117V445.957ZM830.927 433.884C830.541 433.876 830.173 433.719 829.899 433.445C829.626 433.172 829.469 432.804 829.461 432.418V426.365C829.514 426.01 829.692 425.685 829.964 425.45C830.236 425.215 830.583 425.086 830.943 425.086C831.302 425.086 831.649 425.215 831.921 425.45C832.193 425.685 832.372 426.01 832.424 426.365V432.418C832.416 432.81 832.254 433.183 831.974 433.456C831.694 433.73 831.318 433.884 830.927 433.884ZM830.927 421.81C830.541 421.802 830.173 421.645 829.899 421.372C829.626 421.099 829.469 420.731 829.461 420.344V414.26C829.514 413.904 829.692 413.579 829.964 413.344C830.236 413.11 830.583 412.98 830.943 412.98C831.302 412.98 831.649 413.11 831.921 413.344C832.193 413.579 832.372 413.904 832.424 414.26V420.313C832.424 420.509 832.385 420.704 832.31 420.886C832.235 421.067 832.124 421.232 831.985 421.371C831.846 421.51 831.681 421.621 831.5 421.696C831.318 421.771 831.123 421.81 830.927 421.81ZM830.927 409.736C830.541 409.728 830.173 409.571 829.899 409.298C829.626 409.025 829.469 408.657 829.461 408.271V402.218C829.514 401.862 829.692 401.537 829.964 401.302C830.236 401.068 830.583 400.938 830.943 400.938C831.302 400.938 831.649 401.068 831.921 401.302C832.193 401.537 832.372 401.862 832.424 402.218V408.271C832.416 408.662 832.254 409.035 831.974 409.309C831.694 409.583 831.318 409.736 830.927 409.736ZM830.927 397.662C830.535 397.654 830.162 397.492 829.888 397.213C829.615 396.933 829.461 396.557 829.461 396.165V390.144C829.43 389.931 829.445 389.714 829.505 389.508C829.565 389.301 829.669 389.11 829.809 388.947C829.95 388.785 830.124 388.654 830.32 388.565C830.515 388.475 830.728 388.429 830.943 388.429C831.158 388.429 831.37 388.475 831.566 388.565C831.761 388.654 831.935 388.785 832.076 388.947C832.216 389.11 832.32 389.301 832.38 389.508C832.44 389.714 832.455 389.931 832.424 390.144V396.165C832.424 396.562 832.266 396.943 831.985 397.224C831.705 397.504 831.324 397.662 830.927 397.662ZM830.927 385.588C830.535 385.58 830.162 385.419 829.888 385.139C829.615 384.859 829.461 384.483 829.461 384.091V378.07C829.43 377.857 829.445 377.64 829.505 377.434C829.565 377.227 829.669 377.036 829.809 376.874C829.95 376.711 830.124 376.58 830.32 376.491C830.515 376.401 830.728 376.355 830.943 376.355C831.158 376.355 831.37 376.401 831.566 376.491C831.761 376.58 831.935 376.711 832.076 376.874C832.216 377.036 832.32 377.227 832.38 377.434C832.44 377.64 832.455 377.857 832.424 378.07V384.091C832.424 384.488 832.266 384.869 831.985 385.15C831.705 385.431 831.324 385.588 830.927 385.588ZM830.927 373.515C830.535 373.506 830.162 373.345 829.888 373.065C829.615 372.785 829.461 372.409 829.461 372.017V365.996C829.43 365.784 829.445 365.567 829.505 365.36C829.565 365.154 829.669 364.963 829.809 364.8C829.95 364.637 830.124 364.507 830.32 364.417C830.515 364.328 830.728 364.281 830.943 364.281C831.158 364.281 831.37 364.328 831.566 364.417C831.761 364.507 831.935 364.637 832.076 364.8C832.216 364.963 832.32 365.154 832.38 365.36C832.44 365.567 832.455 365.784 832.424 365.996V372.017C832.424 372.414 832.266 372.795 831.985 373.076C831.705 373.357 831.324 373.515 830.927 373.515Z" fill="#F5F5F5"/>
<path d="M830.927 539.489C830.535 539.481 830.163 539.32 829.889 539.04C829.615 538.76 829.461 538.384 829.461 537.992V535.029C829.514 534.674 829.692 534.349 829.964 534.114C830.236 533.879 830.583 533.75 830.943 533.75C831.302 533.75 831.65 533.879 831.921 534.114C832.193 534.349 832.372 534.674 832.424 535.029V537.992C832.424 538.189 832.385 538.384 832.31 538.565C832.235 538.747 832.125 538.912 831.986 539.051C831.847 539.19 831.681 539.3 831.5 539.375C831.318 539.451 831.123 539.489 830.927 539.489Z" fill="#F5F5F5"/>
<path d="M946.027 369.341C945.629 369.341 945.249 369.183 944.968 368.902C944.687 368.622 944.529 368.241 944.529 367.844V364.881C944.582 364.525 944.76 364.201 945.032 363.966C945.304 363.731 945.651 363.602 946.011 363.602C946.37 363.602 946.717 363.731 946.989 363.966C947.261 364.201 947.44 364.525 947.492 364.881V367.844C947.492 368.235 947.339 368.611 947.065 368.891C946.791 369.171 946.418 369.333 946.027 369.341Z" fill="#F5F5F5"/>
<path d="M946.026 463.925C945.629 463.925 945.248 463.767 944.968 463.486C944.687 463.205 944.529 462.824 944.529 462.427V456.534C944.498 456.321 944.513 456.104 944.573 455.898C944.633 455.691 944.737 455.5 944.877 455.337C945.018 455.175 945.192 455.044 945.387 454.955C945.583 454.865 945.795 454.819 946.01 454.819C946.225 454.819 946.438 454.865 946.634 454.955C946.829 455.044 947.003 455.175 947.144 455.337C947.284 455.5 947.388 455.691 947.448 455.898C947.508 456.104 947.523 456.321 947.492 456.534V462.427C947.492 462.819 947.339 463.195 947.065 463.475C946.791 463.755 946.418 463.916 946.026 463.925ZM946.026 452.106C945.629 452.106 945.248 451.948 944.968 451.667C944.687 451.386 944.529 451.006 944.529 450.608V444.715C944.498 444.502 944.513 444.285 944.573 444.079C944.633 443.872 944.737 443.681 944.877 443.518C945.018 443.356 945.192 443.225 945.387 443.136C945.583 443.046 945.795 443 946.01 443C946.225 443 946.438 443.046 946.634 443.136C946.829 443.225 947.003 443.356 947.144 443.518C947.284 443.681 947.388 443.872 947.448 444.079C947.508 444.285 947.523 444.502 947.492 444.715V450.608C947.492 451 947.339 451.376 947.065 451.656C946.791 451.936 946.418 452.097 946.026 452.106ZM946.026 440.287C945.629 440.287 945.248 440.129 944.968 439.848C944.687 439.567 944.529 439.187 944.529 438.789V432.896C944.498 432.683 944.513 432.466 944.573 432.26C944.633 432.053 944.737 431.862 944.877 431.699C945.018 431.537 945.192 431.406 945.387 431.317C945.583 431.227 945.795 431.181 946.01 431.181C946.225 431.181 946.438 431.227 946.634 431.317C946.829 431.406 947.003 431.537 947.144 431.699C947.284 431.862 947.388 432.053 947.448 432.26C947.508 432.466 947.523 432.683 947.492 432.896V438.789C947.492 439.181 947.339 439.557 947.065 439.837C946.791 440.117 946.418 440.278 946.026 440.287ZM946.026 428.468C945.629 428.468 945.248 428.31 944.968 428.029C944.687 427.748 944.529 427.368 944.529 426.97V421.045C944.581 420.69 944.76 420.365 945.032 420.13C945.304 419.895 945.651 419.766 946.01 419.766C946.37 419.766 946.717 419.895 946.989 420.13C947.261 420.365 947.44 420.69 947.492 421.045V427.002C947.484 427.388 947.327 427.756 947.054 428.03C946.781 428.303 946.412 428.46 946.026 428.468ZM946.026 416.617C945.831 416.621 945.637 416.586 945.456 416.515C945.274 416.443 945.109 416.336 944.97 416.199C944.83 416.063 944.719 415.9 944.644 415.72C944.568 415.54 944.529 415.347 944.529 415.152V409.226C944.581 408.871 944.76 408.546 945.032 408.311C945.304 408.076 945.651 407.947 946.01 407.947C946.37 407.947 946.717 408.076 946.989 408.311C947.261 408.546 947.44 408.871 947.492 409.226V415.152C947.492 415.54 947.337 415.913 947.063 416.188C946.788 416.463 946.415 416.617 946.026 416.617ZM946.026 404.798C945.635 404.798 945.259 404.645 944.979 404.371C944.699 404.097 944.537 403.724 944.529 403.333V397.407C944.581 397.052 944.76 396.727 945.032 396.492C945.304 396.257 945.651 396.128 946.01 396.128C946.37 396.128 946.717 396.257 946.989 396.492C947.261 396.727 947.44 397.052 947.492 397.407V403.333C947.46 403.702 947.293 404.046 947.022 404.299C946.752 404.552 946.397 404.696 946.026 404.702V404.798ZM946.026 392.979C945.635 392.979 945.259 392.826 944.979 392.552C944.699 392.278 944.537 391.905 944.529 391.514V385.588C944.581 385.233 944.76 384.908 945.032 384.673C945.304 384.438 945.651 384.309 946.01 384.309C946.37 384.309 946.717 384.438 946.989 384.673C947.261 384.908 947.44 385.233 947.492 385.588V391.514C947.484 391.9 947.327 392.268 947.054 392.541C946.781 392.814 946.412 392.971 946.026 392.979ZM946.026 381.16C945.635 381.16 945.259 381.007 944.979 380.733C944.699 380.459 944.537 380.086 944.529 379.695V373.769C944.581 373.414 944.76 373.089 945.032 372.854C945.304 372.619 945.651 372.49 946.01 372.49C946.37 372.49 946.717 372.619 946.989 372.854C947.261 373.089 947.44 373.414 947.492 373.769V379.695C947.484 380.081 947.327 380.449 947.054 380.722C946.781 380.995 946.412 381.152 946.026 381.16Z" fill="#F5F5F5"/>
<path d="M946.026 472.781C945.831 472.785 945.637 472.75 945.456 472.678C945.274 472.607 945.109 472.499 944.97 472.363C944.83 472.226 944.719 472.063 944.644 471.884C944.568 471.704 944.529 471.51 944.529 471.315V468.416C944.498 468.204 944.513 467.987 944.573 467.78C944.633 467.574 944.737 467.382 944.877 467.22C945.018 467.057 945.192 466.926 945.387 466.837C945.583 466.748 945.795 466.701 946.01 466.701C946.225 466.701 946.438 466.748 946.634 466.837C946.829 466.926 947.003 467.057 947.144 467.22C947.284 467.382 947.388 467.574 947.448 467.78C947.508 467.987 947.523 468.204 947.492 468.416V471.379C947.475 471.756 947.314 472.113 947.041 472.374C946.768 472.635 946.404 472.781 946.026 472.781Z" fill="#F5F5F5"/>
<path d="M854.979 265.328C854.979 262.429 852.94 261.25 850.423 262.715L808.468 286.831C807.139 287.703 806.035 288.876 805.244 290.254C804.452 291.632 803.996 293.177 803.912 294.764V328.723C803.912 331.622 805.951 332.801 808.468 331.335L824.046 322.352L830.577 333.693C830.673 333.855 830.814 333.986 830.983 334.07C831.152 334.155 831.342 334.189 831.53 334.169C831.717 334.149 831.895 334.075 832.043 333.957C832.19 333.839 832.3 333.681 832.361 333.502L839.273 313.559L850.423 307.188C851.755 306.326 852.862 305.161 853.654 303.787C854.446 302.413 854.9 300.871 854.979 299.287V265.328Z" fill="#F5F5F5"/>
<path d="M818.471 300.912C818.051 300.945 817.629 300.882 817.237 300.728C816.845 300.573 816.493 300.331 816.209 300.02C815.598 299.231 815.302 298.243 815.38 297.249C815.383 295.951 815.665 294.668 816.209 293.49C816.768 292.197 817.531 291.003 818.471 289.953C819.375 288.89 820.452 287.985 821.656 287.277C822.615 286.679 823.713 286.339 824.842 286.29C825.264 286.266 825.686 286.336 826.078 286.496C826.469 286.656 826.82 286.901 827.104 287.214C827.726 287.998 828.033 288.987 827.964 289.985C827.942 291.274 827.649 292.544 827.104 293.713C826.526 295.005 825.764 296.207 824.842 297.281C823.929 298.318 822.853 299.201 821.656 299.893C820.704 300.51 819.604 300.862 818.471 300.912ZM817.451 318.083C817.459 317.882 817.514 317.686 817.61 317.51L835.833 280.46L836.311 279.632C836.508 279.422 836.733 279.24 836.98 279.09L840.707 276.956C840.777 276.926 840.853 276.911 840.93 276.911C841.006 276.911 841.082 276.926 841.153 276.956C841.215 276.971 841.269 277.009 841.304 277.062C841.34 277.115 841.354 277.179 841.344 277.243C841.34 277.459 841.274 277.669 841.153 277.848L822.771 314.929C822.771 315.248 822.453 315.471 822.357 315.63C822.186 315.816 821.98 315.968 821.752 316.076L817.993 318.274C817.674 318.688 817.451 318.465 817.451 318.083ZM823.823 294.573C824.394 293.746 824.714 292.773 824.746 291.769C824.801 291.408 824.741 291.039 824.576 290.713C824.41 290.388 824.147 290.122 823.823 289.953C823.435 289.838 823.025 289.815 822.626 289.887C822.228 289.959 821.852 290.123 821.529 290.368C820.594 290.913 819.807 291.679 819.235 292.598C818.659 293.445 818.338 294.44 818.311 295.465C818.261 295.817 818.323 296.176 818.489 296.491C818.655 296.805 818.916 297.059 819.235 297.217C819.621 297.332 820.029 297.358 820.426 297.291C820.824 297.225 821.201 297.069 821.529 296.835C822.511 296.293 823.343 295.516 823.95 294.573H823.823ZM833.953 308.845C833.526 308.876 833.097 308.809 832.699 308.649C832.301 308.489 831.946 308.24 831.659 307.921C831.036 307.149 830.729 306.17 830.799 305.181C830.821 303.902 831.114 302.643 831.659 301.486C832.233 300.184 833.007 298.98 833.953 297.918C834.857 296.862 835.934 295.968 837.139 295.274C838.091 294.656 839.191 294.304 840.325 294.254C840.748 294.232 841.172 294.3 841.567 294.454C841.963 294.607 842.321 294.843 842.618 295.146C843.246 295.927 843.554 296.918 843.478 297.918C843.461 299.207 843.167 300.478 842.618 301.645C842.029 302.938 841.257 304.14 840.325 305.213C839.412 306.26 838.336 307.153 837.139 307.857C836.215 308.431 835.165 308.77 834.081 308.845H833.953ZM839.401 302.473C839.986 301.642 840.308 300.654 840.325 299.638C840.325 298.714 840.038 298.141 839.401 297.886C839.013 297.767 838.603 297.743 838.204 297.815C837.805 297.887 837.429 298.054 837.107 298.3C836.165 298.836 835.376 299.604 834.813 300.53C834.247 301.359 833.927 302.33 833.889 303.333C833.889 304.289 834.208 304.894 834.813 305.117C835.203 305.219 835.61 305.235 836.006 305.163C836.402 305.092 836.778 304.935 837.107 304.703C838.074 304.183 838.904 303.44 839.528 302.537L839.401 302.473Z" fill="#5F2EE9"/>
<path opacity="0.4" d="M818.471 300.912C818.051 300.945 817.629 300.882 817.237 300.728C816.845 300.573 816.493 300.331 816.209 300.02C815.598 299.231 815.302 298.243 815.38 297.249C815.383 295.951 815.665 294.668 816.209 293.49C816.768 292.197 817.531 291.003 818.471 289.953C819.375 288.89 820.452 287.985 821.656 287.277C822.615 286.679 823.713 286.339 824.842 286.29C825.264 286.266 825.686 286.336 826.078 286.496C826.469 286.656 826.82 286.901 827.104 287.214C827.726 287.998 828.033 288.987 827.964 289.985C827.942 291.274 827.649 292.544 827.104 293.713C826.526 295.005 825.764 296.207 824.842 297.281C823.929 298.318 822.853 299.201 821.656 299.893C820.704 300.51 819.604 300.862 818.471 300.912ZM817.451 318.083C817.459 317.882 817.514 317.686 817.61 317.51L835.833 280.46L836.311 279.632C836.508 279.422 836.733 279.24 836.98 279.09L840.707 276.956C840.777 276.926 840.853 276.911 840.93 276.911C841.006 276.911 841.082 276.926 841.153 276.956C841.215 276.971 841.269 277.009 841.304 277.062C841.34 277.115 841.354 277.179 841.344 277.243C841.34 277.459 841.274 277.669 841.153 277.848L822.771 314.929C822.771 315.248 822.453 315.471 822.357 315.63C822.186 315.816 821.98 315.968 821.752 316.076L817.993 318.274C817.674 318.688 817.451 318.465 817.451 318.083ZM823.823 294.573C824.394 293.746 824.714 292.773 824.746 291.769C824.801 291.408 824.741 291.039 824.576 290.713C824.41 290.388 824.147 290.122 823.823 289.953C823.435 289.838 823.025 289.815 822.626 289.887C822.228 289.959 821.852 290.123 821.529 290.368C820.594 290.913 819.807 291.679 819.235 292.598C818.659 293.445 818.338 294.44 818.311 295.465C818.261 295.817 818.323 296.176 818.489 296.491C818.655 296.805 818.916 297.059 819.235 297.217C819.621 297.332 820.029 297.358 820.426 297.291C820.824 297.225 821.201 297.069 821.529 296.835C822.511 296.293 823.343 295.516 823.95 294.573H823.823ZM833.953 308.845C833.526 308.876 833.097 308.809 832.699 308.649C832.301 308.489 831.946 308.24 831.659 307.921C831.036 307.149 830.729 306.17 830.799 305.181C830.821 303.902 831.114 302.643 831.659 301.486C832.233 300.184 833.007 298.98 833.953 297.918C834.857 296.862 835.934 295.968 837.139 295.274C838.091 294.656 839.191 294.304 840.325 294.254C840.748 294.232 841.172 294.3 841.567 294.454C841.963 294.607 842.321 294.843 842.618 295.146C843.246 295.927 843.554 296.918 843.478 297.918C843.461 299.207 843.167 300.478 842.618 301.645C842.029 302.938 841.257 304.14 840.325 305.213C839.412 306.26 838.336 307.153 837.139 307.857C836.215 308.431 835.165 308.77 834.081 308.845H833.953ZM839.401 302.473C839.986 301.642 840.308 300.654 840.325 299.638C840.325 298.714 840.038 298.141 839.401 297.886C839.013 297.767 838.603 297.743 838.204 297.815C837.805 297.887 837.429 298.054 837.107 298.3C836.165 298.836 835.376 299.604 834.813 300.53C834.247 301.359 833.927 302.33 833.889 303.333C833.889 304.289 834.208 304.894 834.813 305.117C835.203 305.219 835.61 305.235 836.006 305.163C836.402 305.092 836.778 304.935 837.107 304.703C838.074 304.183 838.904 303.44 839.528 302.537L839.401 302.473Z" fill="black"/>
<path d="M968.263 271.157C968.263 268.258 966.224 267.08 963.707 268.513L921.751 292.788C920.427 293.657 919.325 294.825 918.534 296.197C917.743 297.569 917.285 299.108 917.196 300.689V334.617C917.196 337.547 919.235 338.726 921.751 337.261L937.457 328.245L944.019 339.586C944.094 339.757 944.216 339.902 944.372 340.004C944.527 340.106 944.709 340.16 944.895 340.16C945.081 340.16 945.263 340.106 945.419 340.004C945.575 339.902 945.697 339.757 945.771 339.586L952.684 319.612L963.866 313.24C965.19 312.371 966.292 311.204 967.083 309.832C967.875 308.46 968.333 306.921 968.422 305.34L968.263 271.157Z" fill="#F5F5F5"/>
<path d="M931.754 306.742C931.327 306.769 930.899 306.7 930.503 306.54C930.106 306.38 929.75 306.133 929.46 305.818C928.857 305.038 928.562 304.062 928.632 303.078C928.65 301.782 928.932 300.503 929.46 299.319C930.03 298.015 930.804 296.811 931.754 295.751C932.667 294.704 933.742 293.811 934.94 293.107C935.895 292.501 936.995 292.16 938.126 292.119C938.553 292.088 938.982 292.155 939.38 292.315C939.777 292.475 940.133 292.724 940.419 293.043C941.05 293.823 941.358 294.815 941.279 295.815C941.258 297.094 940.965 298.353 940.419 299.51C939.845 300.812 939.072 302.016 938.126 303.078C937.222 304.134 936.144 305.028 934.94 305.722C933.988 306.34 932.888 306.692 931.754 306.742ZM930.703 323.913C930.712 323.698 930.778 323.489 930.894 323.308L949.116 286.258C949.24 285.963 949.4 285.684 949.594 285.429C949.77 285.21 949.986 285.026 950.231 284.888L953.99 282.722C954.181 282.722 954.309 282.562 954.436 282.722C954.564 282.881 954.596 282.722 954.596 283.008C954.6 283.221 954.544 283.431 954.436 283.614L936.119 320.855C936.004 321.101 935.866 321.336 935.704 321.555C935.544 321.74 935.349 321.891 935.131 322.001L931.34 324.2C931.085 324.327 930.703 324.263 930.703 323.913ZM937.074 300.402C937.64 299.574 937.961 298.602 937.998 297.599C938.053 297.238 937.993 296.868 937.827 296.543C937.662 296.217 937.398 295.952 937.074 295.783C936.686 295.667 936.276 295.644 935.878 295.716C935.48 295.788 935.104 295.953 934.781 296.197C933.855 296.744 933.079 297.51 932.519 298.427C931.929 299.268 931.607 300.267 931.595 301.294C931.54 301.647 931.6 302.008 931.766 302.324C931.933 302.639 932.197 302.893 932.519 303.046C932.902 303.162 933.306 303.185 933.7 303.113C934.093 303.041 934.464 302.876 934.781 302.632C935.769 302.114 936.604 301.345 937.202 300.402H937.074ZM947.205 314.674C946.778 314.699 946.351 314.629 945.955 314.469C945.558 314.309 945.202 314.064 944.911 313.75C944.318 312.965 944.024 311.993 944.083 311.011C944.105 309.725 944.387 308.457 944.911 307.283C945.5 305.99 946.273 304.788 947.205 303.715C948.118 302.678 949.194 301.795 950.39 301.103C951.347 300.495 952.444 300.144 953.576 300.084C954.001 300.055 954.426 300.12 954.822 300.274C955.219 300.428 955.576 300.668 955.87 300.976C956.496 301.746 956.804 302.726 956.73 303.715C956.716 305.016 956.422 306.298 955.87 307.475C955.288 308.762 954.515 309.954 953.576 311.011C952.669 312.063 951.592 312.957 950.39 313.655C949.468 314.237 948.419 314.586 947.332 314.674H947.205ZM952.684 308.303C953.26 307.455 953.581 306.46 953.608 305.436C953.653 305.084 953.589 304.727 953.424 304.413C953.258 304.1 953 303.845 952.684 303.684C952.288 303.582 951.873 303.569 951.471 303.646C951.069 303.723 950.689 303.888 950.359 304.13C949.432 304.661 948.655 305.417 948.097 306.328C947.507 307.159 947.175 308.145 947.141 309.163C947.141 310.119 947.46 310.692 948.097 310.947C948.481 311.048 948.883 311.063 949.274 310.992C949.665 310.92 950.035 310.764 950.359 310.533C951.335 310.013 952.175 309.271 952.812 308.367L952.684 308.303Z" fill="#5F2EE9"/>
<path opacity="0.4" d="M931.754 306.742C931.327 306.769 930.899 306.7 930.503 306.54C930.106 306.38 929.75 306.133 929.46 305.818C928.857 305.038 928.562 304.062 928.632 303.078C928.65 301.782 928.932 300.503 929.46 299.319C930.03 298.015 930.804 296.811 931.754 295.751C932.667 294.704 933.742 293.811 934.94 293.107C935.895 292.501 936.995 292.16 938.126 292.119C938.553 292.088 938.982 292.155 939.38 292.315C939.777 292.475 940.133 292.724 940.419 293.043C941.05 293.823 941.358 294.815 941.279 295.815C941.258 297.094 940.965 298.353 940.419 299.51C939.845 300.812 939.072 302.016 938.126 303.078C937.222 304.134 936.144 305.028 934.94 305.722C933.988 306.34 932.888 306.692 931.754 306.742ZM930.703 323.913C930.712 323.698 930.778 323.489 930.894 323.308L949.116 286.258C949.24 285.963 949.4 285.684 949.594 285.429C949.77 285.21 949.986 285.026 950.231 284.888L953.99 282.722C954.181 282.722 954.309 282.562 954.436 282.722C954.564 282.881 954.596 282.722 954.596 283.008C954.6 283.221 954.544 283.431 954.436 283.614L936.119 320.855C936.004 321.101 935.866 321.336 935.704 321.555C935.544 321.74 935.349 321.891 935.131 322.001L931.34 324.2C931.085 324.327 930.703 324.263 930.703 323.913ZM937.074 300.402C937.64 299.574 937.961 298.602 937.998 297.599C938.053 297.238 937.993 296.868 937.827 296.543C937.662 296.217 937.398 295.952 937.074 295.783C936.686 295.667 936.276 295.644 935.878 295.716C935.48 295.788 935.104 295.953 934.781 296.197C933.855 296.744 933.079 297.51 932.519 298.427C931.929 299.268 931.607 300.267 931.595 301.294C931.54 301.647 931.6 302.008 931.766 302.324C931.933 302.639 932.197 302.893 932.519 303.046C932.902 303.162 933.306 303.185 933.7 303.113C934.093 303.041 934.464 302.876 934.781 302.632C935.769 302.114 936.604 301.345 937.202 300.402H937.074ZM947.205 314.674C946.778 314.699 946.351 314.629 945.955 314.469C945.558 314.309 945.202 314.064 944.911 313.75C944.318 312.965 944.024 311.993 944.083 311.011C944.105 309.725 944.387 308.457 944.911 307.283C945.5 305.99 946.273 304.788 947.205 303.715C948.118 302.678 949.194 301.795 950.39 301.103C951.347 300.495 952.444 300.144 953.576 300.084C954.001 300.055 954.426 300.12 954.822 300.274C955.219 300.428 955.576 300.668 955.87 300.976C956.496 301.746 956.804 302.726 956.73 303.715C956.716 305.016 956.422 306.298 955.87 307.475C955.288 308.762 954.515 309.954 953.576 311.011C952.669 312.063 951.592 312.957 950.39 313.655C949.468 314.237 948.419 314.586 947.332 314.674H947.205ZM952.684 308.303C953.26 307.455 953.581 306.46 953.608 305.436C953.653 305.084 953.589 304.727 953.424 304.413C953.258 304.1 953 303.845 952.684 303.684C952.288 303.582 951.873 303.569 951.471 303.646C951.069 303.723 950.689 303.888 950.359 304.13C949.432 304.661 948.655 305.417 948.097 306.328C947.507 307.159 947.175 308.145 947.141 309.163C947.141 310.119 947.46 310.692 948.097 310.947C948.481 311.048 948.883 311.063 949.274 310.992C949.665 310.92 950.035 310.764 950.359 310.533C951.335 310.013 952.175 309.271 952.812 308.367L952.684 308.303Z" fill="black"/>
<path d="M735.866 225.857C735.866 222.958 733.827 221.779 731.31 223.245L689.354 247.488C688.026 248.36 686.922 249.533 686.13 250.911C685.339 252.289 684.883 253.833 684.799 255.42V289.38C684.799 292.279 686.838 293.458 689.354 291.992L704.901 283.008L711.463 294.318C711.537 294.488 711.66 294.633 711.816 294.735C711.971 294.837 712.153 294.891 712.339 294.891C712.525 294.891 712.707 294.837 712.863 294.735C713.018 294.633 713.141 294.488 713.215 294.318L720.128 274.375L731.31 268.004C732.641 267.142 733.749 265.977 734.541 264.603C735.333 263.229 735.787 261.687 735.866 260.103V225.857Z" fill="#F5F5F5"/>
<path d="M699.326 261.345C698.906 261.374 698.485 261.308 698.094 261.154C697.703 261 697.351 260.761 697.064 260.453C696.466 259.658 696.172 258.675 696.235 257.682C696.254 256.386 696.536 255.107 697.064 253.923C697.634 252.636 698.397 251.444 699.326 250.387C700.238 249.33 701.313 248.427 702.511 247.711C703.472 247.117 704.569 246.777 705.697 246.723C706.125 246.691 706.554 246.758 706.951 246.918C707.349 247.079 707.704 247.328 707.991 247.647C708.613 248.431 708.92 249.42 708.851 250.419C708.829 251.708 708.536 252.978 707.991 254.146C707.402 255.439 706.629 256.641 705.697 257.714C704.784 258.752 703.708 259.634 702.511 260.326C701.559 260.943 700.459 261.295 699.326 261.345ZM698.306 278.516C698.31 278.31 698.377 278.11 698.497 277.943L716.72 240.861C716.851 240.57 717.011 240.293 717.197 240.033C717.373 239.813 717.589 239.63 717.835 239.492L721.594 237.357C721.664 237.325 721.74 237.309 721.817 237.309C721.894 237.309 721.97 237.325 722.04 237.357C722.04 237.357 722.199 237.357 722.199 237.644C722.207 237.857 722.151 238.067 722.04 238.249L703.722 275.49C703.608 275.737 703.469 275.972 703.308 276.191C703.156 276.384 702.959 276.537 702.734 276.637L698.943 278.835C698.529 279.058 698.306 278.994 698.306 278.612V278.516ZM704.678 255.006C705.249 254.18 705.569 253.206 705.601 252.202C705.656 251.841 705.596 251.472 705.431 251.146C705.265 250.821 705.002 250.555 704.678 250.387C704.29 250.271 703.88 250.248 703.481 250.32C703.083 250.392 702.707 250.557 702.384 250.801C701.46 251.349 700.683 252.114 700.122 253.031C699.532 253.872 699.21 254.871 699.198 255.898C699.198 256.822 699.485 257.395 700.122 257.65C700.505 257.766 700.91 257.788 701.303 257.716C701.696 257.644 702.067 257.48 702.384 257.236C703.411 256.723 704.281 255.941 704.901 254.974L704.678 255.006ZM714.808 269.278C714.381 269.309 713.952 269.243 713.554 269.083C713.156 268.922 712.801 268.673 712.514 268.354C711.916 267.571 711.622 266.598 711.686 265.614C711.713 264.34 711.995 263.083 712.514 261.919C713.088 260.617 713.862 259.413 714.808 258.351C715.712 257.295 716.789 256.401 717.994 255.707C718.946 255.089 720.046 254.737 721.179 254.687C721.603 254.665 722.027 254.733 722.422 254.887C722.818 255.041 723.176 255.277 723.473 255.579C724.09 256.365 724.386 257.356 724.302 258.351C724.296 259.638 724.013 260.909 723.473 262.078C722.884 263.372 722.112 264.573 721.179 265.646C720.265 266.692 719.19 267.584 717.994 268.29C717.079 268.898 716.029 269.27 714.936 269.373L714.808 269.278ZM720.287 262.906C720.859 262.069 721.18 261.085 721.211 260.071C721.262 259.719 721.199 259.36 721.033 259.045C720.867 258.731 720.606 258.477 720.287 258.319C719.895 258.201 719.479 258.176 719.075 258.248C718.671 258.32 718.29 258.486 717.962 258.733C717.032 259.274 716.254 260.041 715.7 260.963C715.111 261.782 714.778 262.758 714.744 263.767C714.744 264.722 715.063 265.328 715.7 265.551C716.084 265.652 716.486 265.667 716.877 265.596C717.268 265.524 717.638 265.367 717.962 265.136C718.928 264.644 719.768 263.936 720.415 263.066L720.287 262.906Z" fill="#5F2EE9"/>
<path opacity="0.4" d="M699.326 261.345C698.906 261.374 698.485 261.308 698.094 261.154C697.703 261 697.351 260.761 697.064 260.453C696.466 259.658 696.172 258.675 696.235 257.682C696.254 256.386 696.536 255.107 697.064 253.923C697.634 252.636 698.397 251.444 699.326 250.387C700.238 249.33 701.313 248.427 702.511 247.711C703.472 247.117 704.569 246.777 705.697 246.723C706.125 246.691 706.554 246.758 706.951 246.918C707.349 247.079 707.704 247.328 707.991 247.647C708.613 248.431 708.92 249.42 708.851 250.419C708.829 251.708 708.536 252.978 707.991 254.146C707.402 255.439 706.629 256.641 705.697 257.714C704.784 258.752 703.708 259.634 702.511 260.326C701.559 260.943 700.459 261.295 699.326 261.345ZM698.306 278.516C698.31 278.31 698.377 278.11 698.497 277.943L716.72 240.861C716.851 240.57 717.011 240.293 717.197 240.033C717.373 239.813 717.589 239.63 717.835 239.492L721.594 237.357C721.664 237.325 721.74 237.309 721.817 237.309C721.894 237.309 721.97 237.325 722.04 237.357C722.04 237.357 722.199 237.357 722.199 237.644C722.207 237.857 722.151 238.067 722.04 238.249L703.722 275.49C703.608 275.737 703.469 275.972 703.308 276.191C703.156 276.384 702.959 276.537 702.734 276.637L698.943 278.835C698.529 279.058 698.306 278.994 698.306 278.612V278.516ZM704.678 255.006C705.249 254.18 705.569 253.206 705.601 252.202C705.656 251.841 705.596 251.472 705.431 251.146C705.265 250.821 705.002 250.555 704.678 250.387C704.29 250.271 703.88 250.248 703.481 250.32C703.083 250.392 702.707 250.557 702.384 250.801C701.46 251.349 700.683 252.114 700.122 253.031C699.532 253.872 699.21 254.871 699.198 255.898C699.198 256.822 699.485 257.395 700.122 257.65C700.505 257.766 700.91 257.788 701.303 257.716C701.696 257.644 702.067 257.48 702.384 257.236C703.411 256.723 704.281 255.941 704.901 254.974L704.678 255.006ZM714.808 269.278C714.381 269.309 713.952 269.243 713.554 269.083C713.156 268.922 712.801 268.673 712.514 268.354C711.916 267.571 711.622 266.598 711.686 265.614C711.713 264.34 711.995 263.083 712.514 261.919C713.088 260.617 713.862 259.413 714.808 258.351C715.712 257.295 716.789 256.401 717.994 255.707C718.946 255.089 720.046 254.737 721.179 254.687C721.603 254.665 722.027 254.733 722.422 254.887C722.818 255.041 723.176 255.277 723.473 255.579C724.09 256.365 724.386 257.356 724.302 258.351C724.296 259.638 724.013 260.909 723.473 262.078C722.884 263.372 722.112 264.573 721.179 265.646C720.265 266.692 719.19 267.584 717.994 268.29C717.079 268.898 716.029 269.27 714.936 269.373L714.808 269.278ZM720.287 262.906C720.859 262.069 721.18 261.085 721.211 260.071C721.262 259.719 721.199 259.36 721.033 259.045C720.867 258.731 720.606 258.477 720.287 258.319C719.895 258.201 719.479 258.176 719.075 258.248C718.671 258.32 718.29 258.486 717.962 258.733C717.032 259.274 716.254 260.041 715.7 260.963C715.111 261.782 714.778 262.758 714.744 263.767C714.744 264.722 715.063 265.328 715.7 265.551C716.084 265.652 716.486 265.667 716.877 265.596C717.268 265.524 717.638 265.367 717.962 265.136C718.928 264.644 719.768 263.936 720.415 263.066L720.287 262.906Z" fill="black"/>
<path d="M583.557 406.677C583.557 403.778 581.518 402.599 579.001 404.033L537.046 428.308C535.718 429.18 534.613 430.353 533.822 431.731C533.03 433.109 532.574 434.653 532.49 436.24V470.168C532.49 473.099 534.529 474.278 537.046 472.812L552.624 463.828L559.155 475.138C559.249 475.301 559.388 475.433 559.555 475.52C559.722 475.607 559.91 475.644 560.097 475.627C560.285 475.61 560.464 475.54 560.613 475.425C560.762 475.311 560.875 475.155 560.939 474.978L567.852 455.004L579.001 448.633C580.329 447.767 581.434 446.601 582.225 445.228C583.017 443.855 583.473 442.315 583.557 440.732V406.677Z" fill="#F5F5F5"/>
<path d="M547.048 442.262C546.625 442.296 546.2 442.23 545.807 442.069C545.415 441.909 545.065 441.658 544.787 441.338C544.169 440.565 543.873 439.584 543.958 438.598C543.961 437.3 544.243 436.018 544.787 434.839C545.353 433.54 546.115 432.337 547.048 431.271C547.956 430.218 549.033 429.325 550.234 428.627C551.19 428.021 552.289 427.68 553.42 427.639C553.847 427.608 554.276 427.674 554.674 427.835C555.072 427.995 555.427 428.244 555.714 428.563C556.342 429.344 556.649 430.335 556.574 431.335C556.552 432.614 556.259 433.873 555.714 435.03C555.133 436.338 554.359 437.551 553.42 438.63C552.507 439.668 551.431 440.55 550.234 441.242C549.278 441.85 548.18 442.201 547.048 442.262ZM546.029 459.433C546.041 459.222 546.095 459.016 546.188 458.827L564.411 421.778C564.534 421.482 564.695 421.204 564.888 420.949C565.072 420.737 565.286 420.554 565.526 420.408L569.285 418.241C569.429 418.19 569.586 418.19 569.731 418.241C569.793 418.257 569.847 418.294 569.882 418.348C569.917 418.401 569.932 418.465 569.922 418.528C569.913 418.743 569.847 418.952 569.731 419.133L551.445 456.374C551.285 456.693 551.126 456.916 551.031 457.075C550.851 457.252 550.647 457.402 550.425 457.521L546.634 459.719C546.22 459.847 546.029 459.815 546.029 459.433ZM552.401 435.922C552.959 435.092 553.268 434.119 553.292 433.119C553.292 432.163 553.006 431.558 552.401 431.303C552.012 431.187 551.603 431.164 551.204 431.236C550.806 431.308 550.43 431.473 550.107 431.717C549.165 432.253 548.376 433.021 547.813 433.947C547.237 434.794 546.916 435.79 546.889 436.814C546.839 437.166 546.901 437.525 547.067 437.84C547.233 438.154 547.494 438.409 547.813 438.566C548.201 438.682 548.611 438.705 549.009 438.633C549.408 438.561 549.784 438.396 550.107 438.152C551.088 437.623 551.92 436.856 552.528 435.922H552.401ZM562.531 450.194C562.104 450.219 561.677 450.149 561.281 449.989C560.884 449.829 560.528 449.584 560.237 449.27C559.62 448.496 559.313 447.519 559.377 446.53C559.399 445.252 559.692 443.992 560.237 442.835C560.818 441.528 561.591 440.314 562.531 439.235C563.45 438.203 564.525 437.322 565.717 436.623C566.673 436.015 567.771 435.664 568.902 435.603C569.327 435.575 569.752 435.64 570.149 435.794C570.545 435.948 570.903 436.188 571.196 436.495C571.827 437.275 572.135 438.267 572.056 439.267C572.038 440.557 571.745 441.827 571.196 442.994C570.614 444.282 569.841 445.474 568.902 446.53C568.004 447.592 566.926 448.487 565.717 449.175C564.802 449.771 563.748 450.122 562.658 450.194H562.531ZM567.979 443.823C568.555 442.975 568.875 441.98 568.902 440.955C568.948 440.604 568.883 440.247 568.718 439.933C568.553 439.619 568.294 439.365 567.979 439.203C567.582 439.101 567.168 439.088 566.766 439.165C566.364 439.243 565.984 439.408 565.653 439.649C564.736 440.193 563.961 440.947 563.391 441.847C562.814 442.683 562.493 443.668 562.467 444.683C562.467 445.638 562.754 446.212 563.391 446.467C563.775 446.568 564.177 446.583 564.568 446.512C564.959 446.44 565.329 446.283 565.653 446.053C566.629 445.533 567.47 444.791 568.106 443.886L567.979 443.823Z" fill="#5F2EE9"/>
<path opacity="0.4" d="M547.048 442.262C546.625 442.296 546.2 442.23 545.807 442.069C545.415 441.909 545.065 441.658 544.787 441.338C544.169 440.565 543.873 439.584 543.958 438.598C543.961 437.3 544.243 436.018 544.787 434.839C545.353 433.54 546.115 432.337 547.048 431.271C547.956 430.218 549.033 429.325 550.234 428.627C551.19 428.021 552.289 427.68 553.42 427.639C553.847 427.608 554.276 427.674 554.674 427.835C555.072 427.995 555.427 428.244 555.714 428.563C556.342 429.344 556.649 430.335 556.574 431.335C556.552 432.614 556.259 433.873 555.714 435.03C555.133 436.338 554.359 437.551 553.42 438.63C552.507 439.668 551.431 440.55 550.234 441.242C549.278 441.85 548.18 442.201 547.048 442.262ZM546.029 459.433C546.041 459.222 546.095 459.016 546.188 458.827L564.411 421.778C564.534 421.482 564.695 421.204 564.888 420.949C565.072 420.737 565.286 420.554 565.526 420.408L569.285 418.241C569.429 418.19 569.586 418.19 569.731 418.241C569.793 418.257 569.847 418.294 569.882 418.348C569.917 418.401 569.932 418.465 569.922 418.528C569.913 418.743 569.847 418.952 569.731 419.133L551.445 456.374C551.285 456.693 551.126 456.916 551.031 457.075C550.851 457.252 550.647 457.402 550.425 457.521L546.634 459.719C546.22 459.847 546.029 459.815 546.029 459.433ZM552.401 435.922C552.959 435.092 553.268 434.119 553.292 433.119C553.292 432.163 553.006 431.558 552.401 431.303C552.012 431.187 551.603 431.164 551.204 431.236C550.806 431.308 550.43 431.473 550.107 431.717C549.165 432.253 548.376 433.021 547.813 433.947C547.237 434.794 546.916 435.79 546.889 436.814C546.839 437.166 546.901 437.525 547.067 437.84C547.233 438.154 547.494 438.409 547.813 438.566C548.201 438.682 548.611 438.705 549.009 438.633C549.408 438.561 549.784 438.396 550.107 438.152C551.088 437.623 551.92 436.856 552.528 435.922H552.401ZM562.531 450.194C562.104 450.219 561.677 450.149 561.281 449.989C560.884 449.829 560.528 449.584 560.237 449.27C559.62 448.496 559.313 447.519 559.377 446.53C559.399 445.252 559.692 443.992 560.237 442.835C560.818 441.528 561.591 440.314 562.531 439.235C563.45 438.203 564.525 437.322 565.717 436.623C566.673 436.015 567.771 435.664 568.902 435.603C569.327 435.575 569.752 435.64 570.149 435.794C570.545 435.948 570.903 436.188 571.196 436.495C571.827 437.275 572.135 438.267 572.056 439.267C572.038 440.557 571.745 441.827 571.196 442.994C570.614 444.282 569.841 445.474 568.902 446.53C568.004 447.592 566.926 448.487 565.717 449.175C564.802 449.771 563.748 450.122 562.658 450.194H562.531ZM567.979 443.823C568.555 442.975 568.875 441.98 568.902 440.955C568.948 440.604 568.883 440.247 568.718 439.933C568.553 439.619 568.294 439.365 567.979 439.203C567.582 439.101 567.168 439.088 566.766 439.165C566.364 439.243 565.984 439.408 565.653 439.649C564.736 440.193 563.961 440.947 563.391 441.847C562.814 442.683 562.493 443.668 562.467 444.683C562.467 445.638 562.754 446.212 563.391 446.467C563.775 446.568 564.177 446.583 564.568 446.512C564.959 446.44 565.329 446.283 565.653 446.053C566.629 445.533 567.47 444.791 568.106 443.886L567.979 443.823Z" fill="black"/>
<path d="M545.87 723.846L576.612 706.101C581.104 703.521 584.704 704.636 584.704 708.586C584.371 711.051 583.466 713.404 582.061 715.457C580.656 717.509 578.79 719.204 576.612 720.405L545.902 738.15C541.41 740.73 537.778 739.615 537.778 735.665C538.125 733.204 539.036 730.857 540.439 728.807C541.843 726.757 543.702 725.059 545.87 723.846Z" fill="#F5F5F5"/>
<path d="M698.752 635.57L729.494 617.826C733.954 615.246 737.586 616.361 737.586 620.311C737.239 622.771 736.328 625.118 734.925 627.168C733.521 629.219 731.662 630.917 729.494 632.13L698.752 650.002C694.292 652.582 690.66 651.467 690.66 647.517C690.993 645.035 691.897 642.665 693.301 640.592C694.705 638.519 696.571 636.8 698.752 635.57Z" fill="#F5F5F5"/>
<path d="M815.572 568.225L846.314 550.48C850.774 547.9 854.406 549.015 854.406 552.965C854.059 555.426 853.148 557.772 851.745 559.823C850.341 561.873 848.483 563.571 846.314 564.784L815.572 582.528C811.112 585.109 807.48 584.026 807.48 580.075C807.825 577.61 808.734 575.258 810.138 573.202C811.542 571.146 813.401 569.443 815.572 568.225Z" fill="#F5F5F5"/>
<path d="M930.639 501.707L961.382 483.963C965.873 481.382 969.505 482.465 969.473 486.416C969.146 488.886 968.243 491.246 966.837 493.304C965.432 495.362 963.563 497.062 961.382 498.266L930.671 516.011C926.18 518.591 922.548 517.476 922.548 513.526C922.894 511.066 923.805 508.719 925.209 506.668C926.613 504.618 928.471 502.92 930.639 501.707Z" fill="#F5F5F5"/>
</svg>
